<?xml version="1.0" encoding="UTF-8"?>
<svg width="400px" height="329px" viewBox="0 0 400 329" version="1.1" xmlns="http://www.w3.org/2000/svg" xmlns:xlink="http://www.w3.org/1999/xlink">
    <title>Group</title>
    <g id="Page-1" stroke="none" stroke-width="1" fill="none" fill-rule="evenodd">
        <g id="Artboard" transform="translate(-56, -92)">
            <g id="Group" transform="translate(56, 92)">
                <path d="M165.922333,268.037539 C157.043486,253.697182 149.042265,224.092387 148.40969,199.358979 C148.40969,199.358979 141.098033,221.479864 140.955561,235.997051 C140.875777,239.493725 143.035651,259.007791 155.077374,276.137502 C163.426226,288.076391 176.431059,296.410226 193.584673,302.565057 C193.584673,302.565057 210.544525,305.080609 213.844174,303.814277 C213.844174,303.814277 186.027964,300.631334 165.922333,268.037539" id="Fill-2" fill="#00ADEE"></path>
                <path d="M179.77003,157.656148 C179.77003,157.656148 162.627813,170.992566 158.855158,182.36674 C158.855158,182.36674 159.293971,287.329711 231.219474,300.295356 C231.219474,300.295356 243.865278,297.460369 249.63254,294.471369 C249.63254,294.471369 171.580746,291.693424 179.77003,157.656148" id="Fill-4" fill="#00ADEE"></path>
                <path d="M194.833866,150.443759 C194.833866,150.443759 185.766956,283.08921 262.029303,285.599057 C262.029303,285.599057 272.543727,279.261692 277.461856,274.447348 C277.461856,274.447348 203.017451,282.250692 220.473105,138.373673 C220.473105,138.373673 203.37648,142.486401 194.833866,150.443759 Z" id="Fill-6" fill="#00ADEE"></path>
                <path d="M257.080399,82.3852454 C255.313748,80.6796898 253.512904,79.2479358 252.549794,78.5120941 L252.145174,78.1869547 C249.307134,76.0821052 246.697049,74.2966908 244.086964,72.5683184 C237.641536,68.3643235 230.751596,64.3485672 223.542519,60.8062594 C202.433886,50.2363781 180.806655,43.2487339 159.225015,40.0144529 C133.790935,36.1869352 108.727283,37.4874926 84.6951264,43.7678161 C58.7652447,50.5444049 37.4742473,61.4394255 21.5686869,76.2304144 C19.9843997,77.65076 18.7192494,78.96843 17.5338834,80.1720161 C10.3988917,87.9468397 4.63163013,98.5794673 1.73660158,109.411742 C-0.662624835,118.515644 -0.565743959,128.515105 1.96455659,138.371962 C4.47206163,147.972129 9.33320209,156.288852 16.0407781,162.232627 C25.2786546,170.920123 38.1809079,177.896359 52.3597091,181.815144 C52.6332551,181.866481 52.9011022,181.952044 52.9295966,181.98627 L52.2628282,180.674304 L52.3597091,180.62867 C53.0435741,180.788388 53.3741089,180.896768 53.1632505,180.879655 L52.9865854,182.014791 C53.0435741,182.026199 53.1062618,182.031903 53.1062618,182.031903 C60.4008219,183.754571 68.9890267,185.61414 77.6627146,187.085824 L78.0844313,187.114345 C88.866703,189.316166 91.2260373,188.591732 92.1150618,187.604906 C92.5025853,187.102936 92.6507561,186.46977 92.4512955,185.716816 C91.7332372,183.560629 88.5874581,183.035842 86.2452205,182.653661 C85.7950093,182.596619 85.4644746,182.511056 85.2023263,182.44831 C81.3099946,181.569863 77.3207821,180.765571 73.491138,180.086771 C64.6464838,178.421145 55.4428005,176.738406 47.1110451,173.315887 C43.8455897,172.038146 40.4376624,170.583575 37.4058608,168.798161 C27.6664833,163.179524 20.559986,155.501672 15.6874478,145.359606 C10.8775972,135.263173 9.35599759,125.354979 10.843404,114.243199 C11.9204914,106.291545 15.7387377,98.4882001 22.4064216,90.3140825 C23.346736,89.1447216 24.4580166,87.924023 25.7972523,86.3895933 C33.701592,77.764844 44.5978412,71.3362113 52.046271,67.2177794 C63.0109067,61.1256946 74.995641,56.4026175 87.544564,53.1512239 C115.121421,46.0609042 144.704281,45.8156236 173.07898,52.5066494 C178.965918,53.9326992 183.798564,55.2845945 188.180999,56.6935317 C206.286326,62.540336 222.972632,70.3664975 237.829599,80.1092699 C242.269023,82.9784821 246.611566,86.3610723 250.840131,89.6695079 L251.427115,90.0859145 C251.478405,90.1543649 258.778664,95.56765 261.611005,92.7668882 C262.215086,92.1166094 262.488632,91.3294299 262.50003,90.4395748 C262.454439,88.3575421 260.727679,85.8134692 257.080399,82.3852454" id="Fill-8" fill="#000000"></path>
                <path d="M382.214589,45.5766177 C379.632999,43.123812 376.806357,40.9162868 373.854339,38.9027045 C379.809664,31.8123847 383.303074,23.204748 383.736189,14.0666207 C383.890059,10.8323397 383.6792,7.70073423 383.063722,4.73455059 C383.063722,4.6718044 382.214589,0.792948864 380.014823,0.0913323482 C379.444936,-0.0683852325 378.51032,-0.108314628 377.592802,0.74161107 C376.458725,1.87674673 376.692379,3.94737108 377.125494,5.64722248 C377.319256,6.63404896 377.575705,7.63228384 377.889143,8.58488513 C378.168388,9.77706278 378.504622,10.8893816 378.533116,11.5453646 C378.641395,14.4887314 378.424837,17.6488578 377.712478,21.1512362 C376.63539,26.9124775 374.338744,31.162106 371.62038,35.6798319 C371.483607,35.9536334 371.187266,36.3586316 370.868129,36.9062347 C359.139844,29.6961268 345.468243,26.1424106 332.793944,27.3688135 C314.836789,29.1371153 300.03681,38.5889735 289.898511,54.7261534 C281.219125,68.6386955 276.215512,87.48537 275.679818,107.900699 C270.425455,106.970915 265.307865,106.514579 261.238869,106.246482 C202.853893,102.430372 159.382874,120.700923 132.011177,160.476304 C114.281976,186.270694 107.768162,222.982921 115.108313,256.318261 C117.769688,268.964471 122.499754,280.350053 128.745721,290.132755 L127.161434,322.253101 L144.656981,308.460347 C147.85405,311.22118 151.210687,313.74814 154.795279,315.898623 C194.430956,339.616684 254.656668,330.06215 281.281812,295.871179 L281.868796,295.055479 C283.504374,292.984854 286.268328,289.510997 288.48519,286.048548 C289.961199,283.709826 290.986997,281.747582 291.744947,279.848083 C291.904515,279.568578 292.143868,279.140763 292.349028,278.747173 C293.044291,277.338236 293.842133,275.775285 293.70536,274.326419 C293.534394,272.734947 292.770744,272.175935 292.115374,271.981993 C291.163662,271.742416 289.579374,271.976288 286.063169,276.568169 C274.106929,292.089295 256.400524,303.457764 234.921463,309.498511 C213.527886,315.510738 190.128305,314.290039 167.087753,305.979021 C136.211248,294.79879 127.8396,255.548194 129.942485,225.338755 C132.506979,190.913912 151.39875,161.78827 183.078797,143.352298 C206.056661,129.998768 234.881571,124.556961 262.219075,128.373071 C276.722712,130.363836 288.496588,134.596352 299.233269,141.646743 C301.547012,143.221102 303.826562,144.938066 306.043425,146.626509 C309.958552,149.490017 313.782497,151.651908 317.726119,153.283309 C322.746828,155.217033 324.177245,154.395628 324.587564,154.087601 C325.208742,153.785279 325.539276,153.192042 325.596265,152.536059 C326.02938,149.706776 323.424994,148.406219 321.806513,147.664673 C321.652644,147.596222 321.458882,147.447913 321.327808,147.385167 C319.447179,146.398341 317.936977,145.057854 316.233013,143.329481 C309.400062,136.410288 297.723067,121.162963 296.024802,96.9714535 C295.751256,95.0890677 289.750341,53.2601741 329.443006,45.873236 C334.896829,44.8578886 342.955039,44.0650049 350.238201,45.9473906 L350.29519,45.9645032 L350.386372,45.9702074 C351.828187,46.129925 353.23011,46.472177 354.723216,46.8657667 C364.975492,49.4668816 374.0538,55.0969263 380.408046,62.6778072 C386.323478,69.8879151 390.261401,79.2941398 391.48096,89.2422634 C392.124933,94.125058 392.03945,99.1219366 391.355585,103.993323 C391.02505,106.508875 390.460861,108.898934 389.839684,111.17491 C389.737104,111.414486 389.264098,112.549622 388.842381,113.650532 C385.633914,121.522327 385.542732,122.058522 385.901761,122.760139 L386.186705,123.193658 C386.2152,123.233587 386.722399,123.376192 386.722399,123.376192 C387.468952,123.541614 388.243999,123.741261 392.14203,116.79925 C393.390083,114.608838 395.73802,110.541744 397.601552,104.386913 C399.174442,99.8634825 399.584761,94.8551955 399.903898,89.6415574 C400.867007,73.0993794 394.564052,57.4470564 382.214589,45.5766177" id="Fill-10" fill="#000000"></path>
            </g>
        </g>
    </g>
</svg>