<?xml version="1.0" encoding="UTF-8"?>
<svg width="109px" height="28px" viewBox="0 0 109 28" version="1.1" xmlns="http://www.w3.org/2000/svg" xmlns:xlink="http://www.w3.org/1999/xlink">
    <title>abbott</title>
    <g id="Page-1" stroke="none" stroke-width="1" fill="none" fill-rule="evenodd">
        <g id="Artboard" transform="translate(-697, -546)">
            <g id="abbott" transform="translate(697, 546)">
                <path d="M29.465,0 L0,0 L0,4.527 L27.992,4.527 L27.992,4.531 C28.805,4.531 29.449,5.184 29.449,5.988 L29.449,21.207 C29.445,22.012 28.789,22.656 27.988,22.656 L5.988,22.656 C5.184,22.656 4.523,22.008 4.523,21.195 L4.523,15.051 C4.523,14.246 5.184,13.59 5.988,13.59 L24.914,13.59 L24.914,9.066 L4.516,9.066 C2.023,9.066 0,11.086 0,13.578 L0,22.672 C0,25.164 2.023,27.184 4.516,27.184 L29.465,27.184 C31.961,27.184 33.98,25.164 33.98,22.672 L33.98,4.516 C33.98,2.023 31.961,0 29.465,0" id="Fill-1" fill="#ADAFB1"></path>
                <path d="M46.246,14.109 L49.309,14.109 L47.789,9.562 L47.75,9.562 L46.246,14.109 Z M50.707,6.418 L54.238,16.977 C54.656,18.266 54.953,18.562 55.688,18.562 L56.406,18.562 L56.406,20.422 L48.699,20.422 L48.699,18.562 L49.332,18.562 C49.965,18.562 50.492,18.48 50.492,18.25 C50.492,18.035 50.473,17.801 50.387,17.484 L49.945,15.969 L45.637,15.969 L45.379,16.812 C45.148,17.551 45.062,17.863 45.062,18.16 C45.062,18.5 45.805,18.562 46.379,18.562 L46.984,18.562 L46.984,20.422 L40.777,20.422 L40.777,18.562 L41.496,18.562 C42.234,18.562 42.527,18.266 42.953,16.977 L46.48,6.418 L50.707,6.418 Z" id="Fill-2" fill="#231F20"></path>
                <path d="M61.141,15.477 C61.141,17.633 61.625,18.922 62.809,18.922 C63.996,18.922 64.477,17.633 64.477,15.477 C64.477,13.324 63.996,12.039 62.809,12.039 C61.625,12.039 61.141,13.324 61.141,15.477 L61.141,15.477 Z M57.633,9.02 C57.633,8.422 57.484,8.109 56.871,8.109 L55.902,8.109 L55.902,6.418 L61.141,6.418 L61.141,11.676 C61.922,10.789 62.914,10.219 63.863,10.219 C67.031,10.219 68.215,12.695 68.215,15.477 C68.215,18.266 67.031,20.738 63.863,20.738 C62.531,20.738 61.348,20.273 60.613,19.113 L60,20.426 L57.633,20.426 L57.633,9.02 Z" id="Fill-3" fill="#231F20"></path>
                <path d="M72.992,15.477 C72.992,17.633 73.48,18.922 74.66,18.922 C75.844,18.922 76.328,17.633 76.328,15.477 C76.328,13.324 75.844,12.039 74.66,12.039 C73.48,12.039 72.992,13.324 72.992,15.477 L72.992,15.477 Z M69.484,9.02 C69.484,8.422 69.332,8.109 68.727,8.109 L67.754,8.109 L67.754,6.418 L72.992,6.418 L72.992,11.676 C73.773,10.789 74.766,10.219 75.715,10.219 C78.887,10.219 80.07,12.695 80.07,15.477 C80.07,18.266 78.887,20.738 75.715,20.738 C74.387,20.738 73.203,20.273 72.465,19.113 L71.848,20.426 L69.484,20.426 L69.484,9.02 Z" id="Fill-4" fill="#231F20"></path>
                <path d="M84.824,15.477 C84.824,17.969 85.266,19.047 86.531,19.047 C87.797,19.047 88.238,17.969 88.238,15.477 C88.238,12.988 87.797,11.91 86.531,11.91 C85.266,11.91 84.824,12.988 84.824,15.477 M91.984,15.477 C91.984,18.859 89.68,20.738 86.531,20.738 C83.379,20.738 81.082,18.859 81.082,15.477 C81.082,12.098 83.379,10.219 86.531,10.219 C89.68,10.219 91.984,12.098 91.984,15.477" id="Fill-5" fill="#231F20"></path>
                <path d="M107.043,15.648 L107.043,17.297 C107.043,18.266 106.832,18.84 106.027,18.84 C105.547,18.84 105.312,18.48 105.312,18.035 L105.312,12.227 L107.906,12.227 L107.906,10.535 L105.312,10.535 L105.312,6.613 L103.219,6.613 C103.047,8.363 102.5,10.535 100.391,10.535 L97.094,10.535 L97.094,6.613 L95.004,6.613 C94.836,8.363 94.285,10.535 92.176,10.535 L92.176,12.227 L93.59,12.227 L93.59,17.527 C93.59,19.684 94.793,20.738 96.965,20.738 C99.508,20.738 100.516,19.598 100.516,17.527 L100.516,15.648 L98.828,15.648 L98.828,17.297 C98.828,18.266 98.613,18.84 97.812,18.84 C97.324,18.84 97.094,18.48 97.094,18.035 L97.094,12.227 L101.812,12.227 L101.812,17.527 C101.812,19.684 103.008,20.738 105.184,20.738 C107.719,20.738 108.734,19.598 108.734,17.527 L108.734,15.648 L107.043,15.648 Z" id="Fill-6" fill="#231F20"></path>
            </g>
        </g>
    </g>
</svg>