<?xml version="1.0" encoding="UTF-8"?>
<svg width="84px" height="15px" viewBox="0 0 84 15" version="1.1" xmlns="http://www.w3.org/2000/svg" xmlns:xlink="http://www.w3.org/1999/xlink">
    <title>abbvie</title>
    <g id="Page-1" stroke="none" stroke-width="1" fill="none" fill-rule="evenodd">
        <g id="Artboard" transform="translate(-703, -246)" fill="#231F20">
            <g id="abbvie" transform="translate(703, 246)">
                <path d="M42.098,3.562 L38.758,3.562 C36.766,3.562 35.516,4.277 34.805,4.941 L34.805,1.047 C34.805,0.371 34.395,0 33.668,0 L33.16,0 L33.16,8.871 C33.16,12.098 35.508,14.18 38.758,14.18 L42.098,14.18 C46.379,14.18 47.918,11.414 47.918,8.871 C47.918,6.613 46.637,3.562 42.098,3.562 M41.977,12.703 L39.125,12.703 C35.676,12.703 34.805,10.41 34.805,8.871 C34.805,7.145 35.781,5.039 39.125,5.039 L41.977,5.039 C45.184,5.039 46.273,7.039 46.273,8.871 C46.273,10.684 45.184,12.703 41.977,12.703" id="Fill-1"></path>
                <path d="M25.672,3.562 L22.332,3.562 C20.34,3.562 19.086,4.277 18.379,4.941 L18.379,1.047 C18.379,0.371 17.969,0 17.242,0 L16.734,0 L16.734,8.871 C16.734,12.098 19.082,14.18 22.332,14.18 L25.672,14.18 C29.953,14.18 31.492,11.414 31.492,8.871 C31.492,6.613 30.211,3.562 25.672,3.562 M25.551,12.703 L22.699,12.703 C19.25,12.703 18.379,10.41 18.379,8.871 C18.379,7.145 19.355,5.039 22.699,5.039 L25.551,5.039 C28.758,5.039 29.848,7.039 29.848,8.871 C29.848,10.684 28.758,12.703 25.551,12.703" id="Fill-2"></path>
                <path d="M65.703,3.562 L66.094,3.562 C66.855,3.562 67.348,3.902 67.348,4.934 L67.348,14.18 L66.938,14.18 C66.102,14.18 65.703,13.73 65.703,12.84 L65.703,3.562 Z" id="Fill-3"></path>
                <path d="M66.523,2.344 C67,2.344 67.367,2.055 67.367,1.5 L67.367,1.148 C67.367,0.59 66.992,0.305 66.523,0.305 C66.059,0.305 65.68,0.586 65.68,1.148 L65.68,1.5 C65.68,2.059 66.051,2.344 66.523,2.344" id="Fill-4"></path>
                <path d="M81.422,12.703 L75.062,12.703 C72.078,12.703 71.027,10.871 70.891,9.609 L79.715,9.609 C82.293,9.609 83.055,7.77 83.055,6.586 C83.055,5.32 82.227,3.562 79.715,3.562 L74.949,3.562 C70.605,3.562 69.18,6.492 69.18,8.871 C69.18,11.484 70.805,14.18 74.938,14.18 L82.777,14.18 L82.777,13.879 C82.777,13.008 82.27,12.703 81.422,12.703 M75.074,5.039 L79.5,5.039 C81.023,5.039 81.395,5.98 81.395,6.586 C81.395,7.129 81.062,8.133 79.5,8.133 L70.891,8.133 C70.992,7.078 71.883,5.039 75.074,5.039" id="Fill-5"></path>
                <path d="M14.652,7.727 C14.219,5.441 12.41,3.562 9.16,3.562 L5.824,3.562 C1.539,3.562 0,6.328 0,8.871 C0,11.129 1.281,14.18 5.824,14.18 L9.16,14.18 C12.062,14.18 13.406,12.656 13.766,11.992 L13.984,13.145 C14.113,13.852 14.535,14.18 15.203,14.18 L15.867,14.18 C15.867,14.18 15.016,9.637 14.652,7.727 M8.793,12.703 L5.941,12.703 C2.734,12.703 1.645,10.703 1.645,8.871 C1.645,7.059 2.738,5.035 5.941,5.035 L8.793,5.035 C12.242,5.035 13.113,7.332 13.113,8.871 C13.113,10.598 12.141,12.703 8.793,12.703" id="Fill-6"></path>
                <path d="M57.074,13.512 C56.617,14.125 56.305,14.34 55.906,14.34 C55.355,14.34 55.141,14.043 54.746,13.512 C53.785,12.215 47.402,3.562 47.402,3.562 L48.391,3.562 C49.457,3.562 49.762,3.938 50.203,4.551 C50.398,4.816 55.949,12.578 55.949,12.578 C55.949,12.578 61.496,4.828 61.723,4.508 C62.129,3.934 62.445,3.562 63.516,3.562 L64.387,3.562 C64.387,3.562 57.852,12.453 57.074,13.512" id="Fill-7"></path>
            </g>
        </g>
    </g>
</svg>