<?xml version="1.0" encoding="UTF-8"?>
<svg width="115px" height="16px" viewBox="0 0 115 16" version="1.1" xmlns="http://www.w3.org/2000/svg" xmlns:xlink="http://www.w3.org/1999/xlink">
    <title>algorithm</title>
    <g id="Page-1" stroke="none" stroke-width="1" fill="none" fill-rule="evenodd">
        <g id="Artboard" transform="translate(-484, -444)">
            <g id="algorithm" transform="translate(484, 444)">
                <path d="M18.039,9.9880079 C17.977,10.1800079 17.922,10.3790079 17.871,10.5820079 C17.824,10.7890079 17.801,10.9650079 17.801,11.1050079 C17.801,11.5270079 17.953,11.8830079 18.262,12.1720079 C18.434,12.3280079 18.645,12.4340079 18.895,12.4960079 C19.145,12.5550079 19.285,12.6520079 19.309,12.7850079 C19.309,12.9180079 19.223,12.9840079 19.051,12.9840079 L15.242,12.9840079 C15.059,12.9840079 14.965,12.8980079 14.965,12.7300079 C14.965,12.6210079 15.117,12.5310079 15.426,12.4610079 C15.73,12.3910079 15.973,12.2850079 16.145,12.1520079 C16.414,11.9380079 16.633,11.6950079 16.805,11.4300079 C17.027,11.0940079 17.262,10.6020079 17.504,9.9530079 L19.879,3.6720079 L19.641,3.4180079 C19.52,3.3010079 19.465,3.2110079 19.477,3.1480079 C19.574,3.0390079 19.672,2.9300079 19.77,2.8240079 C19.867,2.7150079 19.965,2.5900079 20.055,2.4530079 C20.148,2.3120079 20.254,2.0780079 20.379,1.7380079 C20.449,1.5350079 20.535,1.4340079 20.637,1.4340079 L20.809,1.5700079 L20.93,1.8280079 L24.961,11.5200079 C25.098,11.8360079 25.293,12.0940079 25.551,12.2970079 C25.684,12.4060079 25.859,12.4800079 26.074,12.5230079 C26.289,12.5660079 26.398,12.6520079 26.398,12.7850079 C26.383,12.9180079 26.254,12.9840079 26.012,12.9840079 L22.309,12.9840079 C22.137,12.9840079 22.055,12.9260079 22.055,12.8010079 C22.055,12.6330079 22.215,12.5270079 22.539,12.4880079 C22.863,12.4450079 23.062,12.3670079 23.129,12.2540079 C23.195,12.1370079 23.23,12.0080079 23.23,11.8630079 C23.23,11.7810079 23.207,11.6720079 23.156,11.5390079 C23.109,11.4060079 23.066,11.2730079 23.027,11.1410079 L22.07,8.8520079 L18.461,8.8520079 L18.039,9.9880079 Z M18.59,8.3980079 L21.906,8.3980079 L20.156,4.1050079 L18.59,8.3980079 Z" id="Fill-1" fill="#6D6F71"></path>
                <path d="M34.16,11.6840079 C35.129,11.0350079 35.754,10.2270079 36.039,9.2620079 L36.184,8.8320079 C36.234,8.6480079 36.32,8.5660079 36.441,8.5780079 C36.527,8.6170079 36.57,8.6880079 36.57,8.7930079 L36.555,8.8870079 L35.652,13.0000079 L27.441,13.0000079 C27.254,13.0000079 27.164,12.9340079 27.164,12.8010079 C27.164,12.6560079 27.324,12.5700079 27.645,12.5390079 C27.961,12.5120079 28.195,12.4410079 28.344,12.3320079 C28.648,12.1170079 28.801,11.8630079 28.801,11.5740079 L28.801,3.3090079 C28.801,3.1520079 28.77,3.0160079 28.703,2.9020079 C28.633,2.7850079 28.539,2.6880079 28.414,2.5940079 C28.293,2.5040079 28.086,2.4380079 27.789,2.3950079 C27.496,2.3550079 27.355,2.2730079 27.367,2.1520079 C27.367,2.0080079 27.477,1.9340079 27.699,1.9340079 L31.418,1.9340079 C31.648,1.9340079 31.766,2.0000079 31.766,2.1330079 C31.766,2.2300079 31.723,2.2970079 31.637,2.3320079 C31.574,2.3550079 31.48,2.3710079 31.344,2.3710079 C31.219,2.3710079 31.105,2.3830079 31.004,2.4060079 C30.898,2.4300079 30.801,2.4840079 30.719,2.5660079 L30.551,2.7850079 C30.516,2.8710079 30.496,3.0270079 30.496,3.2540079 L30.496,11.5550079 C30.496,11.7850079 30.598,12.0080079 30.801,12.2230079 C31.004,12.4410079 31.305,12.5470079 31.711,12.5470079 C32.484,12.5470079 33.301,12.2580079 34.16,11.6840079" id="Fill-2" fill="#6D6F71"></path>
                <path d="M46.613,12.0230079 C46.211,12.2770079 45.867,12.4610079 45.586,12.5660079 C44.75,12.9140079 43.934,13.0900079 43.137,13.0900079 C41.395,13.0900079 40.008,12.5230079 38.977,11.3950079 C38.008,10.3200079 37.523,8.9800079 37.523,7.3670079 C37.523,5.8750079 38.059,4.5660079 39.133,3.4410079 C40.207,2.3160079 41.449,1.7540079 42.859,1.7540079 C43.398,1.7540079 43.965,1.8400079 44.555,2.0080079 C45.141,2.1760079 45.758,2.3630079 46.395,2.5660079 L46.559,2.5310079 C46.672,2.4730079 46.754,2.3400079 46.809,2.1330079 C46.863,1.9300079 46.941,1.8280079 47.039,1.8280079 C47.188,1.8280079 47.262,1.9180079 47.262,2.0980079 L47.262,5.9960079 C47.262,6.1910079 47.191,6.2850079 47.059,6.2850079 C46.922,6.2970079 46.844,6.1950079 46.82,5.9800079 L46.781,5.6370079 C46.66,4.5780079 46.227,3.7190079 45.492,3.0620079 C44.758,2.4100079 43.871,2.0820079 42.844,2.0820079 C41.641,2.0820079 40.719,2.6560079 40.082,3.8120079 C39.555,4.7620079 39.289,5.9260079 39.289,7.2970079 C39.289,8.7890079 39.57,10.0160079 40.137,10.9770079 C40.812,12.1330079 41.836,12.7110079 43.211,12.7110079 C44.094,12.7110079 44.797,12.4730079 45.316,11.9960079 C45.84,11.5230079 46.102,10.9340079 46.102,10.2380079 L46.102,9.9690079 C46.102,9.6680079 46.07,9.3950079 46.008,9.1560079 C45.945,8.9140079 45.832,8.7110079 45.656,8.5430079 C45.535,8.4220079 45.316,8.3440079 44.996,8.3160079 C44.676,8.2850079 44.516,8.1990079 44.516,8.0550079 C44.516,7.9340079 44.609,7.8750079 44.793,7.8750079 L48.715,7.8750079 C48.863,7.8750079 48.953,7.9220079 48.992,8.0160079 L49.008,8.1090079 C49.008,8.2070079 48.852,8.2660079 48.539,8.2890079 C48.227,8.3120079 48.008,8.3950079 47.887,8.5310079 C47.766,8.6720079 47.691,8.7970079 47.676,8.9100079 C47.656,9.0270079 47.648,9.1410079 47.648,9.2620079 L47.648,12.9800079 L47.113,12.9800079 L46.613,12.0230079 Z" id="Fill-3" fill="#6D6F71"></path>
                <path d="M51.617,11.4730079 C50.449,10.3550079 49.867,9.0230079 49.867,7.4840079 C49.867,5.9690079 50.434,4.6480079 51.57,3.5230079 C52.703,2.3980079 54.008,1.8360079 55.48,1.8360079 C57.027,1.8360079 58.355,2.3750079 59.457,3.4610079 C60.562,4.5430079 61.113,5.8360079 61.113,7.3400079 C61.113,8.8790079 60.562,10.2340079 59.457,11.4020079 C58.355,12.5700079 57.078,13.1520079 55.629,13.1520079 C54.117,13.1520079 52.781,12.5900079 51.617,11.4730079 M52.461,3.7850079 C51.898,4.6760079 51.617,5.8240079 51.617,7.2300079 C51.617,8.7500079 51.91,10.0040079 52.5,11.0040079 C53.199,12.1840079 54.242,12.7730079 55.629,12.7730079 C56.918,12.7730079 57.887,12.1840079 58.539,11.0040079 C59.066,10.0430079 59.328,8.8200079 59.328,7.3400079 C59.328,5.9450079 59.035,4.7730079 58.445,3.8200079 C57.758,2.7150079 56.781,2.1600079 55.52,2.1600079 C54.168,2.1600079 53.148,2.7030079 52.461,3.7850079" id="Fill-4" fill="#6D6F71"></path>
                <path d="M68.5,7.9260079 C68.852,8.1560079 69.137,8.4410079 69.355,8.7770079 C69.469,8.9920079 69.582,9.2030079 69.707,9.4060079 L70.812,11.5200079 C70.91,11.7460079 71.043,11.9380079 71.215,12.0780079 C71.352,12.1880079 71.555,12.3120079 71.824,12.4570079 C71.898,12.5080079 72.039,12.5310079 72.246,12.5310079 C72.406,12.5430079 72.516,12.5740079 72.578,12.6210079 L72.652,12.7660079 C72.664,12.9220079 72.566,13.0000079 72.355,13.0000079 L69.797,13.0000079 L67.441,8.7030079 C67.355,8.5120079 67.25,8.3630079 67.129,8.2540079 C67.008,8.1450079 66.836,8.0350079 66.613,7.9260079 C66.281,7.7380079 65.922,7.6370079 65.527,7.6370079 L64.977,7.6370079 L64.977,11.5390079 C64.977,11.8870079 65.117,12.1560079 65.398,12.3480079 C65.535,12.4340079 65.75,12.4920079 66.043,12.5200079 C66.336,12.5510079 66.484,12.6410079 66.484,12.7810079 C66.484,12.9260079 66.406,13.0000079 66.246,13.0000079 L62.215,13.0000079 C62.031,13.0000079 61.938,12.9340079 61.938,12.8010079 C61.938,12.6680079 62.098,12.5860079 62.418,12.5510079 C62.734,12.5120079 62.945,12.4450079 63.051,12.3480079 C63.156,12.2540079 63.223,12.1640079 63.254,12.0780079 C63.285,11.9960079 63.301,11.8910079 63.301,11.7730079 L63.301,3.2150079 C63.301,2.9180079 63.16,2.6950079 62.875,2.5510079 C62.754,2.4770079 62.566,2.4220079 62.316,2.3790079 C62.062,2.3360079 61.938,2.2500079 61.938,2.1170079 C61.938,1.9960079 62.055,1.9340079 62.289,1.9340079 L66.469,1.9340079 C67.535,1.9340079 68.379,2.0820079 69.008,2.3670079 C70.012,2.8280079 70.516,3.6520079 70.516,4.8400079 C70.516,5.5900079 70.203,6.1990079 69.578,6.6840079 C68.879,7.2230079 68.156,7.4920079 67.406,7.4920079 C67.785,7.5550079 68.152,7.6990079 68.5,7.9260079 L68.5,7.9260079 Z M64.992,2.3160079 L64.992,7.2420079 L65.141,7.2770079 C65.277,7.2930079 65.516,7.2970079 65.859,7.2970079 C66.645,7.2970079 67.281,7.1600079 67.773,6.8830079 C68.461,6.4960079 68.805,5.8590079 68.805,4.9690079 C68.805,4.1370079 68.602,3.4880079 68.199,3.0200079 C67.793,2.5510079 67.215,2.3160079 66.469,2.3160079 L64.992,2.3160079 Z" id="Fill-5" fill="#6D6F71"></path>
                <path d="M74.902,12.0780079 C74.938,11.9800079 74.957,11.8090079 74.957,11.5550079 L74.957,3.2190079 C74.957,2.9060079 74.859,2.6720079 74.664,2.5160079 C74.59,2.4410079 74.5,2.3950079 74.398,2.3670079 C74.293,2.3480079 74.18,2.3320079 74.055,2.3320079 C73.785,2.3320079 73.652,2.2620079 73.652,2.1170079 C73.652,1.9960079 73.773,1.9340079 74.02,1.9340079 L77.59,1.9340079 C77.727,1.9340079 77.812,1.9410079 77.848,1.9530079 L77.977,2.1170079 C77.977,2.2620079 77.84,2.3320079 77.57,2.3320079 C77.426,2.3320079 77.297,2.3520079 77.195,2.3870079 C77.09,2.4220079 77.02,2.4610079 76.984,2.4960079 C76.773,2.6880079 76.668,2.9410079 76.668,3.2540079 L76.668,11.5390079 C76.668,11.8240079 76.695,12.0230079 76.742,12.1250079 C76.793,12.2270079 76.879,12.3120079 77,12.3790079 C77.125,12.4450079 77.34,12.4920079 77.645,12.5200079 C77.953,12.5510079 78.113,12.6450079 78.125,12.8010079 C78.125,12.9340079 78.051,13.0000079 77.902,13.0000079 L73.871,13.0000079 C73.676,13.0000079 73.578,12.9340079 73.578,12.8010079 C73.578,12.6210079 73.75,12.5310079 74.09,12.5310079 C74.191,12.5310079 74.293,12.5200079 74.398,12.4960079 C74.5,12.4730079 74.59,12.4300079 74.664,12.3670079 C74.785,12.2700079 74.863,12.1760079 74.902,12.0780079" id="Fill-6" fill="#6D6F71"></path>
                <path d="M85.492,2.5040079 C85.293,2.4340079 85.035,2.3670079 84.719,2.3050079 L84.719,11.5270079 C84.719,11.9260079 84.852,12.2030079 85.121,12.3590079 C85.281,12.4450079 85.418,12.4920079 85.527,12.5120079 C85.637,12.5310079 85.785,12.5390079 85.969,12.5390079 C86.215,12.5390079 86.344,12.6170079 86.355,12.7730079 C86.379,12.9180079 86.305,12.9880079 86.133,12.9880079 L81.68,12.9880079 L81.496,12.9180079 L81.406,12.7540079 C81.406,12.6480079 81.445,12.5820079 81.531,12.5590079 C81.57,12.5430079 81.676,12.5390079 81.844,12.5390079 C81.969,12.5390079 82.105,12.5270079 82.25,12.5040079 C82.398,12.4800079 82.535,12.4300079 82.664,12.3590079 C82.793,12.2890079 82.883,12.1800079 82.941,12.0350079 C82.996,11.8910079 83.023,11.7270079 83.023,11.5470079 L83.023,2.3050079 C83.012,2.3050079 82.648,2.4100079 81.938,2.6130079 C81.523,2.7930079 81.129,3.0510079 80.758,3.3910079 C80.332,3.7770079 79.992,4.1990079 79.746,4.6720079 C79.379,5.3670079 79.184,5.7190079 79.16,5.7190079 C79.047,5.7030079 78.992,5.6370079 78.992,5.5200079 L79.012,5.4260079 L80.043,1.9450079 C80.09,1.8240079 80.164,1.7660079 80.262,1.7660079 L80.43,1.8360079 L80.465,1.9260079 L87.441,1.9100079 C87.441,1.7540079 87.508,1.6880079 87.645,1.7110079 C87.719,1.7110079 87.781,1.7770079 87.828,1.9100079 L88.711,5.4650079 L88.73,5.5700079 L88.637,5.6990079 L88.566,5.7190079 C88.492,5.7190079 88.395,5.5900079 88.273,5.3400079 C87.938,4.6410079 87.578,4.0940079 87.184,3.6950079 C86.668,3.1450079 86.105,2.7460079 85.492,2.5040079" id="Fill-7" fill="#6D6F71"></path>
                <path d="M92.574,7.3520079 L92.574,11.5390079 C92.574,11.7420079 92.594,11.9140079 92.637,12.0510079 C92.68,12.1910079 92.762,12.3090079 92.887,12.4060079 C93.008,12.5000079 93.133,12.5550079 93.262,12.5660079 C93.391,12.5780079 93.5,12.5860079 93.586,12.5860079 C93.832,12.5860079 93.953,12.6560079 93.953,12.8010079 C93.953,12.9340079 93.891,13.0000079 93.77,13.0000079 L89.812,13.0000079 C89.629,13.0000079 89.535,12.9340079 89.535,12.8010079 C89.535,12.6910079 89.578,12.6250079 89.664,12.6020079 C89.699,12.5900079 89.805,12.5860079 89.977,12.5860079 C90.137,12.5860079 90.262,12.5740079 90.355,12.5550079 C90.445,12.5390079 90.523,12.4960079 90.586,12.4220079 C90.707,12.2890079 90.785,12.1640079 90.816,12.0430079 C90.844,11.9220079 90.859,11.7580079 90.859,11.5550079 L90.859,3.2150079 C90.859,3.0860079 90.832,2.9610079 90.777,2.8480079 C90.723,2.7340079 90.641,2.6330079 90.531,2.5510079 C90.418,2.4650079 90.23,2.4100079 89.957,2.3790079 C89.691,2.3480079 89.555,2.2730079 89.555,2.1520079 C89.555,2.0080079 89.676,1.9340079 89.922,1.9340079 L93.492,1.9340079 C93.629,1.9340079 93.719,1.9410079 93.77,1.9530079 L93.898,2.1170079 C93.898,2.2230079 93.855,2.2890079 93.77,2.3160079 C93.734,2.3280079 93.629,2.3320079 93.457,2.3320079 C93.32,2.3440079 93.207,2.3670079 93.117,2.3980079 C93.023,2.4260079 92.961,2.4610079 92.922,2.4960079 C92.688,2.6760079 92.574,2.9300079 92.574,3.2540079 L92.574,6.9340079 L97.285,6.9340079 L97.285,3.2150079 C97.285,2.9770079 97.207,2.7540079 97.047,2.5510079 C96.938,2.4410079 96.73,2.3750079 96.43,2.3440079 C96.129,2.3120079 95.98,2.2500079 95.98,2.1520079 C95.965,2.0080079 96.062,1.9340079 96.273,1.9340079 L100.027,1.9340079 C100.25,1.9340079 100.359,1.9960079 100.359,2.1170079 C100.359,2.2230079 100.316,2.2890079 100.23,2.3160079 C100.195,2.3280079 100.09,2.3320079 99.918,2.3320079 C99.625,2.3320079 99.406,2.3950079 99.273,2.5160079 C99.039,2.7070079 98.922,2.9530079 98.922,3.2540079 L98.922,11.5390079 C98.922,11.7300079 98.949,11.8980079 99.008,12.0430079 C99.062,12.1880079 99.152,12.3010079 99.273,12.3790079 C99.395,12.4570079 99.605,12.5120079 99.898,12.5470079 C100.156,12.5470079 100.285,12.6250079 100.285,12.7810079 C100.312,12.9260079 100.25,13.0000079 100.102,13.0000079 L96.105,13.0000079 C95.922,13.0000079 95.832,12.9340079 95.832,12.8010079 C95.832,12.6560079 95.988,12.5700079 96.301,12.5390079 C96.613,12.5120079 96.836,12.4260079 96.961,12.2890079 C97.094,12.1480079 97.18,12.0230079 97.219,11.9100079 C97.262,11.7930079 97.285,11.6760079 97.285,11.5550079 L97.285,7.3520079 L92.574,7.3520079 Z" id="Fill-8" fill="#6D6F71"></path>
                <path d="M107.566,12.7300079 C107.492,12.9220079 107.398,13.0200079 107.289,13.0200079 C107.168,13.0200079 107.082,12.9220079 107.031,12.7300079 L103.645,3.8120079 L103.645,10.4180079 C103.645,10.8520079 103.73,11.2540079 103.902,11.6290079 C104.039,11.9180079 104.223,12.1450079 104.457,12.3120079 C104.602,12.4220079 104.801,12.4960079 105.051,12.5390079 C105.305,12.5820079 105.43,12.6680079 105.43,12.8010079 C105.43,12.9340079 105.309,13.0000079 105.062,13.0000079 L101.582,13.0000079 C101.387,13.0000079 101.289,12.9340079 101.289,12.8010079 C101.289,12.6680079 101.426,12.5740079 101.703,12.5120079 C101.977,12.4530079 102.215,12.3480079 102.414,12.2070079 C102.695,11.9770079 102.879,11.7340079 102.961,11.4730079 C103.051,11.2190079 103.094,10.8710079 103.094,10.4380079 L103.094,3.2150079 C103.094,3.0510079 103.059,2.9180079 102.992,2.8200079 C102.922,2.7230079 102.82,2.6330079 102.68,2.5430079 C102.539,2.4530079 102.316,2.3910079 102.016,2.3590079 C101.715,2.3320079 101.562,2.2500079 101.562,2.1170079 L101.621,1.9530079 C101.645,1.9410079 101.742,1.9340079 101.914,1.9340079 L104.547,1.9340079 L107.879,10.5430079 L111.172,1.9340079 L113.676,1.9340079 C113.898,1.9340079 114.008,2.0000079 114.008,2.1330079 C114.008,2.2420079 113.855,2.3200079 113.547,2.3590079 C113.242,2.4020079 113.035,2.4690079 112.93,2.5590079 C112.828,2.6480079 112.766,2.7420079 112.746,2.8400079 C112.73,2.9340079 112.719,3.0860079 112.719,3.2890079 L112.719,11.5390079 C112.719,11.8630079 112.855,12.1210079 113.125,12.3120079 C113.273,12.4220079 113.48,12.4920079 113.75,12.5200079 C114.02,12.5510079 114.16,12.6330079 114.176,12.7660079 C114.199,12.9220079 114.113,13.0000079 113.918,13.0000079 L109.922,13.0000079 L109.773,12.9800079 L109.664,12.8010079 C109.664,12.6680079 109.82,12.5860079 110.133,12.5470079 C110.445,12.5120079 110.652,12.4450079 110.75,12.3480079 C110.949,12.1560079 111.047,11.8910079 111.047,11.5550079 L111.047,3.4340079 L107.566,12.7300079 Z" id="Fill-9" fill="#6D6F71"></path>
                <path d="M13.121,10.6950079 L4.777,10.6950079 L4.777,2.4100079 L2.387,2.4100079 L2.555,4.7930079 C2.719,4.7810079 2.875,4.7770079 3.023,4.7770079 C4.98,4.7770079 6.773,5.6250079 8.195,7.1290079 C9.609,8.6330079 10.586,10.7850079 10.738,13.2300079 L15.508,12.9340079 C15.285,9.4020079 13.887,6.2110079 11.68,3.8590079 C9.48,1.5120079 6.41,-0.00399210369 3.023,0 C2.742,0 2.477,0.0120078963 2.223,0.0270078963 L0,0.184007896 L0,15.4730079 L13.121,15.4730079 L13.121,10.6950079 Z" id="Fill-10" fill="#FFFFFF"></path>
                <path d="M2.789,2.6560079 L2.789,12.9800079 L13.105,12.9800079 C12.84,7.3980079 8.371,2.9260079 2.789,2.6560079" id="Fill-11" fill="#A6A8AB"></path>
                <path d="M2.789,2.1050079 L2.789,2.1170079 C8.793,2.1170079 13.656,6.9800079 13.656,12.9800079 L13.668,12.9840079 L13.668,2.1050079 L2.789,2.1050079 Z" id="Fill-12" fill="#6D6F71"></path>
            </g>
        </g>
    </g>
</svg>