<?xml version="1.0" encoding="UTF-8"?>
<svg width="114px" height="26px" viewBox="0 0 114 26" version="1.1" xmlns="http://www.w3.org/2000/svg" xmlns:xlink="http://www.w3.org/1999/xlink">
    <title>allegran</title>
    <g id="Page-1" stroke="none" stroke-width="1" fill="none" fill-rule="evenodd">
        <g id="Artboard" transform="translate(-688, -317)">
            <g id="allegran" transform="translate(688, 317)">
                <path d="M86.0000282,9.47309196 C86.1020282,9.15209196 86.2190282,8.88709196 86.2620282,8.60909196 C86.3240282,8.24209196 86.5120282,8.17209196 86.8520282,8.18409196 C87.6330282,8.21109196 88.4140282,8.19109196 89.2420282,8.19109196 C89.0980282,9.31209196 88.9610282,10.395092 88.8200282,11.473092 C88.5430282,13.562092 88.2700282,15.648092 87.9800282,17.738092 C87.7700282,19.270092 87.2730282,20.668092 86.0230282,21.691092 C85.1600282,22.398092 84.1480282,22.750092 83.0510282,22.883092 C81.1640282,23.109092 79.3950282,22.750092 77.7700282,21.746092 C77.6520282,21.672092 77.5430282,21.582092 77.4020282,21.477092 C77.8240282,20.777092 78.2340282,20.105092 78.6480282,19.422092 C79.7500282,20.137092 80.8790282,20.590092 82.1760282,20.539092 C83.5310282,20.480092 84.3590282,19.863092 84.7190282,18.555092 C84.8480282,18.094092 84.9180282,17.617092 84.9450282,17.117092 C84.8090282,17.254092 84.6760282,17.395092 84.5350282,17.527092 C82.9490282,19.074092 80.1560282,18.934092 78.8200282,17.238092 C78.3480282,16.637092 78.0900282,15.945092 78.0040282,15.199092 C77.7580282,13.082092 78.1910282,11.137092 79.6560282,9.52309196 C80.8200282,8.24209196 82.2890282,7.70709196 84.0160282,8.03109196 C84.8870282,8.19509196 85.3980282,8.58609196 86.0000282,9.47309196 M85.5620282,12.555092 C85.5510282,12.430092 85.5310282,12.246092 85.5080282,12.062092 C85.3010282,10.555092 83.9380282,9.87509196 82.6250282,10.656092 C82.3050282,10.852092 82.0080282,11.129092 81.7930282,11.434092 C81.1450282,12.375092 80.9140282,13.430092 81.1170282,14.559092 C81.3710282,15.949092 82.5900282,16.582092 83.8440282,15.918092 C84.2730282,15.688092 84.6560282,15.289092 84.9410282,14.887092 C85.4140282,14.223092 85.5310282,13.422092 85.5620282,12.555092" id="Fill-1" fill="#707274"></path>
                <path d="M44.1130282,4.46109196 C45.0550282,9.31609196 45.9840282,14.129092 46.9180282,18.973092 L43.6640282,18.973092 C43.4960282,18.004092 43.3240282,17.027092 43.1520282,16.012092 C43.0120282,16.004092 42.8750282,15.988092 42.7380282,15.988092 C41.3400282,15.988092 39.9410282,16.004092 38.5430282,15.980092 C38.2190282,15.977092 38.0740282,16.098092 37.9570282,16.383092 C37.6020282,17.250092 37.2150282,18.105092 36.8360282,18.977092 L33.8160282,18.977092 C33.8670282,18.828092 33.9060282,18.703092 33.9610282,18.586092 C36.0550282,13.988092 38.1480282,9.39809196 40.2340282,4.79709196 C40.3520282,4.53509196 40.4880282,4.44509196 40.7730282,4.45309196 C41.8710282,4.47309196 42.9690282,4.46109196 44.1130282,4.46109196 M39.1330282,13.488092 L42.7850282,13.488092 C42.4410282,11.484092 42.1020282,9.52009196 41.7660282,7.55109196 L41.6840282,7.55109196 C40.8360282,9.51609196 39.9960282,11.480092 39.1330282,13.488092" id="Fill-2" fill="#707274"></path>
                <path d="M98.3950282,9.53909196 C98.5040282,9.14109196 98.5820282,8.80109196 98.7030282,8.47309196 C98.7460282,8.35909196 98.8950282,8.20709196 98.9960282,8.20709196 C99.8480282,8.18409196 100.703028,8.19109196 101.621028,8.19109196 C101.152028,11.809092 100.688028,15.383092 100.215028,18.969092 L97.3710282,18.969092 L97.3710282,17.617092 C97.2500282,17.734092 97.1880282,17.785092 97.1330282,17.844092 C96.0430282,19.059092 94.6990282,19.504092 93.1170282,19.102092 C91.5820282,18.711092 90.8050282,17.586092 90.5230282,16.121092 C90.0820282,13.805092 90.4490282,11.625092 91.9450282,9.74209196 C93.0470282,8.35909196 94.5200282,7.74209196 96.2930282,7.99609196 C97.1210282,8.11309196 97.7730282,8.56609196 98.2190282,9.28509196 C98.2620282,9.35209196 98.3120282,9.42209196 98.3950282,9.53909196 M97.9140282,12.875092 C97.9140282,12.676092 97.9300282,12.473092 97.9100282,12.277092 C97.8160282,11.305092 97.3280282,10.605092 96.5900282,10.414092 C95.8240282,10.215092 95.1880282,10.480092 94.6450282,11.008092 C93.5820282,12.047092 93.1370282,14.355092 93.7270282,15.727092 C94.0430282,16.461092 94.6090282,16.820092 95.4140282,16.770092 C96.2460282,16.719092 96.8050282,16.227092 97.2190282,15.562092 C97.7300282,14.742092 97.9300282,13.832092 97.9140282,12.875092" id="Fill-3" fill="#707274"></path>
                <path d="M103.988028,8.20709196 L106.809028,8.20709196 L106.809028,9.59809196 C106.957028,9.45709196 107.055028,9.37109196 107.145028,9.27309196 C108.301028,8.04309196 109.730028,7.71109196 111.328028,8.06609196 C112.586028,8.35209196 113.352028,9.40209196 113.309028,10.809092 C113.270028,11.918092 113.117028,13.020092 112.984028,14.125092 C112.789028,15.730092 112.570028,17.340092 112.359028,18.965092 L109.289028,18.965092 C109.422028,17.926092 109.551028,16.910092 109.684028,15.898092 C109.836028,14.742092 110.012028,13.586092 110.141028,12.426092 C110.215028,11.805092 110.188028,11.156092 109.555028,10.805092 C108.887028,10.434092 108.219028,10.574092 107.633028,11.023092 C106.879028,11.598092 106.496028,12.359092 106.391028,13.312092 C106.188028,15.152092 105.926028,16.984092 105.688028,18.820092 L105.637028,18.961092 L102.586028,18.961092 C103.055028,15.375092 103.520028,11.805092 103.988028,8.20709196" id="Fill-4" fill="#707274"></path>
                <path d="M67.4060282,15.750092 C67.7580282,16.340092 68.1050282,16.926092 68.4770282,17.555092 C68.2420282,17.746092 68.0310282,17.957092 67.7850282,18.113092 C66.1560282,19.145092 64.3870282,19.480092 62.5040282,19.082092 C60.8980282,18.742092 59.8440282,17.734092 59.4450282,16.145092 C58.8750282,13.836092 59.2730282,11.699092 60.8320282,9.85209196 C62.2970282,8.12109196 64.7500282,7.47309196 66.9020282,8.21509196 C68.0550282,8.60909196 68.8240282,9.35909196 69.0000282,10.609092 C69.1760282,11.828092 68.7300282,12.793092 67.7730282,13.523092 C66.7500282,14.309092 65.5590282,14.684092 64.3090282,14.879092 C63.6480282,14.980092 62.9800282,15.027092 62.3120282,15.105092 C62.1990282,15.965092 62.8790282,16.734092 63.8790282,16.852092 C65.0430282,16.988092 66.0700282,16.613092 67.0310282,16.004092 C67.1520282,15.926092 67.2660282,15.844092 67.4060282,15.750092 M62.3790282,13.016092 C62.7300282,12.980092 63.0940282,12.988092 63.4340282,12.902092 C64.1290282,12.727092 64.8480282,12.570092 65.4920282,12.270092 C66.1250282,11.973092 66.3160282,11.273092 66.0820282,10.703092 C65.8670282,10.191092 65.2730282,9.93409196 64.6020282,10.059092 C63.3590282,10.289092 62.3630282,11.590092 62.3790282,13.016092" id="Fill-5" fill="#707274"></path>
                <path d="M51.2850282,18.973092 L48.2110282,18.973092 C48.8590282,13.992092 49.5040282,9.03109196 50.1520282,4.05509196 L53.2270282,4.05509196 C52.5780282,9.02709196 51.9380282,13.977092 51.2850282,18.973092" id="Fill-6" fill="#707274"></path>
                <path d="M56.7150282,18.969092 L53.6370282,18.969092 C54.2850282,13.980092 54.9340282,9.02009196 55.5780282,4.05109196 L58.6520282,4.05109196 C58.0080282,9.03109196 57.3630282,13.980092 56.7150282,18.969092" id="Fill-7" fill="#707274"></path>
                <path d="M72.9060282,18.988092 L69.8710282,18.988092 C70.3400282,15.379092 70.8050282,11.801092 71.2730282,8.21109196 L74.1090282,8.21109196 L74.1090282,9.68409196 C74.4880282,9.28509196 74.8160282,8.85509196 75.2270282,8.52009196 C75.9570282,7.91409196 76.8160282,7.79709196 77.7230282,8.07009196 C77.9960282,8.14809196 78.1020282,8.29309196 78.0120282,8.60509196 C77.7850282,9.42609196 77.5980282,10.258092 77.3910282,11.109092 C77.1640282,11.055092 76.9610282,10.988092 76.7540282,10.957092 C75.9530282,10.840092 75.2620282,11.055092 74.6990282,11.652092 C73.9220282,12.469092 73.6090282,13.453092 73.5040282,14.551092 C73.3630282,15.980092 73.1520282,17.406092 72.9690282,18.832092 L72.9060282,18.988092 Z" id="Fill-8" fill="#707274"></path>
                <path d="M10.2770282,5.77309196 C10.2770282,4.35209196 11.4340282,3.18809196 12.8550282,3.18009196 C14.2890282,3.16809196 15.4840282,4.36709196 15.4650282,5.79309196 C15.4490282,7.21509196 14.2770282,8.37509196 12.8590282,8.36713309 C11.4380282,8.35909196 10.2770282,7.19509196 10.2770282,5.77309196" id="Fill-9" fill="#B5B7B9"></path>
                <path d="M10.2769961,19.438092 C10.2850282,18.020092 11.4610282,16.855092 12.8790282,16.863051 C14.2970282,16.871092 15.4650282,18.043092 15.4650282,19.461092 C15.4650282,20.891092 14.2660282,22.078092 12.8360282,22.055092 C11.4100282,22.031092 10.2700282,20.867092 10.2769961,19.438092" id="Fill-10" fill="#B5B7B9"></path>
                <path d="M12.4220387,12.633092 C12.4140282,14.055092 11.2500282,15.215092 9.8280282,15.2111023 C8.4060282,15.207092 7.2420282,14.043092 7.2379883,12.621092 C7.2300282,11.188092 8.4260282,10.004092 9.8590282,10.023092 C11.2850282,10.039092 12.4260282,11.203092 12.4220387,12.633092" id="Fill-11" fill="#B5B7B9"></path>
                <path d="M31.7460282,12.598092 C31.7620282,14.020092 30.5620282,15.223092 29.1290282,15.211092 C27.7070282,15.203092 26.5470282,14.035092 26.5510179,12.613092 C26.5510179,11.195092 27.7190282,10.027092 29.1370282,10.0230605 C30.5510282,10.016092 31.7300282,11.180092 31.7460282,12.598092" id="Fill-12" fill="#707274"></path>
                <path d="M23.5270282,5.79309196 C23.5160282,4.35909196 24.6480282,3.19909196 26.0780282,3.18009196 C27.5000282,3.15609196 28.6840282,4.31209196 28.6990282,5.73009196 C28.7110282,7.18809196 27.5620282,8.35909196 26.1210282,8.36713337 C24.6950282,8.37509196 23.5350282,7.22309196 23.5270282,5.79309196" id="Fill-13" fill="#707274"></path>
                <path d="M28.6990282,19.465092 C28.6950282,20.895092 27.5430282,22.051092 26.1170282,22.0551021 C24.6760282,22.059092 23.5160282,20.883092 23.5270282,19.434092 C23.5390282,18.004092 24.7030282,16.852092 26.1250282,16.863092 C27.5550282,16.879092 28.6990282,18.035092 28.6990282,19.465092" id="Fill-14" fill="#707274"></path>
                <path d="M19.4410282,9.19568826e-05 C20.8590282,0.0120919569 22.0160282,1.18409196 22.0040282,2.60509196 C21.9960282,4.02009196 20.8200282,5.18809196 19.4020282,5.18013281 C17.9800282,5.17609196 16.8050282,4.00009196 16.809018,2.59009196 C16.8120282,1.15209196 17.9960282,-0.0119080431 19.4410282,9.19568826e-05" id="Fill-15" fill="#9FA1A4"></path>
                <path d="M19.4220282,25.2341021 C17.9840282,25.238092 16.7970282,24.055092 16.8090282,22.625092 C16.8200282,21.211092 18.0120282,20.043092 19.4180282,20.055092 C20.8480282,20.066092 22.0040282,21.223092 22.0080282,22.645092 C22.0080282,24.066092 20.8480282,25.227092 19.4220282,25.2341021" id="Fill-16" fill="#9FA1A4"></path>
                <path d="M23.8710282,14.035092 C23.0780282,14.027092 22.4530282,13.410092 22.4450097,12.625092 C22.4410282,11.828092 23.0860282,11.195092 23.8950282,11.1990731 C24.6760282,11.1990731 25.3120282,11.828092 25.3200282,12.605092 C25.3280282,13.398092 24.6760282,14.043092 23.8710282,14.035092" id="Fill-17" fill="#9FA1A4"></path>
                <path d="M22.6910282,7.73409196 C22.6800282,8.52309196 22.0120282,9.16809196 21.2190282,9.14509196 C20.4490282,9.12909196 19.8090282,8.46909196 19.8240282,7.70309196 C19.8400282,6.92209196 20.4730282,6.29309196 21.2500282,6.29707298 C22.0510282,6.29707298 22.6990282,6.94509196 22.6910282,7.73409196" id="Fill-18" fill="#9FA1A4"></path>
                <path d="M21.2500282,18.9261115 C20.4410282,18.9261115 19.8050282,18.281092 19.8240282,17.484092 C19.8400282,16.711092 20.4920282,16.078092 21.2620282,16.0820731 C22.0550282,16.090092 22.7030282,16.750092 22.6880282,17.539092 C22.6760282,18.320092 22.0430282,18.930092 21.2500282,18.9261115" id="Fill-19" fill="#9FA1A4"></path>
                <path d="M4.5820282,11.199092 C5.3910282,11.207092 6.0120282,11.844092 5.9960282,12.652092 C5.9800282,13.434092 5.3520282,14.039092 4.5550282,14.0351117 C3.7460282,14.031092 3.1370282,13.402092 3.1520282,12.582092 C3.1640282,11.793092 3.7890282,11.191092 4.5820282,11.199092" id="Fill-20" fill="#CDCFD0"></path>
                <path d="M9.4340282,17.516092 C9.4300282,18.316092 8.8320282,18.922092 8.0310282,18.926092 C7.2150282,18.934092 6.5900282,18.320092 6.5900282,17.508092 C6.5940282,16.707092 7.2380282,16.078092 8.0390282,16.086092 C8.8200282,16.098092 9.4340282,16.730092 9.4340282,17.516092" id="Fill-21" fill="#CDCFD0"></path>
                <path d="M9.43404763,7.73009196 C9.4300282,8.51609196 8.8050282,9.14109196 8.0270282,9.14510253 C7.2230282,9.14809196 6.5900282,8.51209196 6.5900282,7.71109196 C6.5980282,6.91809196 7.2070282,6.31209196 8.0040282,6.30507237 C8.8240282,6.30109196 9.4380282,6.91009196 9.43404763,7.73009196" id="Fill-22" fill="#CDCFD0"></path>
                <path d="M4.5550282,10.164092 C4.0470282,10.156092 3.6090282,9.71109196 3.6090282,9.20309196 C3.6090282,8.69109196 4.0470282,8.25009196 4.5590282,8.24209196 C5.0860282,8.23409196 5.5390282,8.69109196 5.5270282,9.22709196 C5.5200282,9.73409196 5.0660282,10.168092 4.5550282,10.164092" id="Fill-23" fill="#D1D3D4"></path>
                <path d="M5.5270282,16.035092 C5.5270282,16.547092 5.0860282,16.988092 4.5740282,16.992092 C4.0620282,16.996092 3.6170282,16.559092 3.6090282,16.047092 C3.5980282,15.520092 4.0590282,15.059092 4.5820282,15.070092 C5.0940282,15.082092 5.5310282,15.523092 5.5270282,16.035092" id="Fill-24" fill="#D1D3D4"></path>
                <path d="M2.82030483e-05,12.613092 C0.00402820305,12.090092 0.434028203,11.660092 0.945028203,11.656092 C1.4840282,11.652092 1.9100282,12.094092 1.8980282,12.641092 C1.8910282,13.168092 1.4570282,13.590092 0.938028203,13.578092 C0.418028203,13.566092 -0.00397179695,13.133092 2.82030483e-05,12.613092" id="Fill-25" fill="#D1D3D4"></path>
                <path d="M18.2030282,9.75409196 C17.6720282,9.75009196 17.2380282,9.33609196 17.2300131,8.82009196 C17.2270282,8.28909196 17.6720282,7.85909196 18.2270282,7.86309196 C18.7500282,7.86709196 19.1800282,8.30909196 19.1680282,8.82009196 C19.1600282,9.34409196 18.7270282,9.76209196 18.2030282,9.75409196" id="Fill-26" fill="#C0C1C4"></path>
                <path d="M21.5980282,12.629092 C21.5900282,13.160092 21.1600282,13.598092 20.6560282,13.586092 C20.1410282,13.570092 19.7030282,13.133092 19.6990282,12.625092 C19.6950282,12.102092 20.1560282,11.641092 20.6840282,11.648092 C21.1880282,11.652092 21.6020282,12.094092 21.5980282,12.629092" id="Fill-27" fill="#C0C1C4"></path>
                <path d="M18.2030282,17.367092 C17.6720282,17.363092 17.2420282,16.949092 17.2300282,16.434092 C17.2230282,15.902092 17.6720282,15.473092 18.2270282,15.477092 C18.7500282,15.480092 19.1800282,15.918092 19.1720282,16.434092 C19.1640282,16.953092 18.7300282,17.371092 18.2030282,17.367092" id="Fill-28" fill="#C0C1C4"></path>
            </g>
        </g>
    </g>
</svg>