<?xml version="1.0" encoding="UTF-8"?>
<svg width="117px" height="29px" viewBox="0 0 117 29" version="1.1" xmlns="http://www.w3.org/2000/svg" xmlns:xlink="http://www.w3.org/1999/xlink">
    <title>astra</title>
    <g id="Page-1" stroke="none" stroke-width="1" fill="none" fill-rule="evenodd">
        <g id="Artboard" transform="translate(-483, -652)">
            <g id="astra" transform="translate(483, 652)">
                <path d="M3.699,22.6198374 L5.617,17.4248374 L7.441,22.6198374 L3.699,22.6198374 Z M9.301,27.8578374 L11.055,27.8578374 L6.5,15.3508374 L4.766,15.3508374 L0,27.8578374 L1.77,27.8578374 L3.172,24.0218374 L7.938,24.0218374 L9.301,27.8578374 Z M17.629,25.2098374 C17.629,26.2288374 16.801,26.7718374 15.387,26.7718374 C14.246,26.7718374 13.48,26.4518374 13.055,25.7138374 L11.367,26.0108374 C12.023,27.3538374 13.391,27.9988374 15.316,27.9988374 C17.93,27.9988374 19.297,26.5498374 19.297,25.0108374 C19.297,23.0258374 17.469,22.4908374 15.367,22.0648374 C14.352,21.8618374 13.16,21.4868374 13.16,20.5888374 C13.16,19.9438374 13.785,19.2058374 15.039,19.2058374 C16.316,19.2058374 17.082,20.0768374 17.199,20.4208374 L18.68,19.8038374 C18.004,18.5108374 16.645,17.9788374 15.219,17.9788374 C13.023,17.9788374 11.562,19.0648374 11.562,20.7878374 C11.562,22.7448374 13.242,23.1318374 14.871,23.4828374 C16.27,23.7838374 17.629,24.1318374 17.629,25.2098374 L17.629,25.2098374 Z M22.801,15.3508374 L21.152,16.0338374 L21.152,18.3468374 L19.645,18.3468374 L19.645,19.6748374 L21.152,19.6748374 L21.152,25.7838374 C21.133,27.0258374 21.133,27.9248374 22.98,27.9248374 C23.586,27.9248374 24.246,27.8038374 24.527,27.7648374 L24.527,26.4438374 C24.207,26.5458374 23.785,26.6668374 23.484,26.6668374 C22.801,26.6668374 22.801,26.1868374 22.801,25.0608374 L22.801,19.6748374 L24.527,19.6748374 L24.527,18.3468374 L22.801,18.3468374 L22.801,15.3508374 Z M25.969,18.3468374 L25.969,27.8578374 L27.562,27.8578374 L27.562,23.4828374 C27.562,22.6708374 27.543,21.7018374 27.969,21.0148374 C28.484,20.1708374 29.254,19.8508374 30.82,19.8388374 L30.82,18.1898374 C30.176,18.2138374 28.469,18.2528374 27.562,20.0458374 L27.562,18.3468374 L25.969,18.3468374 Z M40.266,15.3508374 L40.266,16.8938374 L47.371,16.8938374 L40.258,26.2328374 L40.258,27.8578374 L49.449,27.8578374 L49.449,26.3578374 L42.188,26.3578374 L49.27,16.9128374 L49.27,15.3508374 L40.266,15.3508374 Z M59.449,18.3468374 L59.449,27.8578374 L61.047,27.8578374 L61.047,22.4638374 C61.047,21.7608374 61.047,21.0378374 61.754,20.3348374 C62.258,19.8348374 62.863,19.6118374 63.566,19.6118374 C64.434,19.6118374 65.324,20.0148374 65.605,20.9168374 C65.707,21.2368374 65.707,21.5188374 65.707,22.4828374 L65.707,27.8578374 L67.301,27.8578374 L67.301,22.2218374 C67.301,21.4168374 67.301,20.8388374 67.137,20.2758374 C66.676,18.7058374 65.223,18.1008374 64.012,18.1008374 C63.449,18.1008374 61.934,18.2408374 61.047,19.7958374 L61.047,18.3468374 L59.449,18.3468374 Z M84.242,25.5578374 C83.906,26.2098374 83.281,26.7998374 82.047,26.7998374 C80.973,26.7998374 79.172,26.1238374 79.172,22.9868374 C79.172,22.1438374 79.324,19.1548374 81.949,19.1548374 C83.273,19.1548374 83.883,19.8738374 84.164,20.4988374 L85.66,19.8738374 C84.738,18.3428374 83.078,17.9828374 81.891,17.9828374 C78.859,17.9828374 77.398,20.4208374 77.398,23.1078374 C77.398,25.4328374 78.664,28.0218374 82.027,28.0218374 C83.973,28.0218374 85.059,27.0848374 85.652,26.1468374 L84.242,25.5578374 Z M51.742,22.1118374 L56.785,22.1118374 C56.645,19.6278374 55.211,19.2058374 54.254,19.2058374 C52.891,19.2058374 51.922,20.2058374 51.742,22.1118374 L51.742,22.1118374 Z M58.098,26.0378374 C57.555,26.9638374 56.504,28.0218374 54.434,28.0218374 C51.625,28.0218374 50.008,26.1158374 50.008,22.9168374 C50.008,19.3468374 52.367,17.9788374 54.375,17.9788374 C56.117,17.9788374 57.789,18.9438374 58.352,21.3308374 C58.531,22.1358374 58.531,22.8578374 58.531,23.2608374 L51.703,23.2608374 C51.66,24.8508374 52.328,26.8578374 54.574,26.8228374 C55.488,26.8078374 56.137,26.3898374 56.547,25.7368374 L58.098,26.0378374 Z M69.887,22.1118374 L74.93,22.1118374 C74.789,19.6278374 73.352,19.2058374 72.398,19.2058374 C71.031,19.2058374 70.066,20.2058374 69.887,22.1118374 L69.887,22.1118374 Z M76.242,26.0378374 C75.699,26.9638374 74.648,28.0218374 72.578,28.0218374 C69.77,28.0218374 68.156,26.1158374 68.156,22.9168374 C68.156,19.3468374 70.512,17.9788374 72.516,17.9788374 C74.266,17.9788374 75.934,18.9438374 76.496,21.3308374 C76.676,22.1358374 76.676,22.8578374 76.676,23.2608374 L69.844,23.2608374 C69.805,24.8508374 70.473,26.8578374 72.719,26.8228374 C73.633,26.8078374 74.281,26.3898374 74.691,25.7368374 L76.242,26.0378374 Z M94.379,27.8578374 L92.719,27.8658374 C92.719,27.8658374 92.57,27.1938374 92.527,26.4678374 C92.047,26.9638374 91.152,27.9988374 89.344,27.9988374 C87.496,27.9988374 86.125,26.9008374 86.125,25.2998374 C86.125,24.7918374 86.266,24.2918374 86.547,23.8698374 C87.094,23.0648374 88.098,22.4208374 90.93,22.1978374 L92.434,22.0808374 L92.434,21.8388374 C92.434,20.8538374 92.434,19.2058374 90.312,19.2058374 C88.98,19.2058374 88.523,19.8508374 88.371,20.4368374 L86.902,19.8228374 L86.98,19.6668374 C87.543,18.6238374 88.652,17.9788374 90.254,17.9788374 C91.137,17.9788374 92.273,18.2018374 93.02,18.7838374 C94.078,19.5888374 94.055,21.1708374 94.055,21.1708374 L94.117,26.0458374 C94.117,26.0458374 94.172,27.4598374 94.379,27.8578374 L94.379,27.8578374 Z M92.195,25.2368374 C92.434,24.7138374 92.453,24.4948374 92.453,23.1038374 C91.836,23.2018374 90.992,23.3268374 89.965,23.5458374 C88.199,23.9328374 87.898,24.5928374 87.898,25.2568374 C87.898,26.0218374 88.504,26.6668374 89.684,26.6668374 C90.789,26.6668374 91.734,26.2218374 92.195,25.2368374 L92.195,25.2368374 Z M39.133,27.8578374 L37.473,27.8658374 C37.473,27.8658374 37.328,27.1938374 37.281,26.4678374 C36.801,26.9638374 35.906,27.9988374 34.098,27.9988374 C32.254,27.9988374 30.879,26.9008374 30.879,25.2998374 C30.879,24.7918374 31.02,24.2918374 31.301,23.8698374 C31.844,23.0648374 32.855,22.4208374 35.688,22.1978374 L37.188,22.0808374 L37.188,21.8388374 C37.188,20.8538374 37.188,19.2058374 35.07,19.2058374 C33.734,19.2058374 33.281,19.8508374 33.125,20.4368374 L31.656,19.8228374 L31.734,19.6668374 C32.301,18.6238374 33.406,17.9788374 35.012,17.9788374 C35.891,17.9788374 37.027,18.2018374 37.773,18.7838374 C38.832,19.5888374 38.812,21.1708374 38.812,21.1708374 L38.871,26.0458374 C38.871,26.0458374 38.93,27.4598374 39.133,27.8578374 L39.133,27.8578374 Z M36.949,25.2368374 C37.188,24.7138374 37.211,24.4948374 37.211,23.1038374 C36.59,23.2018374 35.75,23.3268374 34.723,23.5458374 C32.953,23.9328374 32.652,24.5928374 32.652,25.2568374 C32.652,26.0218374 33.258,26.6668374 34.441,26.6668374 C35.547,26.6668374 36.488,26.2218374 36.949,25.2368374 L36.949,25.2368374 Z" id="Fill-1" fill="#231F20"></path>
                <path d="M104.77,19.8508374 C104.52,20.0108374 104.273,20.1668374 104.027,20.3308374 C101.16,18.7368374 95.004,15.6708374 94.469,15.3938374 C93.898,15.0968374 92.898,14.6978374 93.027,13.7488374 C93.203,12.4168374 95.512,9.50283741 96.492,8.30383741 C101.805,1.80783741 104.184,-0.196162589 105.762,0.0148374108 C107.445,0.232837411 108.379,1.97183741 108.492,10.1158374 C107.555,9.82683741 106.516,9.52583741 105.414,9.24883741 C105.324,8.06883741 105.102,6.28383741 105.02,5.66683741 C104.922,4.97183741 104.789,4.70583741 104.508,4.66683741 C104.188,4.62783741 103.414,5.36983741 102.715,6.08883741 C102.391,6.41683741 101.488,7.33083741 100.496,8.33483741 C99.66,8.27983741 99.105,8.45183741 98.797,8.85783741 C98.551,9.18683741 98.5,9.63183741 98.645,10.1978374 C98.105,10.7328374 97.645,11.1978374 97.352,11.4908374 C96.242,12.5968374 95.074,13.5068374 95.012,13.9558374 C94.961,14.3228374 95.523,14.7018374 96.32,15.1788374 C98.273,16.3428374 103.07,18.9368374 104.77,19.8508374 M112.223,11.7218374 C110.352,11.0728374 105.719,9.34283741 100.832,8.70183741 C99.148,8.48283741 98.473,9.07683741 99.164,10.6788374 C99.848,12.2608374 101.617,14.9128374 103.473,16.8968374 C105.324,18.8858374 107.336,19.4208374 107.973,16.3578374 C108,16.2488374 108.02,16.1398374 108.039,16.0338374 C108.195,15.2448374 108.309,14.4828374 108.371,13.8148374 C107.547,13.4398374 106.625,13.0418374 105.703,12.6548374 C105.754,13.3578374 105.836,14.5688374 105.879,15.5028374 C105.887,15.6238374 105.891,15.7368374 105.895,15.8468374 C105.949,17.3618374 105.434,17.3538374 104.574,16.7368374 C103.574,16.0218374 100.508,11.9718374 100.156,10.1828374 C100.137,10.0648374 100.195,10.0608374 100.254,10.0808374 L100.332,10.1118374 L100.34,10.1118374 C101.031,10.3818374 103.336,11.2918374 105.676,12.2798374 C106.613,12.6748374 107.551,13.0808374 108.395,13.4598374 C109.223,13.8348374 109.965,14.1868374 110.516,14.4828374 C111.527,15.0218374 111.922,15.3938374 111.496,15.8268374 C109.391,17.9638374 102.035,21.0068374 99.496,24.7648374 L99.469,24.8038374 L99.387,24.9368374 L99.363,24.9788374 C99.238,25.2098374 99.059,25.6118374 98.996,26.0968374 C98.887,26.9168374 99.316,27.6668374 100.496,27.9868374 C100.793,28.0768374 101.129,28.1398374 101.5,28.1748374 L101.707,28.1898374 C103.973,28.2998374 109.859,27.0108374 111.652,26.2138374 C113.5,25.3898374 112.949,24.5728374 112.414,24.1508374 C112.012,23.8308374 109.949,22.6788374 108.953,22.1278374 C108.684,22.2998374 108.473,22.4328374 108.211,22.6038374 C109.91,23.6398374 110.582,24.1588374 110.98,24.4638374 C111.133,24.5808374 111.051,24.7218374 110.824,24.7408374 L110.641,24.7528374 C109.027,24.8658374 105.965,25.0808374 104.531,25.1548374 C104.316,25.1708374 104.082,25.1788374 103.949,25.1868374 C104.305,24.8508374 104.707,24.5498374 104.902,24.4128374 C107.973,22.2488374 113.098,19.2138374 114.605,17.9088374 C115.715,16.9478374 118.75,14.0028374 112.223,11.7218374" id="Fill-2" fill="#B8BABC"></path>
            </g>
        </g>
    </g>
</svg>