<?xml version="1.0" encoding="UTF-8"?>
<svg width="114px" height="38px" viewBox="0 0 114 38" version="1.1" xmlns="http://www.w3.org/2000/svg" xmlns:xlink="http://www.w3.org/1999/xlink">
    <title>biogen</title>
    <defs>
        <linearGradient x1="26.8401111%" y1="60.5964925%" x2="73.3946047%" y2="39.2894654%" id="linearGradient-1">
            <stop stop-color="#EEEEEF" offset="0%"></stop>
            <stop stop-color="#EEEEEF" offset="16.8%"></stop>
            <stop stop-color="#EEEEEF" offset="20.2%"></stop>
            <stop stop-color="#E2E3E4" offset="74.4%"></stop>
            <stop stop-color="#E2E3E4" offset="100%"></stop>
        </linearGradient>
        <linearGradient x1="80.0006691%" y1="34.0453473%" x2="27.4163698%" y2="58.1686581%" id="linearGradient-2">
            <stop stop-color="#E2E3E4" offset="0%"></stop>
            <stop stop-color="#CFD0D2" offset="50.7%"></stop>
            <stop stop-color="#CFD0D2" offset="74.4%"></stop>
            <stop stop-color="#CFD0D2" offset="100%"></stop>
        </linearGradient>
        <linearGradient x1="81.920546%" y1="28.2114523%" x2="2.31453328%" y2="82.5313183%" id="linearGradient-3">
            <stop stop-color="#CECFD1" offset="0%"></stop>
            <stop stop-color="#A3A5A8" offset="39.6%"></stop>
            <stop stop-color="#A3A5A8" offset="57.5%"></stop>
            <stop stop-color="#A3A5A8" offset="100%"></stop>
        </linearGradient>
        <radialGradient cx="50.0032941%" cy="49.9959855%" fx="50.0032941%" fy="49.9959855%" r="58.2415059%" gradientTransform="translate(0.5, 0.5), scale(1, 0.7638), translate(-0.5, -0.5)" id="radialGradient-4">
            <stop stop-color="#5D5E60" offset="0%"></stop>
            <stop stop-color="#5D5E60" offset="16.6%"></stop>
            <stop stop-color="#5D5E60" offset="19.5%"></stop>
            <stop stop-color="#AAACAF" offset="100%"></stop>
        </radialGradient>
        <radialGradient cx="30.0783732%" cy="55.2161083%" fx="30.0783732%" fy="55.2161083%" r="104.430276%" gradientTransform="translate(0.3008, 0.5522), scale(1, 0.7052), translate(-0.3008, -0.5522)" id="radialGradient-5">
            <stop stop-color="#F1F1F2" offset="0%"></stop>
            <stop stop-color="#AAACAF" offset="52.9%"></stop>
            <stop stop-color="#AAACAF" offset="100%"></stop>
        </radialGradient>
    </defs>
    <g id="Page-1" stroke="none" stroke-width="1" fill="none" fill-rule="evenodd">
        <g id="Artboard" transform="translate(-485, -227)" fill-rule="nonzero">
            <g id="biogen" transform="translate(485, 227)">
                <path d="M110.945058,30.7042225 L110.945058,31.821553 L110.570392,31.821553 L110.570392,32.0522191 L111.63839,32.0522191 L111.63839,31.821553 L111.255724,31.821553 L111.255724,30.7042225 L110.945058,30.7042225 Z M112.87572,30.7042225 L112.87572,31.7602199 L112.522388,30.7042225 L112.358388,30.7042225 L111.995722,31.7602199 L111.995722,30.7042225 L111.754389,30.7042225 L111.754389,32.0522191 L112.182388,32.0522191 L112.466388,31.2402212 L112.741054,32.0522191 L113.177053,32.0522191 L113.177053,30.7042225 L112.87572,30.7042225 Z" id="Shape" fill="#9D9FA2" transform="translate(111.8737, 31.3782) scale(-1, 1) rotate(-180) translate(-111.8737, -31.3782)"></path>
                <path d="M25.6700582,10.9896051 L25.6700582,32.0522191 L33.8807043,32.0522191 C35.2687008,32.0522191 36.4220313,31.9082195 37.338029,31.6202202 C38.25136,31.3308876 39.0446914,30.7282224 39.7140231,29.8135581 C40.3820214,28.8975603 40.7193539,27.825563 40.7193539,26.5882328 C40.7193539,25.4269024 40.3780214,24.4122382 39.6980231,23.5562404 C39.0193581,22.7002425 38.0793605,22.1522439 36.8886968,21.9122445 C38.3740264,21.6575784 39.4913569,21.0549133 40.251355,20.1095823 C41.0140198,19.158918 41.3940189,18.0415875 41.3940189,16.7415907 C41.3940189,15.1202615 40.8646868,13.7535982 39.7993562,12.6509343 C38.7340255,11.5429371 37.0940296,10.9896051 34.8847018,10.9896051 L25.6700582,10.9896051 Z M29.2673825,23.2095746 L33.8940376,23.2095746 C34.8420352,23.2095746 35.5887,23.4895739 36.1393653,24.0589058 C36.6900306,24.6229044 36.9646966,25.3429026 36.9646966,26.2189004 C36.9646966,27.182898 36.6540307,27.8975628 36.0273656,28.3535617 C35.3967005,28.8108939 34.663369,29.04156 33.8193711,29.04156 L29.2673825,29.04156 L29.2673825,23.2095746 Z M29.2673825,14.1509305 L34.1713702,14.1509305 C35.2113676,14.1509305 36.0326989,14.4242632 36.6353641,14.9695952 C37.2353626,15.5175938 37.5393618,16.2469253 37.5393618,17.178923 C37.5393618,18.0602541 37.2313626,18.7855856 36.6220308,19.3522509 C36.0060323,19.9149161 35.200701,20.1989154 34.1900369,20.1989154 L29.2673825,20.1989154 L29.2673825,14.1509305 Z" id="Shape" fill="#9D9FA2" transform="translate(33.532, 21.5209) scale(-1, 1) rotate(-180) translate(-33.532, -21.5209)"></path>
                <path d="M46.9036873,28.3972626 L43.3836961,28.3972626 L43.3836961,32.0532535 L46.9036873,32.0532535 L46.9036873,28.3972626 Z M46.9036873,10.9919728 L43.3836961,10.9919728 L43.3836961,26.5759339 L46.9036873,26.5759339 L46.9036873,10.9919728 Z" id="Shape" fill="#9D9FA2" transform="translate(45.1437, 21.5226) scale(-1, 1) rotate(-180) translate(-45.1437, -21.5226)"></path>
                <path d="M55.9630582,16.1432597 C53.6563973,16.1432597 51.897735,16.972591 50.6844047,18.6299202 C49.4697411,20.2832494 48.8630759,22.1845779 48.8630759,24.3219059 C48.8630759,26.6259002 49.5364076,28.5472287 50.8764042,30.0778915 C52.2204009,31.6138877 53.9950631,32.3792191 56.1910576,32.3792191 C58.277719,32.3792191 59.9950481,31.631221 61.3390447,30.1392247 C62.6790414,28.6485618 63.352373,26.7099 63.352373,24.3219059 C63.352373,21.8659121 62.6563748,19.8872504 61.2643782,18.3912541 C59.8683817,16.8939245 58.1003862,16.1432597 55.9630582,16.1432597 M56.0857245,19.0472525 C58.4497186,19.0472525 59.6323823,20.8125814 59.6323823,24.3379059 C59.6323823,25.9312352 59.352383,27.1898988 58.7830511,28.1112298 C58.2163859,29.0338942 57.348388,29.4925597 56.1777243,29.4925597 C54.9657273,29.4925597 54.0630629,29.0152275 53.4763977,28.0632299 C52.8883992,27.1152323 52.5990666,25.8485688 52.5990666,24.2765727 C52.5990666,22.5792436 52.9097325,21.2832469 53.5323976,20.3912491 C54.156396,19.493918 55.0030606,19.0472525 56.0857245,19.0472525" id="Shape" fill="#9D9FA2" transform="translate(56.1077, 24.2612) scale(-1, 1) rotate(-180) translate(-56.1077, -24.2612)"></path>
                <path d="M90.3270582,21.4385666 L93.5043836,21.007901 C93.1047368,19.6138845 92.2605775,18.3886128 91.1003896,17.5185764 C89.9070592,16.603912 88.407063,16.1439131 86.6097341,16.1439131 C84.4470729,16.1439131 82.7110772,16.8719113 81.3937472,18.3239077 C80.0777505,19.7732374 79.4164188,21.7385658 79.4164188,24.215893 C79.4164188,26.5732204 80.0804171,28.5212155 81.4110805,30.0638783 C82.7350771,31.6052078 84.5350726,32.3798726 86.8097336,32.3798726 C89.0310614,32.3798726 90.7483904,31.6172078 91.9630541,30.0958783 C93.1723844,28.5745487 93.7843829,26.6185536 93.7843829,24.2332263 L93.7657162,23.8305606 L83.0750763,23.8305606 C83.0750763,22.7692299 83.175076,21.921232 83.3750755,21.2852336 C83.5737417,20.6452352 83.975074,20.0905699 84.5724059,19.6172378 C85.1697377,19.145239 85.9137359,18.9092396 86.8097336,18.9092396 C88.5483959,18.9092396 89.7190597,19.7492375 90.3270582,21.4385666 M90.1097254,26.0985549 C90.1003921,27.2198855 89.7643929,28.1358832 89.1003946,28.8452147 C88.473389,29.5406299 87.5752209,29.929382 86.6390674,29.9105454 C85.6710698,29.9105454 84.8670718,29.5785462 84.2190734,28.9118812 C83.5697417,28.2492162 83.1897427,27.3118852 83.0750763,26.0985549 L90.1097254,26.0985549 Z" id="Shape" fill="#9D9FA2" transform="translate(86.6004, 24.2619) scale(-1, 1) rotate(-180) translate(-86.6004, -24.2619)"></path>
                <path d="M108.628058,16.1429256 L105.108067,16.1429256 L105.108067,25.8789012 C105.108067,26.9055653 104.877401,27.6815634 104.400069,28.2015621 C103.926737,28.7202275 103.357405,28.9775601 102.689406,28.9775601 C101.770742,28.9775601 100.970744,28.5775611 100.278746,27.7802298 C99.5920808,26.9735652 99.2480816,25.7642348 99.2480816,24.1509055 L99.2480816,16.1429256 L95.7294237,16.1429256 L95.7294237,31.7268866 L98.9387491,31.7268866 L98.9387491,28.1148956 C100.06008,30.7375557 101.633409,32.0522191 103.660071,32.0522191 C105.028067,32.0522191 106.197398,31.6202202 107.169395,30.7562224 C108.142726,29.8895579 108.628058,28.374895 108.628058,26.2042337 L108.628058,16.1429256 Z" id="Path" fill="#9D9FA2" transform="translate(102.1787, 24.0976) scale(-1, 1) rotate(-180) translate(-102.1787, -24.0976)"></path>
                <path d="M78.1640582,23.2045682 C77.2560604,24.0258995 76.0107302,24.4378985 74.4187342,24.4378985 L69.7734125,24.4378985 C69.0600809,24.4378985 68.5267489,24.5978981 68.1774165,24.9152306 C67.828084,25.2405631 67.6507511,25.5885622 67.6507511,25.971228 C67.6507511,26.6632262 68.0134169,27.1752249 68.7334151,27.5072241 C69.8414123,27.2378915 70.8067432,27.1032251 71.6334078,27.1032251 C73.5440697,27.1032251 75.0787325,27.559224 76.244063,28.4658884 C77.4040601,29.3752194 77.9827253,30.5192166 77.9827253,31.9045465 C77.9827253,32.8352108 77.6347262,33.6992086 76.9413946,34.50054 L79.1867223,34.6992061 L78.6853902,37.6938653 L74.4374008,36.2658689 L74.4187342,36.2778689 C73.4000701,36.4938683 72.3907393,36.601868 71.4027417,36.601868 C69.2294138,36.601868 67.6160845,36.1392025 66.5520872,35.2232048 C65.4867565,34.3045405 64.9574245,33.1912099 64.9574245,31.8898798 C64.9574245,30.3525503 65.6774227,29.14322 67.1240858,28.2632222 C65.4600899,27.4592242 64.6307587,26.3765603 64.6307587,25.009897 C64.6307587,24.1125659 65.1134241,23.2499014 66.086755,22.4245702 C64.5694255,21.7019053 63.8080941,20.6419079 63.8080941,19.2485781 C63.8080941,16.4272518 66.3360877,15.013922 71.3867418,15.013922 C74.0707351,15.013922 76.0960633,15.5032541 77.4667266,16.4752517 C78.8347232,17.4432493 79.5187214,18.6699129 79.5187214,20.1472425 C79.5187214,21.3659061 79.0667226,22.3845703 78.1640582,23.2045682 M69.3800801,33.6272088 C69.8880789,34.1218742 70.6107487,34.3698736 71.5374081,34.3698736 C72.4587391,34.3698736 73.1587373,34.1325409 73.6387361,33.6565421 C74.1227349,33.1792099 74.3587343,32.6005447 74.3587343,31.9045465 C74.3587343,30.0978843 73.4000701,29.1938866 71.4760749,29.1938866 C70.5774105,29.1938866 69.8747456,29.4325526 69.3680802,29.9072181 C68.8654147,30.3845503 68.6107487,31.0032154 68.6107487,31.7698801 C68.6107487,32.5098783 68.8680814,33.1298767 69.3800801,33.6272088 M72.1587398,17.4325826 C70.3067445,17.4325826 68.9614145,17.7059153 68.1174166,18.2485806 C67.2680854,18.7899126 66.8467531,19.4205777 66.8467531,20.1312426 C66.8467531,20.5659081 67.0987525,21.0152403 67.6067512,21.4792392 C68.5854154,21.2219065 69.43208,21.0899068 70.1427449,21.0899068 L73.8947355,21.0899068 C74.5040673,21.0899068 75.0467326,20.9592405 75.5213981,20.6952411 C75.9973969,20.4365751 76.2347297,20.0432428 76.2347297,19.5259107 C76.2347297,18.1312476 74.8760664,17.4325826 72.1587398,17.4325826" id="Shape" fill="#9D9FA2" transform="translate(71.6634, 26.3539) scale(-1, 1) rotate(-180) translate(-71.6634, -26.3539)"></path>
                <path d="M13.4877709,19.5026329 C10.3424454,17.187972 6.31845546,16.0559748 6.31845546,16.0559748 C6.31845546,16.0559748 6.03178951,15.975975 5.68112372,15.874642 C7.53593039,14.0261093 10.0491167,12.9901394 12.6677729,12.9946345 C15.8425812,12.9933586 18.8261044,14.512135 20.6930862,17.0799723 C18.8850907,16.4346406 16.377097,17.7466373 13.9491031,19.8652986 C13.8007741,19.7376356 13.6468449,19.6166276 13.4877709,19.5026329" id="Path" fill="url(#linearGradient-1)" transform="translate(13.1871, 16.43) scale(-1, 1) rotate(-180) translate(-13.1871, -16.43)"></path>
                <path d="M15.2997663,11.7384498 C15.4184327,11.1771178 15.4904325,10.4744529 15.3090997,9.85845448 C15.0744336,9.07178978 14.4024353,8.38645816 13.9491031,7.99045915 C16.377097,5.87179778 18.8850907,4.55980106 20.6930862,5.20513278 C21.0424187,5.68513158 21.3490846,6.19179698 21.6104172,6.7304623 L21.6704171,6.86912862 L21.7944168,7.13446129 L21.8984165,7.39046065 L21.9597497,7.54779359 L22.0704161,7.85445949 L22.106416,7.96779254 L22.2130824,8.30912502 L22.231749,8.38512483 C22.3490821,8.79579047 22.4370818,9.21445609 22.498415,9.64645501 L22.5090817,9.73712145 C22.5330816,9.91045435 22.5490816,10.0877872 22.5650815,10.2637868 L22.5744148,10.4184531 C22.5904148,10.6277859 22.6010814,10.838452 22.6010814,11.0504515 C22.6010814,11.254451 22.5904148,11.4517838 22.5797481,11.65045 L22.5650815,11.8291162 C22.5544149,11.9744492 22.5384149,12.1184488 22.522415,12.2597818 L22.498415,12.442448 C22.4770817,12.6024476 22.4504151,12.7651139 22.4184152,12.9224468 L22.4024153,13.0184466 C22.3644523,13.2102364 22.3195339,13.4005837 22.2677489,13.5891118 L22.231749,13.7171115 C22.1928677,13.8619031 22.1497381,14.0055203 22.102416,14.1477771 L22.0464161,14.3157767 C21.9984163,14.4491097 21.9504164,14.579776 21.8984165,14.713109 L21.8384167,14.8637753 C21.7677502,15.0344415 21.6917504,15.2024411 21.6130839,15.3691074 L21.5344174,15.5264403 L21.3624179,15.8504395 L21.3090847,15.9451059 C20.4824201,14.2757768 18.1304259,12.8197804 15.2997663,11.7384498" id="Path" fill="url(#linearGradient-2)" transform="translate(18.2751, 10.4925) scale(-1, 1) rotate(-180) translate(-18.2751, -10.4925)"></path>
                <path d="M9.93844641,8.86264451 C10.4771117,8.266646 10.886444,7.7999805 10.886444,7.7999805 C10.886444,7.7999805 13.6384372,4.65198837 15.0077671,0.99333085 C15.0077671,0.99333085 15.1784333,0.57199857 15.2997663,0 C18.1304259,1.08133063 20.4824201,2.53732699 21.3090847,4.20665615 C21.2064182,4.37598906 21.1037518,4.55198862 20.9930854,4.72132153 L20.7957526,5.01198747 C20.6844908,5.17145491 20.5684382,5.32752567 20.4477535,5.4799863 L20.3090872,5.6533192 L20.0224212,5.98398504 L19.9997546,6.01065164 C18.1197492,8.07263458 15.4581481,9.24734018 12.6677729,9.24664386 C11.7446994,9.24431729 10.8263272,9.11510811 9.93844641,8.86264451" id="Path" fill="url(#linearGradient-3)" transform="translate(15.6238, 4.6233) scale(-1, 1) rotate(-180) translate(-15.6238, -4.6233)"></path>
                <path d="M9.93177976,16.9866245 L9.57711398,16.8826248 L9.5291141,16.8586248 L9.18511496,16.7399585 L9.14911505,16.7266252 C8.78913547,16.5904228 8.437815,16.4323509 8.09711768,16.253293 L8.0757844,16.2479597 L7.82511836,16.10796 L7.69311869,16.0319602 L7.4757859,15.9026272 L7.3157863,15.8026275 L7.12245345,15.6772944 L6.93845391,15.5506281 L6.77445432,15.4306284 L6.53845491,15.2506288 L6.43445517,15.1679624 L6.10645599,14.8919631 L6.03312284,14.8292966 L5.77845681,14.5919638 L5.74779022,14.5572972 C3.8185634,12.6924626 2.73077841,10.1231722 2.73445509,7.43998171 C2.73445509,6.49331741 2.87046408,5.58265302 3.11846346,4.71732185 L3.11979679,4.70665521 C3.29888615,4.07852172 3.54100491,3.47009784 3.84246165,2.89065975 L3.86912825,2.83599322 L4.03446117,2.53599397 L4.0757944,2.46666081 L4.25046063,2.17466154 L4.26912725,2.14132829 C4.45675386,1.84421054 4.66108148,1.55797381 4.88112572,1.2839971 L4.96512551,1.17466404 L5.13579175,0.97066455 L5.25179146,0.83999821 L5.42112437,0.65599867 L5.55312404,0.51466569 L5.67445707,0.38399935 L5.68112372,0.38933267 C6.03178951,0.49066575 6.31845546,0.57066555 6.31845546,0.57066555 C6.31845546,0.57066555 10.3424454,1.70266272 13.4877709,4.0173236 C13.4877709,4.0173236 13.6797704,4.1506566 13.9491031,4.37998936 C14.4024353,4.77598837 15.0744336,5.46131999 15.3090997,6.24798469 C15.4904325,6.86398315 15.4184327,7.56664806 15.2997663,8.12797999 C15.1784333,8.69997856 15.0077671,9.12131084 15.0077671,9.12131084 C13.6384372,12.7799684 10.886444,15.9279605 10.886444,15.9279605 C10.886444,15.9279605 10.4771117,16.394626 9.93844641,16.9906245 L9.93177976,16.9866245 Z" id="Path" fill="url(#radialGradient-4)" transform="translate(9.0767, 8.6873) scale(-1, 1) rotate(-180) translate(-9.0767, -8.6873)"></path>
                <path d="M0.382470303,9.11464419 C-0.977526297,4.54932227 1.72646694,0.37199938 1.72646694,0.37199938 C1.72646694,0.37199938 5.75445687,1.50932987 8.89978234,3.81999076 C8.89978234,3.81999076 10.3464454,4.80665496 10.7211111,6.05198518 L10.7211111,6.05065185 L10.7211111,6.05598517 L10.7237778,6.05598517 C11.0904435,7.30531538 10.4184452,8.92531133 10.4184452,8.92531133 C9.05044863,12.5813022 6.29712218,15.7346276 6.29712218,15.7346276 C6.29712218,15.7346276 1.74113357,13.6826328 0.382470303,9.11464419" id="Path" fill="url(#radialGradient-5)" transform="translate(5.4166, 8.0533) scale(-1, 1) rotate(-180) translate(-5.4166, -8.0533)"></path>
            </g>
        </g>
    </g>
</svg>