<svg width="82px" height="23px" viewBox="0 0 82 23" version="1.1" xmlns="http://www.w3.org/2000/svg" xmlns:xlink="http://www.w3.org/1999/xlink">
    <title>biologi</title>
    <g id="Page-1" stroke="none" stroke-width="1" fill="none" fill-rule="evenodd">
        <g id="Artboard" transform="translate(-711, -433)">
            <g id="biologi" transform="translate(711, 433)">
                <path d="M76.504,5.195 C76.648,5.094 76.727,5.047 76.727,5.047 C74.91,5.938 73.395,6.793 72.141,7.609 C72.445,7.852 72.719,8.094 72.953,8.332 C74.352,6.758 75.926,5.598 76.504,5.195" id="Fill-1" fill="#9D9FA2"></path>
                <path d="M71.125,16.168 C70.723,15.461 70.52,14.746 70.469,14.035 C70.402,13.125 70.602,12.227 70.957,11.371 C70.883,10.539 70.602,9.746 70.188,9.023 C66.273,12.215 66.504,14.777 68.434,16.758 C68.676,17.012 68.945,17.258 69.242,17.492 C73.188,20.605 81.129,22.062 81.129,22.062 C75.262,20.352 72.316,18.277 71.125,16.168" id="Fill-2" fill="#9D9FA2"></path>
                <path d="M1.863,2.613 L3.352,2.613 C5.895,2.613 7.066,3.082 7.066,5.406 C7.066,7.363 5.941,7.992 3.352,7.992 L1.863,7.992 L1.863,2.613 Z M1.863,9.5 L3.918,9.5 C4.906,9.5 5.691,9.523 6.367,9.926 C7.246,10.426 7.699,11.301 7.699,12.473 C7.699,13.484 7.293,14.363 6.641,14.836 C5.941,15.332 4.883,15.375 3.352,15.375 L1.863,15.375 L1.863,9.5 Z M0,17.039 L3.352,17.039 C5.648,17.039 7.223,16.977 8.395,15.828 C9.203,15.016 9.723,13.801 9.723,12.473 C9.723,10.312 8.531,8.805 6.641,8.512 C8.172,8.059 9.023,6.891 9.023,5.18 C9.023,3.738 8.414,2.5 7.402,1.758 C6.395,1.012 5.109,0.949 3.352,0.949 L0,0.949 L0,17.039 Z" id="Fill-3" fill="#626366"></path>
                <path d="M12.559,6.98 L14.293,6.98 L14.293,17.039 L12.559,17.039 L12.559,6.98 Z M13.414,0.879 C14.113,0.879 14.676,1.465 14.676,2.16 C14.676,2.859 14.113,3.402 13.414,3.402 C12.715,3.402 12.152,2.859 12.152,2.141 C12.152,1.438 12.715,0.879 13.414,0.879 L13.414,0.879 Z" id="Fill-4" fill="#626366"></path>
                <path d="M18.93,12.047 C18.93,9.906 20.551,8.238 22.578,8.238 C24.582,8.238 26.203,9.906 26.203,12.047 C26.203,14.184 24.582,15.852 22.578,15.852 C20.574,15.852 18.93,14.184 18.93,12.047 M17.105,12.047 C17.105,13.512 17.648,14.816 18.707,15.875 C19.742,16.906 21.094,17.469 22.578,17.469 C24.039,17.469 25.395,16.887 26.453,15.852 C27.488,14.836 28.051,13.512 28.051,12.047 C28.051,10.578 27.488,9.23 26.453,8.219 C25.395,7.184 24.062,6.621 22.578,6.621 C21.094,6.621 19.742,7.16 18.707,8.195 C17.648,9.23 17.105,10.578 17.105,12.047" id="Fill-5" fill="#626366"></path>
                <polygon id="Fill-6" fill="#626366" points="30.816 0 32.574 0 32.574 17.039 30.816 17.039"></polygon>
                <path d="M37.188,12.047 C37.188,9.906 38.812,8.238 40.836,8.238 C42.84,8.238 44.461,9.906 44.461,12.047 C44.461,14.184 42.84,15.852 40.836,15.852 C38.836,15.852 37.188,14.184 37.188,12.047 M35.363,12.047 C35.363,13.512 35.906,14.816 36.965,15.875 C37.996,16.906 39.355,17.469 40.836,17.469 C42.301,17.469 43.648,16.887 44.711,15.852 C45.746,14.836 46.309,13.512 46.309,12.047 C46.309,10.578 45.746,9.23 44.711,8.219 C43.648,7.184 42.324,6.621 40.836,6.621 C39.355,6.621 37.996,7.16 36.965,8.195 C35.906,9.23 35.363,10.578 35.363,12.047" id="Fill-7" fill="#626366"></path>
                <path d="M56.684,12.047 C56.684,14.363 55.426,15.719 53.398,15.719 C51.258,15.719 50.043,14.344 50.043,11.914 C50.043,9.613 51.258,8.285 53.336,8.285 C55.266,8.285 56.684,9.707 56.684,12.047 L56.684,12.047 Z M58.352,6.98 L56.641,6.98 L56.641,8.848 C55.895,7.387 54.617,6.621 52.949,6.621 C50.137,6.621 48.223,8.625 48.223,11.977 C48.223,15.242 50.16,17.359 53.039,17.359 C54.594,17.359 55.895,16.57 56.684,15.129 L56.684,16.816 C56.684,17.742 56.641,18.484 56.254,19.117 C55.742,19.996 54.75,20.445 53.375,20.445 C51.438,20.445 50.383,19.566 50.383,18.078 L50.383,17.945 L48.445,17.945 C48.516,20.465 50.27,21.949 53.352,21.949 C55.133,21.949 56.48,21.434 57.406,20.445 C58.352,19.426 58.352,18.305 58.352,16.863 L58.352,6.98 Z" id="Fill-8" fill="#626366"></path>
                <path d="M61.934,6.98 L63.664,6.98 L63.664,17.039 L61.934,17.039 L61.934,6.98 Z M62.785,0.879 C63.484,0.879 64.047,1.465 64.047,2.16 C64.047,2.859 63.484,3.402 62.785,3.402 C62.09,3.402 61.527,2.859 61.527,2.141 C61.527,1.438 62.09,0.879 62.785,0.879 L62.785,0.879 Z" id="Fill-9" fill="#626366"></path>
                <path d="M61.078,21.41 C61.078,21.41 65.504,19.852 69.242,17.492 C68.945,17.258 68.676,17.012 68.434,16.758 C66.875,18.246 64.516,19.805 61.078,21.41" id="Fill-10" fill="#626366"></path>
                <path d="M72.953,8.332 C72.719,8.098 72.445,7.852 72.141,7.609 C70.523,6.324 67.91,5.039 63.992,3.797 C63.992,3.797 64.078,3.836 64.227,3.91 C65.164,4.383 68.613,6.27 70.188,9.023 C70.602,9.746 70.883,10.539 70.957,11.371 C71.035,12.215 70.898,13.105 70.469,14.035 C70.52,14.746 70.723,15.461 71.125,16.168 C74,13.91 75.695,11.145 72.953,8.332" id="Fill-11" fill="#626366"></path>
                <path d="M14.711,2.16 C14.711,2.883 14.121,3.469 13.398,3.469 C12.676,3.469 12.086,2.883 12.086,2.16 C12.086,1.438 12.676,0.852 13.398,0.852 C14.121,0.852 14.711,1.438 14.711,2.16" id="Fill-12" fill="#626366"></path>
            </g>
        </g>
    </g>
</svg>