<svg width="91px" height="28px" viewBox="0 0 91 28" version="1.1" xmlns="http://www.w3.org/2000/svg" xmlns:xlink="http://www.w3.org/1999/xlink">
    <title>boehringet</title>
    <g id="Page-1" stroke="none" stroke-width="1" fill="none" fill-rule="evenodd">
        <g id="Artboard" transform="translate(-496, -354)" fill="#474749">
            <g id="boehringet" transform="translate(496, 354)">
                <path d="M16.266,6.844 L13.004,4.328 L9.746,6.844 L9.031,5.918 L13.004,2.82 L16.977,5.918 L16.266,6.844 Z M20.152,23.879 L20.152,16.266 L21.441,16.266 L21.441,21.469 C22.074,20.703 22.754,19.742 23.273,18.84 C24.258,17.09 24.805,15.199 24.805,13.012 C24.805,6.438 19.523,1.094 13.004,1.094 C6.484,1.094 1.203,6.438 1.203,13.012 C1.203,15.199 1.723,17.09 2.711,18.812 C3.258,19.742 3.914,20.703 4.539,21.469 L4.539,16.266 L5.859,16.266 L5.859,23.879 C2.324,21.551 0,17.555 0,13.012 C0,5.828 5.828,0 13.004,0 C20.18,0 26.016,5.828 26.016,13.012 C26.016,17.555 23.684,21.551 20.152,23.879 L20.152,23.879 Z M14.949,25.906 L14.949,7.801 L16.238,7.801 L16.238,25.602 C15.828,25.688 15.391,25.824 14.949,25.906 L14.949,25.906 Z M17.551,25.223 L17.551,16.266 L18.867,16.266 L18.867,24.621 C18.43,24.84 17.988,25.027 17.551,25.223 L17.551,25.223 Z M13.004,26.016 C12.789,26.016 12.566,25.988 12.348,25.988 L12.348,7.801 L13.633,7.801 L13.633,25.988 C13.445,25.988 13.227,26.016 13.004,26.016 L13.004,26.016 Z M9.746,25.602 L9.746,7.801 L11.031,7.801 L11.031,25.879 C10.594,25.824 10.184,25.688 9.746,25.602 L9.746,25.602 Z M7.148,24.621 L7.148,16.266 L8.43,16.266 L8.43,25.195 C7.992,25.027 7.555,24.84 7.148,24.621 L7.148,24.621 Z" id="Fill-1"></path>
                <path d="M48.633,6.625 L46.551,6.625 C46.633,5.809 46.828,4.57 47.699,4.57 C48.523,4.57 48.605,5.809 48.633,6.625 L48.633,6.625 Z M50.031,7.281 C50.004,5.668 49.699,3.918 47.672,3.918 C45.707,3.918 45.18,6.023 45.18,7.559 C45.18,9.531 46.031,10.875 47.652,10.875 C48.91,10.875 49.457,10.355 50.004,9.281 L49.402,9.039 C49.125,9.477 48.746,9.914 48.168,9.914 C46.828,9.914 46.605,8.375 46.551,7.281 L50.031,7.281 Z M44.168,7.312 C44.168,4.328 42.281,3.891 41.484,3.891 C39.566,3.891 38.777,5.863 38.777,7.477 C38.777,9.613 39.926,10.875 41.406,10.875 C42.855,10.875 44.168,9.641 44.168,7.312 L44.168,7.312 Z M37.707,8.215 C37.707,7.559 37.488,6.957 37.02,6.465 C36.582,5.996 36.094,5.836 35.547,5.723 C36.23,5.422 37.188,4.789 37.188,3.477 C37.188,2.957 36.965,2.383 36.609,1.973 C35.926,1.234 34.887,1.234 34.363,1.234 C33.766,1.234 33.191,1.316 32.582,1.316 L30.914,1.316 L30.914,1.891 L31.844,2.055 L31.844,10.023 L30.914,10.188 L30.914,10.734 L32.508,10.734 C32.832,10.734 34.312,10.7620457 34.613,10.7620457 C35.379,10.7620457 36.668,10.789 37.406,9.531 C37.602,9.172 37.734,8.734 37.707,8.215 L37.707,8.215 Z M47.621,18.895 L47.621,18.078 L46.031,18.129 C45.566,18.129 45.102,17.91 44.605,17.91 C43.289,17.91 42.254,18.812 42.254,20.184 C42.254,21.332 42.938,21.773 43.375,22.047 C42.668,22.48 42.141,22.973 42.141,23.496 C42.141,23.934 42.445,24.211 42.91,24.371 C42.418,24.676 41.844,25.105 41.844,25.797 C41.844,26.809 43.102,27.195 44.254,27.195 C46.363,27.195 47.539,26.156 47.539,24.867 C47.539,23.688 46.828,23.305 45.648,23.25 L43.898,23.168 C43.789,23.168 43.43,23.109 43.43,22.922 C43.43,22.703 43.68,22.48 43.949,22.293 C44.199,22.371 44.469,22.398 44.719,22.398 C45.672,22.398 46.992,21.746 46.992,20.184 C46.992,19.664 46.797,19.305 46.496,18.867 L47.621,18.895 Z M41.207,24.73 L41.207,24.156 L40.5,23.984 L40.5,19.688 C40.5,18.648 39.953,17.961 38.828,17.961 C38.113,17.961 37.566,18.375 37.078,18.758 L37.078,17.938 L36.695,17.938 L35,18.375 L35,18.922 L35.789,19.035 L35.789,24.016 L35,24.184 L35,24.73 L37.816,24.73 L37.816,24.156 L37.102,23.984 L37.102,19.527 C37.488,19.195 37.898,18.922 38.391,18.922 C39.16,18.922 39.16,19.688 39.16,20.047 L39.16,24.043 L38.445,24.184 L38.445,24.73 L41.207,24.73 Z M34.09,24.73 L34.09,24.156 L33.293,23.984 L33.293,16.023 L34.117,15.855 L34.117,15.277 L30.969,15.277 L30.969,15.887 L31.844,16.023 L31.844,24.016 L30.969,24.184 L30.969,24.73 L34.09,24.73 Z M42.688,7.281 C42.688,8.16 42.586,10.188 41.406,10.188 C40.633,10.188 40.23,9.117 40.23,7.504 C40.23,6.734 40.281,4.547 41.512,4.547 C42.5,4.547 42.688,6.16 42.688,7.281 L42.688,7.281 Z M35.602,3.641 C35.602,5.422 34.535,5.477 33.898,5.477 L33.215,5.477 L33.215,2 C33.547,1.891 33.738,1.836 34.117,1.836 C34.613,1.836 35.602,2.055 35.602,3.641 L35.602,3.641 Z M36.145,8.133 C36.145,8.844 35.898,9.531 35.297,9.859 C34.941,10.078 34.473,10.188 34.09,10.188 C33.738,10.188 33.461,10.133 33.215,9.969 L33.215,6.133 L33.82,6.133 C34.75,6.133 36.145,6.27 36.145,8.133 L36.145,8.133 Z M45.566,20.234 C45.566,20.895 45.457,21.773 44.633,21.773 C43.789,21.773 43.703,20.84 43.703,20.125 C43.703,19.441 43.762,18.484 44.578,18.484 C45.457,18.484 45.566,19.5 45.566,20.234 L45.566,20.234 Z M46.578,25.387 C46.578,25.988 45.707,26.453 44.578,26.453 C43.762,26.453 43.156,26.094 43.156,25.52 C43.156,25.008 43.402,24.703 43.652,24.48 C45.047,24.566 45.621,24.621 46.086,24.73 C46.363,24.785 46.578,24.918 46.578,25.387 L46.578,25.387 Z" id="Fill-2"></path>
                <path d="M68.352,20.621 L66.27,20.621 C66.352,19.801 66.539,18.566 67.418,18.566 C68.242,18.566 68.324,19.801 68.352,20.621 L68.352,20.621 Z M64.926,1.559 C64.926,1.066 64.543,0.688 64.047,0.688 C63.562,0.688 63.172,1.066 63.172,1.559 C63.172,2.055 63.562,2.438 64.047,2.438 C64.543,2.438 64.926,2.055 64.926,1.559 L64.926,1.559 Z M65.582,10.734 L65.582,10.16 L64.816,10.023 L64.816,4.023 L64.492,4.023 L62.766,4.465 L62.766,4.93 L63.5,5.094 L63.5,10.023 L62.766,10.188 L62.766,10.734 L65.582,10.734 Z M62.082,4.844 C62.082,4.301 61.723,4.051 61.285,4.051 C60.711,4.051 60.406,4.492 59.973,5.227 L59.973,3.973 L59.562,3.973 L57.922,4.41 L57.922,4.844 L58.711,4.984 L58.711,10.023 L57.922,10.188 L57.922,10.734 L60.961,10.734 L60.961,10.16 L60,10.023 L60,6.438 C60,6.215 60.301,5.531 60.848,5.281 L61.555,5.668 C61.777,5.477 62.082,5.262 62.082,4.844 L62.082,4.844 Z M56.988,10.734 L56.988,10.16 L56.273,10.023 L56.273,5.723 C56.273,4.734 55.727,4.023 54.656,4.023 C53.914,4.023 53.367,4.434 52.875,4.82 L52.875,0.688 L52.496,0.688 L50.801,1.039 L50.801,1.508 L51.562,1.668 L51.562,10.023 L50.742,10.188 L50.742,10.734 L53.535,10.734 L53.535,10.16 L52.875,10.023 L52.875,5.609 C53.262,5.281 53.617,5.012 54.137,5.012 C54.934,5.012 54.934,5.809 54.934,6.355 L54.934,10.051 L54.273,10.188 L54.273,10.734 L56.988,10.734 Z M64.023,24.73 L64.023,24.156 L63.285,23.984 L63.285,19.688 C63.285,18.703 62.766,18.02 61.672,18.02 C60.93,18.02 60.379,18.406 59.887,18.812 L59.887,14.648 L59.535,14.648 L57.805,15.035 L57.805,15.504 L58.574,15.637 L58.574,24.016 L57.777,24.184 L57.777,24.73 L60.547,24.73 L60.547,24.156 L59.887,23.984 L59.887,19.609 C60.273,19.277 60.656,18.977 61.176,18.977 C61.945,18.977 61.945,19.77 61.945,20.316 L61.945,24.043 L61.285,24.184 L61.285,24.73 L64.023,24.73 Z M56.875,24.73 L56.875,24.156 L56.137,23.984 L56.137,14.648 L55.781,14.648 L54.055,15.035 L54.055,15.504 L54.82,15.586 L54.82,24.016 L54.031,24.184 L54.031,24.73 L56.875,24.73 Z M69.75,21.277 C69.719,19.664 69.418,17.91 67.391,17.91 C65.418,17.91 64.898,20.016 64.898,21.551 C64.898,23.523 65.75,24.867 67.363,24.867 C68.621,24.867 69.176,24.344 69.719,23.277 L69.113,23.027 C68.844,23.469 68.461,23.906 67.887,23.906 C66.539,23.906 66.324,22.371 66.27,21.277 L69.75,21.277 Z M53.234,21.277 C53.207,19.664 52.906,17.91 50.875,17.91 C48.91,17.91 48.391,20.016 48.391,21.551 C48.391,23.523 49.234,24.867 50.848,24.867 C52.109,24.867 52.66,24.344 53.207,23.277 L52.605,23.027 C52.328,23.469 51.949,23.906 51.375,23.906 C50.031,23.906 49.809,22.371 49.754,21.277 L53.234,21.277 Z M51.836,20.621 L49.754,20.621 C49.84,19.801 50.031,18.566 50.91,18.566 C51.727,18.566 51.809,19.801 51.836,20.621 L51.836,20.621 Z" id="Fill-3"></path>
                <path d="M77.113,6.246 C77.113,6.93 77.004,7.781 76.18,7.781 C75.336,7.781 75.25,6.875 75.25,6.133 C75.25,5.449 75.309,4.52 76.125,4.52 C77.004,4.52 77.113,5.504 77.113,6.246 L77.113,6.246 Z M90.07,4.844 C90.07,4.301 89.684,4.051 89.273,4.051 C88.699,4.051 88.375,4.492 87.93,5.227 L87.93,3.973 L87.551,3.973 L85.875,4.41 L85.875,4.844 L86.672,4.984 L86.672,10.023 L85.875,10.188 L85.875,10.734 L88.914,10.734 L88.914,10.16 L87.957,10.023 L87.957,6.438 C87.957,6.215 88.293,5.531 88.836,5.281 L89.551,5.668 C89.738,5.477 90.07,5.262 90.07,4.844 L90.07,4.844 Z M79.141,4.902 L79.141,4.078 L77.578,4.133 C77.113,4.133 76.648,3.918 76.152,3.918 C74.871,3.918 73.828,4.82 73.828,6.184 C73.828,7.336 74.484,7.801 74.949,8.078 C74.234,8.516 73.688,8.984 73.688,9.504 C73.688,9.969 73.992,10.238 74.457,10.375 C73.965,10.707 73.391,11.117 73.391,11.801 C73.391,12.812 74.652,13.199 75.828,13.199 C77.91,13.199 79.113,12.156 79.113,10.895 C79.113,9.691 78.348,9.281 77.195,9.254 L75.445,9.199 C75.336,9.199 74.977,9.117 74.977,8.902 C74.977,8.734 75.223,8.516 75.5,8.32 C75.742,8.383 76.02,8.438 76.262,8.438 C77.223,8.438 78.539,7.746 78.539,6.215 C78.539,5.668 78.348,5.316 78.047,4.875 L79.141,4.902 Z M72.762,10.734 L72.762,10.16 L72.047,10.023 L72.047,5.723 C72.047,4.652 71.5,4 70.379,4 C69.668,4 69.113,4.383 68.621,4.789 L68.621,3.973 L68.242,3.973 L66.543,4.41 L66.543,4.957 L67.34,5.039 L67.34,10.023 L66.543,10.188 L66.543,10.734 L69.336,10.734 L69.336,10.16 L68.652,10.023 L68.652,5.559 C69.035,5.227 69.418,4.93 69.938,4.93 C70.68,4.93 70.703,5.723 70.703,6.051 L70.703,10.051 L69.992,10.188 L69.992,10.734 L72.762,10.734 Z M84.395,24.73 L84.395,24.156 L83.633,23.984 L83.633,19.664 C83.633,18.566 82.977,18.02 81.902,18.02 C81.168,18.02 80.594,18.406 80.07,18.922 C79.77,18.348 79.195,18.051 78.539,18.051 C77.855,18.051 77.223,18.348 76.676,18.84 L76.676,17.934 L76.32,17.934 L74.594,18.375 L74.594,18.84 L75.391,18.977 L75.391,24.016 L74.594,24.184 L74.594,24.73 L77.391,24.73 L77.391,24.156 L76.762,23.984 L76.762,19.582 C77.059,19.277 77.418,18.949 78.02,18.949 C78.727,18.949 78.871,19.582 78.871,20.102 L78.871,24.016 L78.098,24.184 L78.098,24.73 L80.867,24.73 L80.867,24.156 L80.18,23.984 L80.18,19.609 C80.559,19.254 80.949,18.949 81.469,18.949 C82.234,18.949 82.289,19.719 82.289,20.074 L82.289,24.016 L81.551,24.184 L81.551,24.73 L84.395,24.73 Z M73.008,15.531 C73.008,15.062 72.648,14.648 72.16,14.648 C71.668,14.648 71.25,15.062 71.25,15.559 C71.25,16.02 71.633,16.43 72.129,16.43 C72.625,16.43 73.008,16.02 73.008,15.531 L73.008,15.531 Z M73.668,24.73 L73.668,24.156 L72.898,23.984 L72.898,18.02 L72.566,18.02 L70.844,18.461 L70.844,18.898 L71.582,19.059 L71.582,24.016 L70.844,24.184 L70.844,24.73 L73.668,24.73 Z M78.125,11.395 C78.125,11.996 77.25,12.457 76.125,12.457 C75.309,12.457 74.703,12.133 74.703,11.531 C74.703,11.004 74.977,10.734 75.195,10.488 C76.621,10.57 77.195,10.652 77.633,10.734 C77.91,10.789 78.125,10.93 78.125,11.395 L78.125,11.395 Z M84.754,7.281 C84.727,5.668 84.43,3.918 82.395,3.918 C80.426,3.918 79.902,6.023 79.902,7.559 C79.902,9.531 80.754,10.867 82.375,10.867 C83.633,10.867 84.18,10.348 84.727,9.281 L84.125,9.039 C83.855,9.477 83.465,9.914 82.891,9.914 C81.551,9.914 81.336,8.383 81.273,7.281 L84.754,7.281 Z M83.355,6.625 L81.273,6.625 C81.355,5.809 81.551,4.574 82.422,4.574 C83.246,4.574 83.328,5.809 83.355,6.625 L83.355,6.625 Z" id="Fill-4"></path>
            </g>
        </g>
    </g>
</svg>