<?xml version="1.0" encoding="UTF-8"?>
<svg width="155px" height="22px" viewBox="0 0 155 22" version="1.1" xmlns="http://www.w3.org/2000/svg" xmlns:xlink="http://www.w3.org/1999/xlink">
    <title>bristol</title>
    <g id="Page-1" stroke="none" stroke-width="1" fill="none" fill-rule="evenodd">
        <g id="Artboard" transform="translate(-464, -506)">
            <g id="bristol" transform="translate(464, 506)">
                <path d="M133.949,7.02 C133.949,7.715 133.633,8.039 133.078,8.039 C132.527,8.039 132.207,7.715 132.207,7.02 C132.207,6.324 132.527,5.977 133.078,5.977 C133.633,5.977 133.949,6.324 133.949,7.02 L133.949,7.02 Z M149.262,14.121 C149.262,16.262 148.512,16.957 147.289,16.957 C146.066,16.957 145.316,16.262 145.316,14.121 L145.316,12.965 C145.316,10.824 146.066,10.125 147.289,10.125 C148.512,10.125 149.262,10.824 149.262,12.965 L149.262,14.121 Z M147.457,8.871 C146.508,8.871 145.785,9.332 145.402,10.125 L145.332,10.125 L145.332,6.148 L143.906,6.148 L143.906,18.047 L145.332,18.047 L145.332,16.957 L145.402,16.957 C145.785,17.754 146.508,18.215 147.457,18.215 C149.684,18.215 150.703,16.688 150.703,14.207 L150.703,12.879 C150.703,10.398 149.684,8.871 147.457,8.871 L147.457,8.871 Z M141.062,14.121 C141.062,16.262 140.312,16.957 139.09,16.957 C137.867,16.957 137.121,16.262 137.121,14.121 L137.121,12.965 C137.121,10.824 137.867,10.125 139.09,10.125 C140.312,10.125 141.062,10.824 141.062,12.965 L141.062,14.121 Z M139.262,8.871 C138.309,8.871 137.586,9.332 137.203,10.125 L137.137,10.125 L137.137,6.148 L135.707,6.148 L135.707,18.047 L137.137,18.047 L137.137,16.957 L137.203,16.957 C137.586,17.754 138.309,18.215 139.262,18.215 C141.484,18.215 142.508,16.688 142.508,14.207 L142.508,12.879 C142.508,10.398 141.484,8.871 139.262,8.871 L139.262,8.871 Z M132.367,9.039 L133.793,9.039 L133.793,18.047 L132.367,18.047 L132.367,9.039 Z M129.105,9.039 L130.535,9.039 L130.535,18.047 L129.105,18.047 L129.105,16.891 L129.039,16.891 C128.699,17.621 127.969,18.215 126.828,18.215 C125.148,18.215 124.109,17.262 124.109,15.141 L124.109,9.039 L125.555,9.039 L125.555,14.938 C125.555,16.379 126.148,17.008 127.219,17.008 C128.258,17.008 129.105,16.312 129.105,14.562 L129.105,9.039 Z M119.168,16.957 C117.945,16.957 117.195,16.262 117.195,14.121 L117.195,12.965 C117.195,10.824 117.945,10.125 119.168,10.125 C120.391,10.125 121.141,10.824 121.141,12.965 L121.141,14.121 C121.141,16.262 120.391,16.957 119.168,16.957 L119.168,16.957 Z M121.121,10.125 L121.055,10.125 C120.668,9.332 119.934,8.871 118.996,8.871 C116.77,8.871 115.75,10.398 115.75,12.879 L115.75,14.207 C115.75,16.688 116.77,18.215 118.996,18.215 C119.934,18.215 120.668,17.754 121.055,16.957 L121.121,16.957 L121.121,20.934 L122.551,20.934 L122.551,9.039 L121.121,9.039 L121.121,10.125 Z M114.672,14.902 C114.672,17.027 113.211,18.215 110.969,18.215 C108.859,18.215 107.125,17.195 106.906,14.918 L108.484,14.918 C108.672,16.262 109.625,16.891 110.949,16.891 C112.465,16.891 113.145,15.988 113.145,14.988 C113.145,11.605 107.094,13.559 107.094,9.125 C107.094,7.219 108.605,5.98 110.715,5.98 C112.75,5.98 114.449,6.984 114.555,9.328 L112.973,9.328 C112.836,7.883 111.918,7.305 110.695,7.305 C109.25,7.305 108.621,8.156 108.621,9.055 C108.621,12.047 114.672,10.281 114.672,14.902 L114.672,14.902 Z M103.328,15.566 C103.328,17.297 102.035,18.215 100.148,18.215 C98.246,18.215 96.988,17.398 96.887,15.566 L98.312,15.566 C98.363,16.668 99.18,17.027 100.148,17.027 C101.117,17.027 101.898,16.602 101.898,15.664 C101.898,13.473 96.988,14.988 96.988,11.434 C96.988,9.957 98.078,8.871 100.062,8.871 C101.883,8.871 103.09,9.77 103.227,11.52 L101.797,11.52 C101.715,10.465 100.98,10.059 100.062,10.059 C99.027,10.059 98.383,10.535 98.383,11.434 C98.383,13.559 103.328,12.25 103.328,15.566 L103.328,15.566 Z M95.68,9.039 L96.121,9.039 L96.121,10.434 L95.766,10.434 C94.34,10.434 93.402,11.145 93.402,13.035 L93.402,18.047 L91.977,18.047 L91.977,9.039 L93.402,9.039 L93.402,10.652 L93.473,10.652 C93.727,9.84 94.387,9.039 95.68,9.039 L95.68,9.039 Z M87.141,10.125 C88.297,10.125 88.926,10.809 88.941,12.879 L85.172,12.879 C85.191,10.809 85.934,10.125 87.141,10.125 L87.141,10.125 Z M87.141,8.871 C84.914,8.871 83.727,10.465 83.727,12.879 L83.727,14.207 C83.727,16.688 84.914,18.215 87.141,18.215 C88.926,18.215 89.98,17.23 90.336,15.547 L88.875,15.547 C88.621,16.586 88.043,16.957 87.141,16.957 C85.918,16.957 85.168,16.262 85.168,14.121 L85.168,14 L90.387,14 L90.387,12.879 C90.387,10.465 89.367,8.871 87.141,8.871 L87.141,8.871 Z M81.863,9.039 L83.305,9.039 L79.312,20.934 L77.836,20.934 L78.836,18.113 L75.914,9.039 L77.426,9.039 L79.586,16.059 L79.652,16.059 L81.863,9.039 Z M72.496,6.148 L74.918,6.148 L74.918,18.047 L73.406,18.047 L73.406,7.797 L73.324,7.797 L70.281,16.078 L68.43,16.078 L65.418,7.797 L65.336,7.797 L65.336,18.047 L63.84,18.047 L63.84,6.148 L66.383,6.148 L69.379,14.414 L69.465,14.414 L72.496,6.148 Z M57.301,6.148 L58.727,6.148 L58.727,18.047 L57.301,18.047 L57.301,6.148 Z M54.348,14.121 C54.348,16.262 53.602,16.957 52.375,16.957 C51.152,16.957 50.406,16.262 50.406,14.121 L50.406,12.965 C50.406,10.824 51.152,10.125 52.375,10.125 C53.602,10.125 54.348,10.824 54.348,12.965 L54.348,14.121 Z M52.375,8.871 C50.148,8.871 48.961,10.398 48.961,12.879 L48.961,14.207 C48.961,16.688 50.148,18.215 52.375,18.215 C54.602,18.215 55.789,16.688 55.789,14.207 L55.789,12.879 C55.789,10.398 54.602,8.871 52.375,8.871 L52.375,8.871 Z M46.223,9.039 L48.16,9.039 L48.16,10.297 L46.223,10.297 L46.223,15.273 C46.223,16.586 46.562,16.855 47.43,16.855 C47.664,16.855 47.938,16.824 48.16,16.805 L48.16,18.031 C47.887,18.082 47.531,18.113 47.277,18.113 C45.508,18.113 44.793,17.418 44.793,15.496 L44.793,10.297 L43.281,10.297 L43.281,9.039 L44.793,9.039 L44.793,6.148 L46.223,6.148 L46.223,9.039 Z M42.93,15.566 C42.93,17.297 41.637,18.215 39.75,18.215 C37.848,18.215 36.59,17.398 36.488,15.566 L37.914,15.566 C37.965,16.668 38.781,17.027 39.75,17.027 C40.719,17.027 41.5,16.602 41.5,15.664 C41.5,13.473 36.59,14.988 36.59,11.434 C36.59,9.957 37.676,8.871 39.664,8.871 C41.484,8.871 42.691,9.77 42.828,11.52 L41.398,11.52 C41.312,10.465 40.582,10.059 39.664,10.059 C38.629,10.059 37.984,10.535 37.984,11.434 C37.984,13.559 42.93,12.25 42.93,15.566 L42.93,15.566 Z M35.168,7.02 C35.168,7.715 34.852,8.039 34.297,8.039 C33.742,8.039 33.426,7.715 33.426,7.02 C33.426,6.324 33.742,5.977 34.297,5.977 C34.852,5.977 35.168,6.324 35.168,7.02 L35.168,7.02 Z M33.582,9.039 L35.012,9.039 L35.012,18.047 L33.582,18.047 L33.582,9.039 Z M31.871,9.039 L32.312,9.039 L32.312,10.434 L31.953,10.434 C30.527,10.434 29.594,11.145 29.594,13.035 L29.594,18.047 L28.164,18.047 L28.164,9.039 L29.594,9.039 L29.594,10.652 L29.66,10.652 C29.914,9.84 30.578,9.039 31.871,9.039 L31.871,9.039 Z M25.305,14.699 C25.305,16.168 24.145,16.719 22.453,16.719 L20.508,16.719 L20.508,12.43 L22.48,12.43 C24.145,12.43 25.305,12.984 25.305,14.512 L25.305,14.699 Z M20.508,7.492 L22.258,7.492 C23.922,7.492 24.773,8.125 24.773,9.254 L24.773,9.371 C24.773,10.738 23.594,11.176 22.043,11.176 L20.508,11.176 L20.508,7.492 Z M24.238,11.688 L24.238,11.629 C25.477,11.203 26.242,10.461 26.242,9.133 L26.242,8.93 C26.242,7.406 25,6.148 22.477,6.148 L18.98,6.148 L18.98,18.047 L22.73,18.047 C25.184,18.047 26.871,16.812 26.871,14.836 L26.871,14.715 C26.871,13.172 25.965,12.043 24.238,11.688 L24.238,11.688 Z M151.047,8.555 L151.047,6.426 L151.691,6.426 L151.691,6.148 L150.098,6.148 L150.098,6.426 L150.734,6.426 L150.734,8.555 L151.047,8.555 Z M154.223,8.555 L154.223,6.148 L153.715,6.148 L153.121,8.012 L153.102,8.012 L152.516,6.148 L151.984,6.148 L151.984,8.555 L152.285,8.555 L152.285,6.484 L152.305,6.484 L152.957,8.555 L153.242,8.555 L153.898,6.484 L153.918,6.484 L153.918,8.555 L154.223,8.555 Z" id="Fill-1" fill="#302E30"></path>
                <path d="M12.156,13.492 C12.156,14.02 12.586,14.445 13.109,14.445 C13.637,14.445 14.062,14.02 14.062,13.492 L14.062,7.102 C14.062,6.574 13.637,6.148 13.109,6.148 C12.586,6.148 12.156,6.574 12.156,7.102 L12.156,13.492 Z M9.117,12.238 C9.117,12.781 9.559,13.223 10.102,13.223 C10.641,13.223 11.082,12.781 11.082,12.238 L11.082,2.785 C11.082,2.242 10.641,1.801 10.102,1.801 C9.559,1.801 9.117,2.242 9.117,2.785 L9.117,12.238 Z M6.078,11.516 C6.078,12.059 6.52,12.496 7.059,12.496 C7.602,12.496 8.043,12.059 8.043,11.516 L8.043,0.98 C8.043,0.438 7.602,0 7.059,0 C6.52,0 6.078,0.438 6.078,0.98 L6.078,11.516 Z M3.039,11.742 C3.039,12.285 3.477,12.727 4.02,12.727 C4.562,12.727 5.004,12.285 5.004,11.742 L5.004,3.906 C5.004,3.363 4.562,2.926 4.02,2.926 C3.477,2.926 3.039,3.363 3.039,3.906 L3.039,11.742 Z M5.871,20.641 C5.711,20.973 5.371,21.184 5.008,21.184 C4.863,21.184 4.723,21.148 4.594,21.086 C1.59,19.629 0,17.062 0,13.664 L0,9.824 C0,9.297 0.43,8.867 0.957,8.867 C1.484,8.867 1.914,9.297 1.914,9.824 L1.914,13.664 C1.914,16.316 3.098,18.234 5.43,19.363 C5.902,19.594 6.102,20.168 5.871,20.641 L5.871,20.641 Z" id="Fill-2" fill="#7A7B7E"></path>
            </g>
        </g>
    </g>
</svg>