<svg width="93px" height="26px" viewBox="0 0 93 26" version="1.1" xmlns="http://www.w3.org/2000/svg" xmlns:xlink="http://www.w3.org/1999/xlink">
    <title>gilead</title>
    <g id="Page-1" stroke="none" stroke-width="1" fill="none" fill-rule="evenodd">
        <g id="Artboard" transform="translate(-495, -1352)">
            <g id="gilead" transform="translate(495, 1352)">
                <path d="M35.215,12.039 L35.207,16.52 C34.906,16.633 34.262,16.809 33.062,16.809 C30.117,16.809 28.215,15.059 28.215,12.352 C28.215,9.66 30.176,7.93 33.223,7.93 C34.367,7.93 35.262,8.098 36.121,8.48 L36.387,8.594 L36.957,6.84 L36.742,6.742 C36.121,6.453 34.836,6.105 33.277,6.105 C28.297,6.105 26.023,9.375 26.023,12.41 C26.023,14.176 26.672,15.801 27.812,16.863 C29.07,18.043 30.738,18.617 32.922,18.617 C34.812,18.617 36.371,18.152 37.129,17.875 L37.305,17.82 L37.305,12.039 L35.215,12.039 Z" id="Fill-1" fill="#393739"></path>
                <polygon id="Fill-2" fill="#393739" points="40.977 6.227 43.098 6.227 43.098 18.497 40.977 18.497"></polygon>
                <polygon id="Fill-3" fill="#393739" points="49.238 16.645 49.238 6.227 47.121 6.227 47.121 18.496 54.832 18.496 54.832 16.645"></polygon>
                <polygon id="Fill-4" fill="#393739" points="59.602 16.668 59.602 13.016 64.688 13.016 64.688 11.195 59.602 11.195 59.602 8.051 64.984 8.051 64.984 6.227 57.488 6.227 57.488 18.496 65.273 18.496 65.273 16.668"></polygon>
                <path d="M74.34,6.227 L72.246,6.227 L67.617,18.496 L69.754,18.496 L71.113,14.746 L75.426,14.746 L76.844,18.496 L79.02,18.496 L74.34,6.227 Z M73.25,8.645 C73.371,9.016 74.535,12.098 74.879,12.996 L71.66,12.996 C71.66,12.996 73.137,9.016 73.25,8.645 L73.25,8.645 Z" id="Fill-5" fill="#393739"></path>
                <path d="M91.047,7.84 C89.836,6.699 87.949,6.121 85.441,6.121 L81.492,6.129 L81.492,7.895 L85.492,7.902 C87.328,7.902 88.703,8.355 89.574,9.23 C90.281,9.941 90.637,10.922 90.625,12.133 C90.625,13.48 90.203,14.613 89.406,15.41 C88.473,16.344 87.016,16.832 85.195,16.824 C84.645,16.824 84.035,16.82 83.594,16.773 L83.594,11.215 L81.492,11.215 L81.492,18.449 L81.734,18.477 C82.652,18.57 83.656,18.613 84.922,18.613 C87.52,18.613 89.668,17.934 90.957,16.703 C92.16,15.52 92.82,13.875 92.82,12.074 C92.82,10.348 92.223,8.922 91.047,7.84" id="Fill-6" fill="#393739"></path>
                <path d="M19.109,0.074 L19.043,0 L19.031,0 C3.168,1.512 1.145,12.449 6.332,15.941 C5.438,19.891 6.27,19.8051497 6.27,19.8051497 C6.434,18.625 6.664,17.453 6.965,16.305 C8.992,8.605 14,1.895 19.051,0.141 L19.051,0.133 L19.109,0.074 Z" id="Fill-7" fill="#656769"></path>
                <path d="M18.27,2.578 L18.203,2.512 L18.133,2.562 C16.824,5.133 16.445,8.812 15.449,11.633 C14.301,14.852 12.27,17.023 9.137,16.816 L9.137,24.652 C9.137,24.652 0.758,20.859 0.758,14.77 L0.758,3.348 L7.602,2.723 L7.609,2.723 L7.676,2.656 L7.609,2.586 L7.609,2.578 L0,2.578 L0,14.77 C0,21.617 9.133,25.426 9.133,25.426 C9.133,25.426 18.277,21.559 18.277,14.77 L18.277,2.578 L18.27,2.578 Z" id="Fill-8" fill="#656769"></path>
            </g>
        </g>
    </g>
</svg>