<?xml version="1.0" encoding="UTF-8"?>
<svg width="120px" height="28px" viewBox="0 0 120 28" version="1.1" xmlns="http://www.w3.org/2000/svg" xmlns:xlink="http://www.w3.org/1999/xlink">
    <title>health-ministry</title>
    <g id="Page-1" stroke="none" stroke-width="1" fill="none" fill-rule="evenodd">
        <g id="Artboard" transform="translate(-482, -1159)">
            <g id="health-ministry" transform="translate(482, 1159)">
                <polygon id="Fill-1" fill="#707274" points="59.25 11.5432453 59.25 11.7232453 59.574 11.7232453 59.574 12.6722453 59.801 12.6722453 59.801 11.7232453 60.125 11.7232453 60.125 11.5432453"></polygon>
                <polygon id="Fill-2" fill="#707274" points="59.055 11.5432453 59.418 11.5432453 59.684 12.3982453 59.688 12.3982453 59.957 11.5432453 60.32 11.5432453 60.32 12.6722453 60.102 12.6722453 60.102 11.7422453 59.797 12.6722453 59.578 12.6722453 59.273 11.7422453 59.27 11.7422453 59.27 12.6722453 59.055 12.6722453"></polygon>
                <path d="M113.266,17.2192453 C113.613,17.0352453 113.656,17.2302453 113.883,17.3792453 C114.055,17.4922453 114.086,17.4962453 114.324,17.5272453 C114.77,17.5822453 115.184,17.6452453 115.617,17.7622453 C116.016,17.8672453 116.391,18.0002453 116.797,18.0122453 C117.312,18.0272453 117.656,18.1332453 118.109,18.4142453 C118.312,18.5432453 118.516,18.7112453 118.75,18.7542453 C118.949,18.7892453 119.234,18.7342453 119.375,18.5902453 C118.949,18.0122453 118.273,17.5552453 117.648,17.2232453 C117.297,17.0312453 116.922,16.8752453 116.543,16.7502453 C116.27,16.6562453 115.512,16.6212453 115.324,16.4452453 C115.07,16.1992453 114.734,16.0512453 114.559,15.7232453 C113.629,15.1882453 111.719,15.7192453 111.609,14.2892453 C111.59,14.0082453 112.871,14.0782453 113.047,14.5082453 C113.141,14.1602453 113.934,14.3752453 114.23,14.4062453 C115.238,14.5002453 116.086,15.1452453 116.98,15.5942453 C117.578,15.8952453 119.266,16.5782453 118.887,15.2662453 C118.816,15.0082453 118.617,15.0042453 118.352,14.8672453 C118.129,14.7582453 117.906,14.6452453 117.73,14.4652453 C117.379,14.1092453 117.359,13.8752453 116.871,13.6762453 C116.418,13.4922453 115.957,13.3522453 115.496,13.2152453 C114.578,12.9452453 113.625,12.7152453 112.77,12.2462453 C113.031,12.0822453 113.008,11.6522453 113.312,11.5272453 C113.906,11.2932453 114.934,11.6562453 115.508,11.9062453 C116.031,12.1332453 116.742,12.6912453 117.301,12.6762453 L117.242,12.4572453 L116.977,12.3402453 C116.762,12.1602453 116.699,12.2302453 116.73,11.9412453 C116.77,11.5862453 117.062,11.6132453 116.617,11.2342453 C116.164,10.8402453 115.559,10.5392453 115.008,10.3282453 C114.426,10.1022453 113.492,10.2972453 113.176,9.6092453 C113.09,9.4182453 114.633,9.5742453 114.691,9.5622453 C114.648,9.4302453 114.57,9.2772453 114.473,9.1682453 C113.898,8.5472453 112.777,8.2772453 112.004,8.1682453 C111.559,7.7192453 110.98,7.7772453 110.648,7.4532453 C110.781,6.4692453 111.895,7.4532453 112.547,7.4532453 C112.281,6.5512453 111.188,6.4922453 110.547,6.0122453 C109.949,5.5702453 109.496,4.9802453 109.117,4.3362453 C108.449,4.0312453 107.664,3.8552453 107.262,3.2582453 C107.746,2.7932453 108.434,3.7422453 108.812,3.3752453 C108.363,2.5742453 107.762,1.9382453 106.793,1.6992453 C106.691,1.0122453 106.242,0.617245296 105.629,0.363245296 C105.387,0.258245296 105.066,0.0862452964 104.824,0.0312452964 C104.434,-0.0547547036 104.539,0.0352452964 104.348,0.320245296 C104.145,0.617245296 104.148,0.543245296 103.805,0.547245296 C103.434,0.555245296 103.195,0.566245296 102.906,0.805245296 C102.723,0.961245296 102.574,1.2342453 102.453,1.4342453 C102.582,1.4142453 102.766,1.3322453 102.91,1.3552453 C102.922,1.3592453 103.363,1.4842453 103.223,1.5782453 C103.086,1.6722453 102.961,1.7972453 102.809,1.8632453 C102.668,1.9262453 102.293,1.8792453 102.211,1.9492453 C101.977,2.1452453 102.336,2.5822453 102.121,2.7812453 C101.129,2.7032453 100.285,2.7732453 100.535,3.8592453 C101.102,3.8982453 101.465,2.8442453 101.934,3.5002453 C101.312,4.4062453 100.027,4.3792453 99.129,4.8482453 C99.18,4.9452453 99.602,5.2112453 99.449,5.3012453 C98.844,5.6602453 98.145,6.0622453 97.773,6.6912453 C98.078,6.6522453 98.523,6.7192453 98.832,6.6172453 C99.184,6.5042453 99.871,5.7892453 100.367,6.4962453 C100.305,6.4102453 96.594,8.0742453 96.289,8.2892453 C96.348,8.4022453 96.375,8.5592453 96.332,8.6762453 C96.242,8.8952453 95.91,8.8522453 95.934,9.1292453 C96.266,9.1842453 96.633,9.1642453 96.961,9.1132453 C97.074,9.1022453 97.617,8.8632453 97.688,8.8982453 C97.965,9.0272453 98.145,9.2622453 98.211,9.6132453 C97.883,9.5272453 97.992,9.8552453 97.754,9.8592453 C96.668,9.6642453 95.398,10.2382453 94.352,10.4572453 C94.199,11.1522453 92.953,11.3522453 93.156,12.0202453 C94,11.9532453 94.832,11.8792453 95.633,11.7772453 C95.875,11.7302453 96.559,13.0982453 96.559,13.0982453 C96.395,13.6642453 95.266,13.6562453 94.801,13.7112453 C94.195,13.7852453 93.086,13.7662453 92.707,14.3092453 L93.227,14.6562453 C92.258,15.1602453 91.609,15.9652453 90.496,16.3362453 C90.434,16.7032453 90.84,16.5662453 90.777,16.9382453 C90.496,17.1562453 89.805,16.9882453 89.871,17.5352453 C90.523,17.7772453 91.152,17.1992453 91.973,17.0512453 C92.262,17.0042453 92.699,17.0902453 93.16,17.0512453 C94.695,16.9222453 96.246,16.0702453 96.824,16.8122453 C96.836,16.5352453 96.984,16.3912453 97.191,16.3012453 C97.168,16.6682453 97.188,17.0202453 97.238,17.3522453 C96.547,17.4382453 95.855,17.5162453 95.176,17.6562453 C93.949,17.9102453 92.566,18.2192453 91.977,19.4182453 C92.523,19.7732453 93.301,19.6912453 93.906,19.7582453 C94.52,19.8242453 95.129,19.9302453 95.742,19.9302453 C96.547,19.9342453 97.422,19.3122453 98.117,19.9302453 C97.98,20.1482453 97.457,19.9962453 97.16,20.0662453 L97.102,20.0782453 C97.016,20.1132453 96.957,20.1722453 96.953,20.2892453 C97.406,20.2302453 97.844,20.3632453 98.277,20.4962453 C98.418,20.6292453 98.512,20.8092453 98.699,20.8982453 C98.938,21.0082453 99.242,21.0392453 99.504,21.1292453 L100.23,21.1292453 L100.297,21.1562453 C101.34,22.5472453 101.266,24.3482453 100.789,26.1722453 C100.715,26.3982453 100.652,26.6052453 100.613,26.7932453 C100.586,26.9412453 100.461,27.0982453 100.629,27.2072453 C100.777,27.3012453 101.016,27.2152453 101.176,27.2192453 C101.391,27.2272453 101.602,27.2112453 101.816,27.2032453 C102.523,27.1882453 103.23,27.1022453 103.941,27.0782453 C104.359,27.0622453 104.785,27.0472453 105.211,27.0312453 C105.633,27.0472453 106.059,27.0622453 106.48,27.0782453 C107.191,27.1022453 107.898,27.1882453 108.605,27.2032453 C109.203,27.2192453 109.332,27.2582453 109.906,27.1132453 C109.211,24.9802453 108.902,22.7852453 110.121,21.1562453 L110.188,21.1292453 L110.914,21.1292453 C111.18,21.0392453 111.484,21.0082453 111.723,20.8982453 C111.969,20.7812453 112.047,20.5042453 112.293,20.3952453 C112.953,20.0782453 113.426,19.9692453 114.188,20.0392453 C114.582,20.0742453 114.98,20.1602453 115.375,20.2542453 C115.637,20.3162453 116.176,20.6482453 116.414,20.5122453 C116.637,20.3872453 116.477,20.0042453 116.781,19.9492453 C117.277,19.8592453 118.301,20.3362453 118.707,20.6332453 C118.465,20.4572453 118.996,20.3322453 119.02,20.2302453 C119.066,20.0042453 118.496,19.7462453 118.332,19.6682453 C118.012,19.5082453 117.684,19.3592453 117.367,19.1802453 C116.594,18.7502453 115.832,18.2852453 114.973,18.1212453 C114.203,17.9772453 113.488,18.3012453 112.934,17.8832453 C112.918,17.5822453 113.008,17.3552453 113.266,17.2192453" id="Fill-3" fill="#2A2829"></path>
                <path d="M108.742,19.4062453 C108.48,17.5862453 108.07,15.7662453 108.031,13.9342453 C108.016,13.1252453 108.051,12.3122453 108.156,11.5122453 C108.238,10.8752453 108.383,10.2272453 108.59,9.6092453 C108.703,9.2702453 108.609,8.9262453 108.363,8.8522453 C108.113,8.7812453 107.805,8.9962453 107.691,9.3402453 C107.324,10.4572453 107.191,11.5702453 107.141,12.7152453 C107.102,13.4692453 107.027,14.3122453 106.719,14.9652453 C106.598,15.2192453 106.359,15.4962453 106.082,15.5352453 C105.547,15.5982453 104.871,14.4382453 104.711,12.9342453 C104.672,11.8522453 104.742,10.7342453 105.023,9.6842453 C105.117,9.3362453 104.996,8.9962453 104.742,8.9262453 C104.484,8.8522453 104.18,9.0822453 104.105,9.4142453 C103.754,11.0312453 103.742,12.6912453 103.934,14.2852453 C104.109,15.7622453 104.488,17.2112453 104.848,18.6642453 C105.195,20.0662453 105.648,21.5782453 105.598,23.0162453 C105.566,23.8052453 105.41,24.5742453 105.199,25.2972453 C105.086,25.6842453 104.953,26.0622453 104.812,26.4302453 C104.668,26.8092453 104.742,27.2622453 104.977,27.4342453 L105.188,27.5042453 C105.379,27.5002453 105.598,27.3402453 105.711,27.0702453 C106.141,26.0742453 106.516,25.0232453 106.715,23.8282453 C106.898,22.7192453 106.922,22.1452453 107.387,22.2732453 C107.645,22.3442453 107.742,22.5432453 107.75,22.8362453 C107.629,24.1412453 107.219,25.3282453 106.75,26.3912453 C106.586,26.7732453 106.625,27.2232453 106.852,27.3952453 L107.062,27.4652453 C107.254,27.4612453 107.48,27.3012453 107.613,27.0312453 C108.27,25.6722453 108.922,24.1522453 108.965,22.3792453 C108.988,21.3872453 108.887,20.3982453 108.742,19.4062453" id="Fill-4" fill="#FFFFFF"></path>
                <path d="M106.008,14.3442453 C106.348,14.3402453 106.582,13.6132453 106.59,12.7072453 C106.602,11.7812453 106.367,11.0272453 106,11.0352453 C105.629,11.0432453 105.289,11.8122453 105.309,12.7302453 C105.328,13.6372453 105.668,14.3522453 106.008,14.3442453" id="Fill-5" fill="#FFFFFF"></path>
                <path d="M104.445,20.5432453 C103.801,17.9572453 102.852,15.2892453 103.18,12.3482453 C103.211,12.0822453 103.098,11.7932453 102.887,11.7302453 C102.672,11.6682453 102.461,11.8402453 102.418,12.1172453 C102.27,13.0432453 102.32,13.9962453 102.398,14.9102453 C102.457,15.5862453 102.562,16.4142453 102.281,16.9962453 C102.211,17.1452453 102.035,17.3712453 101.863,17.3792453 C101.383,17.3982453 100.781,16.4922453 100.477,15.2662453 C100.305,14.2852453 100.211,13.2702453 100.324,12.3282453 C100.359,12.0592453 100.219,11.7732453 100.004,11.7072453 C99.789,11.6412453 99.578,11.8122453 99.551,12.0822453 C99.391,13.5472453 99.645,15.0272453 99.992,16.4222453 C100.285,17.6022453 100.781,18.7032453 101.156,19.8092453 C101.531,20.8952453 101.742,21.9882453 101.91,23.0662453 C102.047,24.2892453 101.793,25.4652453 101.477,26.5082453 C101.379,26.8282453 101.473,27.2152453 101.688,27.3552453 L101.875,27.4102453 C102.043,27.4062453 102.207,27.2662453 102.289,27.0352453 C102.598,26.1842453 102.84,25.2502453 102.93,24.2702453 C103.02,23.3402453 103.012,22.8552453 103.41,22.9532453 C103.625,23.0122453 103.719,23.1762453 103.746,23.4222453 C103.711,24.5122453 103.453,25.5202453 103.125,26.4452453 C103.012,26.7702453 103.086,27.1522453 103.293,27.2932453 L103.477,27.3522453 C103.645,27.3482453 103.812,27.2032453 103.91,26.9732453 C104.391,25.8122453 104.805,24.4412453 104.734,23.0232453 C104.691,22.1882453 104.652,21.3712453 104.445,20.5432453" id="Fill-6" fill="#FFFFFF"></path>
                <path d="M101.684,16.4062453 C101.957,16.3982453 102.078,15.8052453 101.977,15.0662453 C101.871,14.3162453 101.574,13.7112453 101.277,13.7192453 C100.98,13.7302453 100.812,14.3552453 100.938,15.1052453 C101.062,15.8402453 101.406,16.4222453 101.684,16.4062453" id="Fill-7" fill="#FFFFFF"></path>
                <path d="M100.707,20.2582453 C100.035,20.3752453 99.293,20.3592453 98.586,20.0662453 C98.234,19.9342453 97.887,19.6992453 97.617,19.4532453 C97.309,19.1762453 97.062,18.8482453 96.867,18.5002453 C96.488,17.7852453 96.344,16.9842453 96.328,16.2152453 C96.316,15.4412453 96.465,14.6912453 96.672,13.9732453 C97.082,12.5312453 97.859,11.2622453 98.75,10.1132453 C99.672,8.9842453 100.766,8.0042453 102,7.1952453 C103.266,6.4382453 104.66,5.8162453 106.234,5.6372453 C107.02,5.5592453 107.855,5.5942453 108.684,5.8482453 C109.098,5.9772453 109.508,6.1602453 109.879,6.4182453 C110.066,6.5472453 110.238,6.6912453 110.402,6.8522453 L110.52,6.9732453 L110.586,7.0392453 L110.594,7.0512453 L110.633,7.1022453 L110.715,7.1992453 L110.828,7.3522453 C111.379,8.1022453 111.605,8.9532453 111.621,9.7542453 C111.637,10.5512453 111.48,11.2972453 111.238,11.9882453 C110.719,13.3552453 109.898,14.5202453 108.883,15.4412453 L108.77,15.3522453 C109.555,14.2852453 110.184,13.0862453 110.504,11.8052453 C110.66,11.1642453 110.73,10.5002453 110.664,9.8522453 C110.594,9.2032453 110.375,8.5662453 109.965,8.0702453 C109.555,7.5662453 108.98,7.2192453 108.352,7.0552453 C107.727,6.8872453 107.062,6.8752453 106.414,6.9692453 C105.113,7.1562453 103.879,7.7032453 102.77,8.4062453 C101.652,9.1092453 100.641,9.9882453 99.777,10.9882453 C98.918,11.9882453 98.191,13.1252453 97.734,14.3632453 C97.285,15.5822453 97.066,16.9802453 97.566,18.1992453 C97.812,18.8012453 98.258,19.3162453 98.828,19.6412453 C99.395,19.9652453 100.055,20.1052453 100.711,20.1132453 L100.707,20.2582453 Z" id="Fill-8" fill="#FFFFFF"></path>
                <polygon id="Fill-9" fill="#2A2829" points="4.414 6.6452453 3.438 5.5512453 2.453 6.6452453 3.438 7.6992453"></polygon>
                <polygon id="Fill-10" fill="#2A2829" points="2.312 6.6452453 1.328 5.5512453 0.328 6.6452453 1.328 7.6992453"></polygon>
                <polygon id="Fill-11" fill="#2A2829" points="9.742 14.5162453 10.734 15.5702453 11.723 14.5162453 10.734 13.4412453"></polygon>
                <polygon id="Fill-12" fill="#2A2829" points="7.629 14.5162453 8.629 15.5702453 9.598 14.5162453 8.629 13.4412453"></polygon>
                <polygon id="Fill-13" fill="#2A2829" points="15.07 6.8912453 14.105 5.8122453 13.098 6.8912453 14.105 7.9382453"></polygon>
                <path d="M14.871,11.2232453 L10.621,11.2232453 L10.621,8.4882453 L9.48,9.5662453 L9.48,11.2232453 L4.363,11.2232453 L4.363,8.6092453 C4.363,8.3632453 4.246,8.2422453 4.012,8.2422453 C3.73,8.2422453 3.406,8.3442453 3.051,8.5472453 C2.691,8.7542453 2.301,9.0622453 1.875,9.4772453 C1.52,9.8092453 1.203,10.1452453 0.934,10.4772453 C0.66,10.8092453 0.418,11.1412453 0.215,11.4802453 L0.156,11.6912453 C0.156,11.7972453 0.207,11.8712453 0.316,11.9222453 L2.219,12.7702453 L3.25,11.7382453 L3.25,12.5902453 L15.996,12.5902453 L15.996,8.5002453 L14.871,9.5982453 L14.871,11.2232453 Z M3.25,11.2232453 C3.141,11.3012453 3.035,11.3442453 2.93,11.3442453 L2.816,11.3282453 L2.703,11.2812453 L1.586,10.7812453 C2.328,9.9412453 2.828,9.5202453 3.086,9.5202453 L3.215,9.5742453 L3.25,9.7302453 L3.25,11.2232453 Z" id="Fill-14" fill="#2A2829"></path>
                <polygon id="Fill-15" fill="#2A2829" points="23.906 6.6452453 22.926 5.5512453 21.934 6.6452453 22.926 7.6992453"></polygon>
                <polygon id="Fill-16" fill="#2A2829" points="25.953 14.5162453 26.938 15.5702453 27.918 14.5162453 26.938 13.4412453"></polygon>
                <polygon id="Fill-17" fill="#2A2829" points="33.809 11.2232453 31.707 11.2232453 31.707 5.9062453 30.613 6.9692453 30.613 11.2232453 28.234 11.2232453 28.234 8.4882453 27.09 9.5662453 27.09 11.2232453 24.258 11.2232453 24.258 8.4882453 23.113 9.5662453 23.113 11.2232453 17.883 11.2232453 17.883 6.9692453 16.738 5.8872453 16.738 12.5902453 34.938 12.5902453 34.938 5.8872453 33.809 6.9692453"></polygon>
                <polygon id="Fill-18" fill="#2A2829" points="35.93 12.5902453 37.07 12.5902453 37.07 5.8872453 35.93 6.9692453"></polygon>
                <polygon id="Fill-19" fill="#2A2829" points="43.047 6.6452453 42.062 5.5512453 41.062 6.6452453 42.062 7.6992453"></polygon>
                <polygon id="Fill-20" fill="#2A2829" points="45.152 6.6452453 44.168 5.5512453 43.191 6.6452453 44.168 7.6992453"></polygon>
                <path d="M52.582,12.5902453 L52.582,8.5002453 L51.457,9.5982453 L51.457,11.2232453 L45.098,11.2232453 L45.098,8.6092453 C45.098,8.3632453 44.98,8.2422453 44.75,8.2422453 C44.465,8.2422453 44.145,8.3442453 43.785,8.5472453 C43.43,8.7542453 43.039,9.0622453 42.609,9.4772453 C42.254,9.8092453 41.938,10.1452453 41.668,10.4772453 C41.395,10.8092453 41.156,11.1452453 40.953,11.4802453 L40.891,11.6912453 C40.891,11.7972453 40.945,11.8712453 41.051,11.9222453 L42.957,12.7702453 L43.984,11.7382453 L43.984,12.5902453 L52.582,12.5902453 Z M43.984,11.2232453 C43.875,11.3052453 43.77,11.3442453 43.668,11.3442453 L43.551,11.3282453 L43.434,11.2812453 L42.32,10.7812453 C43.059,9.9412453 43.562,9.5202453 43.82,9.5202453 L43.949,9.5742453 L43.984,9.7302453 L43.984,11.2232453 Z" id="Fill-21" fill="#2A2829"></path>
                <polygon id="Fill-22" fill="#2A2829" points="50.992 14.5162453 51.992 15.5702453 52.973 14.5162453 51.992 13.4412453"></polygon>
                <polygon id="Fill-23" fill="#2A2829" points="48.887 14.5162453 49.879 15.5702453 50.848 14.5162453 49.879 13.4412453"></polygon>
                <path d="M55.105,8.5622453 L54.195,9.9572453 C54.656,10.6882453 54.887,11.4412453 54.887,12.2112453 C54.887,12.4382453 54.871,12.6482453 54.832,12.8362453 C54.797,13.0232453 54.738,13.1882453 54.66,13.3322453 C54.457,13.7112453 54.164,13.8952453 53.773,13.8952453 C53.512,13.8952453 53.254,13.8202453 52.996,13.6682453 C52.863,13.5942453 52.777,13.6132453 52.73,13.7302453 C52.715,13.7812453 52.758,13.8632453 52.863,13.9732453 C53.16,14.2662453 53.449,14.4772453 53.73,14.6132453 C54.008,14.7502453 54.277,14.8202453 54.539,14.8202453 C55.023,14.8202453 55.406,14.5622453 55.695,14.0472453 C55.926,13.6412453 56.07,13.1522453 56.125,12.5942453 L56.156,12.0392453 C56.156,11.3982453 56.066,10.7932453 55.895,10.2192453 C55.715,9.6452453 55.453,9.0902453 55.105,8.5622453" id="Fill-24" fill="#2A2829"></path>
                <polygon id="Fill-25" fill="#2A2829" points="74.898 14.5162453 75.895 15.5702453 76.879 14.5162453 75.895 13.4412453"></polygon>
                <path d="M80.086,11.2232453 L78.32,11.2232453 C78.195,11.2232453 78.074,11.1882453 77.961,11.1092453 C77.844,11.0352453 77.742,10.9182453 77.66,10.7662453 L77.152,9.7812453 C76.656,8.7972453 76.098,8.3052453 75.477,8.3052453 C75.145,8.3052453 74.809,8.4612453 74.465,8.7732453 C74.152,9.0512453 73.926,9.3552453 73.773,9.6882453 C73.617,9.9962453 73.547,10.1682453 73.566,10.2032453 C73.621,10.2772453 73.715,10.2542453 73.844,10.1412453 C74.312,9.7232453 74.719,9.5312453 75.059,9.5662453 C75.195,9.5742453 75.324,9.6092453 75.438,9.6762453 C75.559,9.7422453 75.66,9.8322453 75.754,9.9452453 L75.906,10.1372453 C75.953,10.2112453 75.996,10.2972453 76.043,10.3872453 L76.434,11.2232453 L72.027,11.2232453 C71.613,9.4062453 71.09,8.5002453 70.453,8.5002453 C69.84,8.5002453 69.152,9.4062453 68.391,11.2232453 L65.672,11.2232453 C65.82,10.9842453 65.938,10.7302453 66.008,10.4572453 C66.086,10.1882453 66.121,9.8952453 66.121,9.5782453 C66.121,9.2382453 66.062,8.9492453 65.945,8.7152453 C65.793,8.4222453 65.562,8.2732453 65.254,8.2732453 C64.812,8.2852453 64.391,8.5432453 63.984,9.0432453 C63.414,9.7542453 63.129,10.4802453 63.129,11.2232453 L60.879,11.2232453 C60.836,10.8832453 60.77,10.5702453 60.695,10.2852453 C60.613,10.0042453 60.523,9.7502453 60.414,9.5202453 C60.113,8.8322453 59.719,8.4882453 59.23,8.4882453 C58.758,8.4882453 58.285,8.9102453 57.812,9.7582453 C57.59,10.1522453 57.422,10.5162453 57.316,10.8442453 C57.203,11.1722453 57.152,11.4732453 57.152,11.7382453 C57.152,12.3052453 57.445,12.5902453 58.043,12.5902453 L59.66,12.5902453 C59.504,13.4922453 59.066,13.9412453 58.348,13.9412453 C58.188,13.9412453 58.031,13.9222453 57.879,13.8872453 C57.727,13.8522453 57.574,13.7972453 57.422,13.7302453 C57.281,13.6562453 57.191,13.6602453 57.152,13.7422453 C57.133,13.8202453 57.184,13.9182453 57.309,14.0352453 C57.629,14.3122453 57.938,14.5232453 58.242,14.6642453 C58.547,14.8012453 58.852,14.8712453 59.156,14.8712453 C59.668,14.8712453 60.086,14.6212453 60.402,14.1092453 C60.531,13.9062453 60.637,13.6722453 60.723,13.4182453 C60.809,13.1602453 60.871,12.8872453 60.906,12.5902453 L63.129,12.5902453 C63.215,13.2892453 63.527,13.9222453 64.066,14.4922453 C64.383,14.8052453 64.773,14.9612453 65.254,14.9612453 C65.641,14.9612453 65.945,14.8202453 66.176,14.5352453 C66.277,14.4022453 66.355,14.2462453 66.406,14.0702453 C66.457,13.8952453 66.484,13.7072453 66.484,13.5042453 C66.484,13.3162453 66.449,13.1482453 66.379,13.0002453 C66.309,12.8482453 66.207,12.7152453 66.062,12.5902453 L67.723,12.5902453 C67.969,12.5902453 68.168,12.5822453 68.316,12.5702453 C68.469,12.5552453 68.574,12.5352453 68.633,12.5162453 L68.789,12.3712453 C68.844,12.3122453 68.891,12.2342453 68.938,12.1372453 C69.52,12.4882453 69.988,12.7502453 70.352,12.9302453 C70.715,13.1092453 70.973,13.1992453 71.133,13.1992453 C71.246,13.1992453 71.348,13.1482453 71.449,13.0432453 C71.547,12.9412453 71.652,12.7892453 71.758,12.5902453 L81.211,12.5902453 L81.211,5.8872453 L80.086,6.9692453 L80.086,11.2232453 Z M58.359,11.2232453 C58.141,11.2232453 58.031,11.1522453 58.031,11.0082453 L58.07,10.8552453 C58.348,10.2422453 58.625,9.9302453 58.895,9.9302453 C59.09,9.9302453 59.27,10.0782453 59.434,10.3712453 C59.504,10.5002453 59.562,10.6372453 59.605,10.7812453 C59.648,10.9222453 59.676,11.0742453 59.691,11.2232453 L58.359,11.2232453 Z M63.977,10.6092453 C64.027,10.4382453 64.09,10.3012453 64.152,10.2032453 C64.262,10.0162453 64.367,9.8712453 64.473,9.7812453 C64.578,9.6882453 64.68,9.6412453 64.777,9.6412453 C64.91,9.6412453 64.996,9.7382453 65.035,9.9302453 C65.07,10.0902453 65.07,10.2342453 65.035,10.3712453 C64.922,10.9492453 64.523,11.2342453 63.84,11.2342453 C63.875,10.9922453 63.922,10.7852453 63.977,10.6092453 L63.977,10.6092453 Z M65.453,13.5042453 C65.34,13.6052453 65.215,13.6562453 65.09,13.6562453 L64.977,13.6372453 C64.504,13.5312453 64.188,13.1912453 64.023,12.6172453 L64.504,12.5742453 C64.715,12.5742453 64.898,12.5942453 65.059,12.6372453 C65.219,12.6842453 65.355,12.7462453 65.469,12.8322453 C65.574,12.9222453 65.629,13.0272453 65.629,13.1482453 C65.629,13.2812453 65.57,13.3982453 65.453,13.5042453 L65.453,13.5042453 Z M70.184,11.3092453 C69.93,11.1522453 69.691,10.9922453 69.473,10.8282453 C69.773,10.2152453 70.039,9.9142453 70.27,9.9142453 C70.609,9.9142453 70.859,10.5232453 71.016,11.7382453 C70.719,11.6052453 70.441,11.4652453 70.184,11.3092453 L70.184,11.3092453 Z" id="Fill-26" fill="#2A2829"></path>
                <polygon id="Fill-27" fill="#2A2829" points="82.207 6.9692453 82.207 12.5902453 83.344 12.5902453 83.344 5.8872453"></polygon>
                <polygon id="Fill-28" fill="#737477" points="2.156 19.0592453 1.172 17.9652453 0.172 19.0592453 1.172 20.1132453"></polygon>
                <polygon id="Fill-29" fill="#737477" points="4.262 19.0592453 3.281 17.9652453 2.301 19.0592453 3.281 20.1132453"></polygon>
                <path d="M14.836,23.5592453 C14.742,23.1642453 14.652,22.8242453 14.57,22.5432453 C14.484,22.2582453 14.398,22.0232453 14.32,21.8402453 C14.039,21.2232453 13.699,20.9142453 13.289,20.9142453 C12.656,20.9142453 11.965,21.8202453 11.215,23.6372453 L4.207,23.6372453 L4.207,21.0202453 C4.207,20.7772453 4.09,20.6562453 3.859,20.6562453 C3.57,20.6562453 3.25,20.7582453 2.895,20.9612453 C2.539,21.1682453 2.148,21.4772453 1.723,21.8872453 C1.363,22.2232453 1.051,22.5552453 0.777,22.8912453 C0.504,23.2232453 0.266,23.5552453 0.059,23.8912453 L0,24.1052453 C0,24.2112453 0.051,24.2892453 0.164,24.3322453 L2.062,25.1802453 L3.094,24.1522453 L3.094,25.0042453 L10.883,25.0042453 C11.141,25.0042453 11.32,24.9842453 11.41,24.9412453 C11.555,24.8792453 11.676,24.7462453 11.773,24.5472453 C12.234,24.8012453 12.625,25.0082453 12.945,25.1682453 C13.266,25.3282453 13.523,25.4532453 13.711,25.5392453 L13.852,25.5902453 L13.969,25.6132453 C14.184,25.6132453 14.422,25.3362453 14.68,24.7892453 C14.809,24.5162453 14.883,24.2972453 14.898,24.1372453 C14.902,24.0822453 14.902,24.0042453 14.887,23.9102453 C14.875,23.8122453 14.859,23.6952453 14.836,23.5592453 L14.836,23.5592453 Z M3.094,23.6372453 C2.984,23.7152453 2.879,23.7582453 2.773,23.7582453 L2.66,23.7422453 L2.547,23.6952453 L1.434,23.1952453 C2.172,22.3552453 2.672,21.9302453 2.93,21.9302453 L3.059,21.9882453 L3.094,22.1452453 L3.094,23.6372453 Z M13.074,23.7702453 C12.816,23.6292453 12.559,23.4532453 12.297,23.2382453 C12.422,22.9732453 12.578,22.7462453 12.77,22.5552453 C12.926,22.4022453 13.035,22.3242453 13.09,22.3242453 C13.445,22.3242453 13.699,22.9142453 13.855,24.0902453 C13.594,24.0162453 13.336,23.9102453 13.074,23.7702453 L13.074,23.7702453 Z" id="Fill-30" fill="#737477"></path>
                <path d="M26.301,23.6372453 L22.766,23.6372453 C22.992,23.3162453 23.238,23.0742453 23.504,22.9102453 C23.77,22.7422453 24.062,22.6602453 24.387,22.6602453 C23.688,21.3242453 22.777,20.6562453 21.652,20.6562453 C20.531,20.6562453 19.633,21.3242453 18.949,22.6602453 C19.262,22.6602453 19.551,22.7422453 19.816,22.9102453 C20.082,23.0742453 20.32,23.3162453 20.539,23.6372453 L16.758,23.6372453 L16.758,19.3792453 L15.613,18.2972453 L15.613,25.0042453 L20.383,25.0042453 C20.598,25.0042453 20.812,24.9612453 21.02,24.8792453 C21.23,24.7932453 21.441,24.6642453 21.652,24.4962453 C21.863,24.6642453 22.074,24.7932453 22.285,24.8792453 C22.492,24.9612453 22.711,25.0042453 22.941,25.0042453 L27.426,25.0042453 L27.426,18.2972453 L26.301,19.3792453 L26.301,23.6372453 Z M21.652,23.5862453 C21.523,23.2582453 21.363,22.9802453 21.168,22.7622453 C20.973,22.5432453 20.75,22.3712453 20.496,22.2502453 C20.852,21.9772453 21.234,21.8402453 21.652,21.8402453 C22.059,21.8402453 22.457,21.9772453 22.836,22.2502453 C22.344,22.4962453 21.949,22.9412453 21.652,23.5862453 L21.652,23.5862453 Z" id="Fill-31" fill="#737477"></path>
                <polygon id="Fill-32" fill="#737477" points="28.418 25.0042453 29.555 25.0042453 29.555 18.2972453 28.418 19.3792453"></polygon>
                <polygon id="Fill-33" fill="#737477" points="37.641 19.0592453 36.66 17.9652453 35.68 19.0592453 36.66 20.1132453"></polygon>
                <polygon id="Fill-34" fill="#737477" points="35.535 19.0592453 34.551 17.9652453 33.555 19.0592453 34.551 20.1132453"></polygon>
                <path d="M58.832,23.6372453 L57.113,23.6372453 L57.113,23.5272453 C57.113,22.7852453 56.965,22.1882453 56.668,21.7382453 C56.332,21.2192453 55.832,20.9572453 55.164,20.9572453 C54.871,20.9572453 54.562,21.0202453 54.223,21.1482453 C53.887,21.2732453 53.523,21.4652453 53.141,21.7192453 C52.773,21.9732453 52.441,22.2382453 52.145,22.5202453 C51.844,22.8012453 51.574,23.1022453 51.336,23.4182453 L51.336,20.9142453 L50.207,22.0122453 L50.207,23.6372453 L48.094,23.6372453 C47.965,23.6372453 47.844,23.5982453 47.73,23.5232453 C47.617,23.4452453 47.516,23.3322453 47.434,23.1802453 L46.926,22.1952453 C46.43,21.2112453 45.867,20.7192453 45.246,20.7192453 C44.918,20.7192453 44.582,20.8712453 44.234,21.1882453 C43.926,21.4652453 43.695,21.7702453 43.547,22.0982453 C43.387,22.4062453 43.32,22.5782453 43.336,22.6172453 C43.395,22.6912453 43.484,22.6682453 43.613,22.5552453 C44.086,22.1372453 44.488,21.9412453 44.832,21.9772453 C44.969,21.9882453 45.094,22.0232453 45.211,22.0862453 C45.328,22.1522453 45.43,22.2422453 45.523,22.3552453 L45.676,22.5512453 C45.723,22.6252453 45.77,22.7072453 45.812,22.8012453 L46.203,23.6372453 L37.586,23.6372453 L37.586,21.0202453 C37.586,20.7772453 37.473,20.6562453 37.238,20.6562453 C36.953,20.6562453 36.633,20.7582453 36.273,20.9612453 C35.918,21.1682453 35.527,21.4772453 35.102,21.8872453 C34.742,22.2232453 34.43,22.5592453 34.156,22.8912453 C33.883,23.2232453 33.645,23.5592453 33.438,23.8912453 L33.379,24.1052453 C33.379,24.2112453 33.434,24.2852453 33.543,24.3322453 L35.445,25.1842453 L36.402,24.2192453 L36.402,25.0042453 L59.961,25.0042453 L59.961,18.2972453 L58.832,19.3792453 L58.832,23.6372453 Z M36.402,23.6372453 L36.402,23.6762453 L36.156,23.7582453 L36.039,23.7422453 L35.926,23.6912453 L34.812,23.1952453 C35.551,22.3552453 36.051,21.9342453 36.312,21.9342453 L36.438,21.9882453 L36.473,22.1452453 L36.473,23.6372453 L36.402,23.6372453 Z M55.555,23.6372453 L51.984,23.6372453 C52.449,23.1372453 52.887,22.7662453 53.293,22.5162453 C53.699,22.2662453 54.086,22.1452453 54.453,22.1452453 C54.797,22.1452453 55.07,22.2622453 55.277,22.4962453 C55.484,22.7272453 55.586,23.0232453 55.586,23.3912453 L55.555,23.6372453 Z" id="Fill-35" fill="#737477"></path>
                <polygon id="Fill-36" fill="#737477" points="60.957 25.0042453 62.094 25.0042453 62.094 18.2972453 60.957 19.3792453"></polygon>
                <path d="M69.328,22.8012453 C69.152,22.3122453 68.863,21.8952453 68.465,21.5552453 C68.066,21.2112453 67.555,20.9342453 66.93,20.7192453 L66.281,22.0552453 L66.656,22.1952453 C66.34,22.6372453 66.105,23.0272453 65.949,23.3712453 C65.793,23.7152453 65.715,24.0042453 65.715,24.2422453 C65.715,24.8202453 66.086,25.1052453 66.832,25.1052453 C67.035,25.1052453 67.238,25.0822453 67.445,25.0352453 C67.652,24.9882453 67.859,24.9182453 68.07,24.8202453 C68.957,24.4062453 69.398,23.8672453 69.398,23.2032453 L69.379,23.0162453 L69.328,22.8012453 Z M67.223,23.7382453 C66.852,23.7382453 66.668,23.5662453 66.668,23.2272453 C66.668,22.9492453 66.793,22.6412453 67.047,22.2932453 C67.766,22.5232453 68.184,22.8522453 68.285,23.2812453 C68.012,23.5862453 67.656,23.7382453 67.223,23.7382453 L67.223,23.7382453 Z" id="Fill-37" fill="#737477"></path>
                <polygon id="Fill-38" fill="#737477" points="67.188 19.0592453 66.207 17.9652453 65.211 19.0592453 66.207 20.1132453"></polygon>
                <polygon id="Fill-39" fill="#737477" points="69.297 19.0592453 68.316 17.9652453 67.316 19.0592453 68.316 20.1132453"></polygon>
                <path d="M72.035,20.9772453 L71.129,22.3712453 C71.59,23.1022453 71.82,23.8522453 71.82,24.6252453 C71.82,24.8522453 71.801,25.0592453 71.766,25.2502453 C71.73,25.4382453 71.672,25.6022453 71.59,25.7462453 C71.391,26.1212453 71.094,26.3092453 70.707,26.3092453 C70.445,26.3092453 70.184,26.2342453 69.93,26.0782453 C69.797,26.0042453 69.707,26.0272453 69.664,26.1452453 C69.648,26.1952453 69.691,26.2772453 69.797,26.3832453 C70.094,26.6762453 70.383,26.8912453 70.66,27.0272453 C70.938,27.1642453 71.211,27.2342453 71.469,27.2342453 C71.957,27.2342453 72.34,26.9772453 72.625,26.4612453 C72.859,26.0512453 73.004,25.5662453 73.062,25.0042453 L73.09,24.4532453 C73.09,23.8122453 73.004,23.2032453 72.824,22.6292453 C72.648,22.0552453 72.383,21.5042453 72.035,20.9772453" id="Fill-40" fill="#737477"></path>
                <polygon id="Fill-41" fill="#737477" points="74.09 25.0042453 75.227 25.0042453 75.227 18.2972453 74.09 19.3792453"></polygon>
                <path d="M78.027,20.9772453 L77.117,22.3712453 C77.578,23.1022453 77.809,23.8522453 77.809,24.6252453 C77.809,24.8522453 77.793,25.0592453 77.758,25.2502453 C77.719,25.4382453 77.664,25.6022453 77.582,25.7462453 C77.383,26.1212453 77.09,26.3092453 76.703,26.3092453 C76.438,26.3092453 76.176,26.2342453 75.922,26.0782453 C75.789,26.0042453 75.703,26.0272453 75.66,26.1452453 C75.641,26.1912453 75.684,26.2702453 75.789,26.3832453 C76.09,26.6762453 76.379,26.8912453 76.656,27.0272453 C76.93,27.1642453 77.199,27.2342453 77.465,27.2342453 C77.953,27.2342453 78.34,26.9772453 78.621,26.4612453 C78.852,26.0512453 78.996,25.5662453 79.059,25.0042453 L79.086,24.4532453 C79.086,23.8122453 79,23.2032453 78.82,22.6292453 C78.645,22.0552453 78.379,21.5042453 78.027,20.9772453" id="Fill-42" fill="#737477"></path>
                <polygon id="Fill-43" fill="#737477" points="77.84 19.0592453 76.859 17.9652453 75.848 19.0592453 76.859 20.1132453"></polygon>
                <path d="M83.215,22.2702453 C82.895,21.3592453 82.457,20.9022453 81.898,20.9022453 C81.668,20.9022453 81.438,21.0082453 81.199,21.2192453 C80.965,21.4302453 80.723,21.7462453 80.484,22.1722453 C80.258,22.5662453 80.094,22.9262453 79.984,23.2582453 C79.875,23.5862453 79.82,23.8832453 79.82,24.1522453 C79.82,24.7192453 80.117,25.0042453 80.719,25.0042453 L82.332,25.0042453 C82.176,25.9062453 81.738,26.3522453 81.02,26.3522453 C80.859,26.3522453 80.703,26.3362453 80.551,26.3012453 C80.398,26.2662453 80.242,26.2112453 80.094,26.1452453 C79.949,26.0702453 79.859,26.0742453 79.832,26.1562453 C79.805,26.2272453 79.852,26.3242453 79.977,26.4492453 C80.289,26.7272453 80.602,26.9382453 80.906,27.0742453 C81.215,27.2152453 81.516,27.2852453 81.812,27.2852453 C82.426,27.2852453 82.891,26.9572453 83.199,26.2972453 C83.328,26.0312453 83.434,25.7462453 83.504,25.4412453 C83.57,25.1372453 83.605,24.8092453 83.605,24.4532453 C83.605,23.7342453 83.477,23.0042453 83.215,22.2702453 L83.215,22.2702453 Z M81.031,23.6372453 C80.809,23.6372453 80.699,23.5662453 80.699,23.4182453 L80.742,23.2702453 C81.02,22.6522453 81.289,22.3442453 81.555,22.3442453 C81.766,22.3442453 81.957,22.5042453 82.133,22.8282453 C82.188,22.9572453 82.238,23.0902453 82.277,23.2232453 C82.316,23.3592453 82.34,23.4962453 82.348,23.6372453 L81.031,23.6372453 Z" id="Fill-44" fill="#737477"></path>
            </g>
        </g>
    </g>
</svg>