<?xml version="1.0" encoding="UTF-8"?>
<svg width="95px" height="29px" viewBox="0 0 95 29" version="1.1" xmlns="http://www.w3.org/2000/svg" xmlns:xlink="http://www.w3.org/1999/xlink">
    <title>insulet</title>
    <g id="Page-1" stroke="none" stroke-width="1" fill="none" fill-rule="evenodd">
        <g id="Artboard" transform="translate(-703, -638)" fill="#707174">
            <g id="insulet" transform="translate(703, 638)">
                <path d="M0,0.074 C0.41,0.031 0.73,0 0.961,0 C1.738,0 2.332,0.215 2.758,0.641 C3.188,1.066 3.398,1.66 3.398,2.438 L3.398,27.758 L0,27.758 L0,0.074 Z" id="Fill-1"></path>
                <path d="M6.965,9.512 C7.195,9.48 7.422,9.465 7.621,9.465 C8.32,9.465 8.887,9.633 9.328,9.969 C9.77,10.305 10.031,10.793 10.105,11.434 C10.824,10.715 11.707,10.152 12.758,9.754 C13.797,9.359 14.922,9.16 16.141,9.16 C17.711,9.16 18.992,9.512 19.984,10.199 C20.977,10.898 21.645,11.906 21.98,13.215 C22.164,13.918 22.254,15.09 22.254,16.77 L22.254,27.742 L18.977,27.742 L18.977,16.891 C18.977,15.625 18.902,14.742 18.75,14.223 C18.535,13.504 18.141,12.973 17.547,12.637 C16.949,12.301 16.141,12.133 15.105,12.133 C14.176,12.133 13.352,12.254 12.621,12.516 C11.891,12.773 11.312,13.109 10.898,13.535 C10.488,13.961 10.273,14.406 10.273,14.863 L10.273,27.758 L6.996,27.758 L6.996,9.512 L6.965,9.512 Z" id="Fill-2"></path>
                <path d="M36.324,13.84 C35.836,13.246 35.168,12.758 34.312,12.395 C33.457,12.027 32.605,11.828 31.723,11.828 C30.668,11.828 29.832,12.027 29.207,12.422 C28.582,12.82 28.277,13.398 28.277,14.145 C28.277,14.559 28.383,14.922 28.613,15.242 C28.824,15.562 29.191,15.852 29.707,16.098 C30.227,16.34 31.02,16.602 32.102,16.844 C33.598,17.211 34.754,17.637 35.594,18.125 C36.434,18.613 37.039,19.223 37.453,19.953 C37.852,20.684 38.047,21.555 38.047,22.559 C38.047,24.281 37.391,25.668 36.082,26.707 C34.77,27.742 33.062,28.277 30.977,28.277 C29.25,28.277 27.836,28.031 26.723,27.543 C25.562,27.086 24.984,26.539 24.984,25.93 C24.984,25.668 25.043,25.379 25.184,25.059 C25.305,24.738 25.562,24.266 25.957,23.641 C26.676,24.266 27.5,24.738 28.398,25.09 C29.297,25.441 30.195,25.609 31.098,25.609 C32.285,25.609 33.199,25.363 33.84,24.891 C34.48,24.418 34.801,23.734 34.801,22.82 C34.801,22.027 34.512,21.387 33.945,20.914 C33.383,20.441 32.332,20.031 30.777,19.695 C28.75,19.25 27.285,18.613 26.387,17.742 C25.5,16.875 25.059,15.746 25.059,14.328 C25.059,12.758 25.684,11.508 26.918,10.562 C28.152,9.617 29.723,9.145 31.629,9.145 C32.559,9.145 33.43,9.238 34.25,9.434 C35.074,9.633 35.746,9.879 36.266,10.184 C37.133,10.668 37.574,11.172 37.574,11.691 C37.574,12.227 37.332,12.926 36.844,13.781 L36.324,13.84 Z" id="Fill-3"></path>
                <path d="M40.883,9.406 C41.113,9.375 41.34,9.359 41.582,9.359 C43.305,9.359 44.176,10.227 44.176,11.98 L44.176,20.988 C44.176,22.117 44.25,22.957 44.402,23.504 C44.555,24.039 44.844,24.465 45.258,24.738 C45.625,25 46.004,25.184 46.43,25.305 C46.859,25.426 47.406,25.473 48.078,25.473 C48.93,25.473 49.707,25.32 50.41,25.027 C51.109,24.738 51.691,24.359 52.133,23.934 C52.574,23.488 52.789,23.078 52.789,22.695 L52.789,9.406 C53.016,9.375 53.246,9.359 53.488,9.359 C55.211,9.359 56.082,10.227 56.082,11.98 L56.082,27.758 L52.801,27.758 L52.801,26.051 C51.492,27.574 49.57,28.336 47.039,28.336 C46.004,28.336 45.105,28.215 44.312,27.957 C43.52,27.695 42.879,27.301 42.375,26.781 C41.875,26.25 41.508,25.578 41.25,24.738 C41.004,23.902 40.883,22.668 40.883,21.004 L40.883,9.406 Z" id="Fill-4"></path>
                <path d="M59.434,1.844 C59.664,1.812 59.891,1.797 60.137,1.797 C61.859,1.797 62.727,2.668 62.727,4.422 L62.727,24.113 C62.727,24.832 62.773,25.32 62.879,25.578 C62.984,25.836 63.168,26.02 63.43,26.141 C63.688,26.266 64.066,26.309 64.586,26.309 L64.586,27.695 C64.055,27.879 63.336,27.973 62.469,27.973 C61.766,27.973 61.203,27.848 60.762,27.621 C60.316,27.391 59.996,27.027 59.77,26.523 C59.555,26.02 59.434,25.184 59.434,23.992 L59.434,1.844 Z" id="Fill-5"></path>
                <path d="M69.633,19.281 C69.707,21.293 70.227,22.832 71.203,23.918 C72.16,25 73.551,25.531 75.348,25.531 C77.48,25.531 79.191,24.801 80.453,23.336 C80.758,23.719 81.02,24.113 81.23,24.512 C81.445,24.906 81.535,25.227 81.535,25.457 C81.535,25.898 81.246,26.324 80.684,26.77 C79.297,27.805 77.406,28.305 75.043,28.305 C72.207,28.305 70.027,27.469 68.52,25.793 C66.996,24.113 66.234,21.676 66.234,18.488 C66.234,16.539 66.582,14.863 67.301,13.461 C68,12.074 69.008,11.004 70.273,10.258 C71.551,9.512 72.969,9.129 74.539,9.129 C76.109,9.129 77.453,9.465 78.566,10.121 C79.676,10.777 80.516,11.707 81.094,12.926 C81.672,14.129 81.965,15.531 81.965,17.102 C81.965,18.109 81.918,18.824 81.84,19.27 L69.633,19.27 L69.633,19.281 Z M78.672,16.812 C78.672,13.52 77.238,11.875 74.387,11.875 C73.016,11.875 71.918,12.316 71.066,13.199 C70.211,14.086 69.738,15.289 69.633,16.812 L78.672,16.812 Z" id="Fill-6"></path>
                <path d="M84.844,4.023 C85.074,3.992 85.301,3.977 85.547,3.977 C87.27,3.977 88.137,4.848 88.137,6.602 L88.137,9.57 L93.898,9.57 L93.898,12.363 L88.137,12.363 L88.137,22.332 C88.137,24.449 88.977,25.504 90.652,25.504 C91.094,25.504 91.52,25.41 91.949,25.227 C92.375,25.047 92.77,24.816 93.121,24.527 C93.488,24.238 93.73,24.008 93.852,23.824 C94.602,24.754 94.98,25.473 94.98,25.988 C94.98,26.355 94.738,26.723 94.25,27.102 C93.762,27.484 93.168,27.789 92.449,27.988 C91.734,28.199 90.973,28.293 90.148,28.293 C87.574,28.293 85.941,27.332 85.242,25.395 C84.98,24.68 84.859,23.566 84.859,22.07 L84.859,4.023 L84.844,4.023 Z" id="Fill-7"></path>
            </g>
        </g>
    </g>
</svg>