<?xml version="1.0" encoding="UTF-8"?>
<svg width="125px" height="52px" viewBox="0 0 125 52" version="1.1" xmlns="http://www.w3.org/2000/svg" xmlns:xlink="http://www.w3.org/1999/xlink">
    <title>janssen</title>
    <defs>
        <linearGradient x1="0%" y1="49.9974348%" x2="100%" y2="49.9974348%" id="linearGradient-1">
            <stop stop-color="#B3B5B8" offset="0%"></stop>
            <stop stop-color="#B3B5B8" offset="20%"></stop>
            <stop stop-color="#3C3B3D" offset="87.3%"></stop>
            <stop stop-color="#3C3B3D" offset="90%"></stop>
            <stop stop-color="#3C3B3D" offset="100%"></stop>
        </linearGradient>
    </defs>
    <g id="Page-1" stroke="none" stroke-width="1" fill="none" fill-rule="evenodd">
        <g id="Artboard" transform="translate(-479, -1249)" fill-rule="nonzero">
            <g id="janssen" transform="translate(479, 1249)">
                <path d="M86.0135384,51.9785367 C86.6855367,47.5025479 93.5561862,42.6492267 100.917501,41.5318962 C109.157481,40.2838993 114.276134,41.2598968 114.276134,41.2598968 C114.276134,41.2598968 113.101471,45.5905527 109.693479,45.6092193 C104.297493,45.6305526 100.500169,46.1758846 100.500169,46.1758846 C88.9961976,47.9158802 86.0135384,51.9785367 86.0135384,51.9785367 Z M104.956158,26.3399341 C104.956158,14.7386298 100.14417,6.03465158 93.7561857,-1.62714286e-12 L95.8601804,-1.62714286e-12 C105.924155,3.87332365 113.26947,15.6266276 113.26947,28.1865962 C113.28147,29.3119267 113.260137,30.4479239 113.21347,31.4519214 L122.200115,34.5199137 C123.337445,34.9145794 124.062777,35.5345778 124.066777,36.6212418 L124.07211,37.7305723 C119.214789,37.8212388 101.604166,38.4025707 101.604166,38.4025707 C103.252162,35.8092438 104.956158,31.3585883 104.956158,26.3399341" id="Shape" fill="url(#linearGradient-1)" transform="translate(105.0428, 25.9893) scale(-1, 1) rotate(-180) translate(-105.0428, -25.9893)"></path>
                <path d="M0,22.4441217 L0,24.057451 C1.58266271,24.6414495 2.74932646,26.057446 2.74932646,29.3081045 L2.74932646,43.5880688 L5.19598701,43.5880688 L5.19598701,29.4721041 C5.19598701,25.1667816 2.66532667,22.7494543 0,22.4441217 M14.2519644,28.3347736 C10.3626408,28.3347736 8.55597861,30.0281027 8.55597861,32.7507626 C8.55597861,36.7267527 12.2799693,37.8920831 16.917291,38.3627486 L16.917291,39.2800796 C16.917291,41.5867405 15.5292945,42.2534055 13.6132993,42.2534055 C12.1666363,42.2534055 10.8346396,41.7254068 10.0013083,41.3094079 L9.41730979,42.7547376 C10.278641,43.2280697 11.9453035,43.8654015 14.0012983,43.8654015 C16.779958,43.8654015 19.2239519,42.6707378 19.2239519,39.0054136 L19.2239519,29.3894377 C18.0852881,28.7494393 16.3346258,28.3347736 14.2519644,28.3347736 M16.917291,37.1134184 C13.1399671,36.6414195 10.8893061,35.8360882 10.8893061,32.8080958 C10.8893061,30.6401012 12.2226361,29.7521034 14.4479639,29.7521034 C15.3906282,29.7521034 16.3079592,29.9187697 16.917291,30.2521034 L16.917291,37.1134184 Z M31.587921,28.6121063 L31.587921,39.3640794 C31.587921,40.7520759 31.0039225,42.2840721 28.4479289,42.2840721 C27.0572657,42.2840721 26.391934,42.0867393 25.6146026,41.7534068 L25.6146026,28.6121063 L23.1692754,28.6121063 L23.1692754,42.8080708 C24.4999388,43.4494025 26.2532677,43.8654015 28.6425951,43.8654015 C32.8092513,43.8654015 34.0332482,41.5600739 34.0332482,39.4187459 L34.0332482,28.6121063 L31.587921,28.6121063 Z M40.8932311,28.3921068 C39.2812351,28.3921068 37.866572,28.8094391 37.0599074,29.4174376 L37.7265724,31.0307669 C38.254571,30.5854347 39.3092351,30.1401025 40.6438984,30.1401025 C42.3092276,30.1401025 43.4212248,31.2814329 43.4212248,32.7254293 C43.4212248,34.2800921 42.5865602,34.9734237 40.949231,35.5840889 C38.0319049,36.6707528 37.4479064,38.2254156 37.4479064,39.782745 C37.4479064,42.0040728 39.1985687,43.8947347 41.9212285,43.8947347 C43.4492247,43.8947347 44.6438884,43.3920693 45.4212198,42.8667373 L44.783888,41.3960743 C44.0580856,41.9287079 43.1828085,42.2189117 42.282561,42.2254056 C40.6438984,42.2254056 39.7812339,41.1414083 39.7812339,39.8627448 C39.7812339,38.4187484 40.8372312,37.7240835 42.282561,37.1694182 C45.199887,36.057421 45.9225519,34.5014249 45.9225519,32.7774292 C45.9225519,30.5014349 43.9505568,28.3921068 40.8932311,28.3921068 M51.8385371,28.3921068 C50.2278744,28.3921068 48.8092113,28.8094391 48.0052133,29.4174376 L48.670545,31.0307669 C49.199877,30.5854347 50.254541,30.1401025 51.5892044,30.1401025 C53.2545335,30.1401025 54.3678641,31.2814329 54.3678641,32.7254293 C54.3678641,34.2800921 53.5318662,34.9734237 51.8945369,35.5840889 C48.9772109,36.6707528 48.3945457,38.2254156 48.3945457,39.782745 C48.3945457,42.0040728 50.1438746,43.8947347 52.8665345,43.8947347 C54.3945307,43.8947347 55.5905277,43.3920693 56.3678591,42.8667373 L55.7278607,41.3960743 C55.2838618,41.7254068 54.3945307,42.2254056 53.2278669,42.2254056 C51.5892044,42.2254056 50.7278732,41.1414083 50.7278732,39.8627448 C50.7278732,38.4187484 51.7838705,37.7240835 53.2278669,37.1694182 C56.1465263,36.057421 56.8665245,34.5014249 56.8665245,32.7774292 C56.8665245,30.5014349 54.8958628,28.3921068 51.8385371,28.3921068 M61.8678453,35.1694232 C62.145178,31.7800984 63.7305073,30.1121025 66.4251673,30.1121025 C68.121163,30.1121025 69.34116,30.5281015 70.121158,30.9734337 L70.7598231,29.3614377 C69.8438254,28.8094391 68.2571627,28.3347736 66.2291678,28.3347736 C62.3118442,28.3347736 59.5625178,30.8067675 59.5625178,36.1427541 C59.5625178,41.2240748 62.0651782,43.8654015 65.5905027,43.8654015 C69.1758271,43.8654015 71.3438216,41.5307407 71.2878218,36.5320865 L61.8678453,35.1694232 Z M65.5078362,42.2840721 C63.3425083,42.2840721 61.7278457,40.5294098 61.7865122,36.4720866 L68.9544943,37.5600839 C68.9544943,40.9494088 67.6478309,42.2840721 65.5078362,42.2840721 M83.066459,28.6121063 L83.066459,39.3640794 C83.066459,40.7520759 82.4824605,42.2840721 79.9278002,42.2840721 C78.5384703,42.2840721 77.8718053,42.0867393 77.0931406,41.7534068 L77.0931406,28.6121063 L74.6478134,28.6121063 L74.6478134,42.8080708 C75.9824767,43.4494025 77.7318057,43.8654015 80.121133,43.8654015 C84.2877893,43.8654015 85.5104529,41.5600739 85.5104529,39.4187459 L85.5104529,28.6121063 L83.066459,28.6121063 Z" id="Shape" fill="#3D3C3E" transform="translate(42.7552, 33.1694) scale(-1, 1) rotate(-180) translate(-42.7552, -33.1694)"></path>
            </g>
        </g>
    </g>
</svg>