<?xml version="1.0" encoding="UTF-8"?>
<svg width="104px" height="28px" viewBox="0 0 104 28" version="1.1" xmlns="http://www.w3.org/2000/svg" xmlns:xlink="http://www.w3.org/1999/xlink">
    <title>msd</title>
    <g id="Page-1" stroke="none" stroke-width="1" fill="none" fill-rule="evenodd">
        <g id="Artboard" transform="translate(-490, -913)">
            <g id="msd" transform="translate(490, 913)">
                <polygon id="Fill-1" fill="#231F20" points="45.227 22.797 46.071 22.797 46.071 27.106 45.227 27.106"></polygon>
                <polygon id="Fill-2" fill="#231F20" points="49.68 27.105 47.973 24.461 47.973 27.105 47.133 27.105 47.133 22.797 47.883 22.797 49.59 25.438 49.59 22.797 50.43 22.797 50.43 27.105"></polygon>
                <polygon id="Fill-3" fill="#231F20" points="53.062 27.105 52.434 27.105 51.012 22.797 51.883 22.797 52.75 25.605 53.613 22.797 54.492 22.797"></polygon>
                <polygon id="Fill-4" fill="#231F20" points="55.074 27.105 55.074 22.797 57.91 22.797 57.91 23.547 55.914 23.547 55.914 24.559 57.613 24.559 57.613 25.309 55.914 25.309 55.914 26.355 57.91 26.355 57.91 27.105"></polygon>
                <polygon id="Fill-5" fill="#231F20" points="61.34 27.105 59.637 24.461 59.637 27.105 58.793 27.105 58.793 22.797 59.543 22.797 61.25 25.438 61.25 22.797 62.09 22.797 62.09 27.105"></polygon>
                <polygon id="Fill-6" fill="#231F20" points="64.801 23.547 64.801 27.109 63.961 27.109 63.961 23.547 62.836 23.547 62.836 22.797 65.926 22.797 65.926 23.547"></polygon>
                <polygon id="Fill-7" fill="#231F20" points="66.672 22.797 67.512 22.797 67.512 27.106 66.672 27.106"></polygon>
                <polygon id="Fill-8" fill="#231F20" points="71.125 27.105 69.418 24.461 69.418 27.105 68.578 27.105 68.578 22.797 69.328 22.797 71.035 25.438 71.035 22.797 71.875 22.797 71.875 27.105"></polygon>
                <path d="M75.598,26.652 C75.238,27.027 74.84,27.145 74.379,27.145 C73.891,27.145 73.527,26.98 73.23,26.691 C72.801,26.262 72.793,25.777 72.793,24.953 C72.793,24.129 72.801,23.645 73.23,23.215 C73.527,22.926 73.891,22.762 74.379,22.762 C75.383,22.762 75.887,23.418 76,24.141 L75.156,24.141 C75.059,23.73 74.809,23.512 74.379,23.512 C74.152,23.512 73.969,23.602 73.84,23.742 C73.684,23.926 73.637,24.129 73.637,24.953 C73.637,25.777 73.684,25.988 73.84,26.172 C73.969,26.309 74.152,26.395 74.379,26.395 C74.641,26.395 74.848,26.301 74.98,26.152 C75.117,25.996 75.172,25.801 75.172,25.578 L75.172,25.418 L74.379,25.418 L74.379,24.711 L76.008,24.711 L76.008,25.34 C76.008,25.965 75.91,26.328 75.598,26.652" id="Fill-9" fill="#231F20"></path>
                <polygon id="Fill-10" fill="#231F20" points="79.02 23.09 79.02 24.863 80.969 24.863 80.969 25.152 79.02 25.152 79.02 27.109 78.695 27.109 78.695 22.797 81.309 22.797 81.309 23.09"></polygon>
                <path d="M84.473,26.73 C84.219,26.988 83.855,27.145 83.426,27.145 C82.996,27.145 82.633,26.988 82.379,26.73 C81.98,26.332 81.949,26 81.949,24.953 C81.949,23.906 81.98,23.574 82.379,23.172 C82.633,22.918 82.996,22.762 83.426,22.762 C83.855,22.762 84.219,22.918 84.473,23.172 C84.871,23.574 84.902,23.906 84.902,24.953 C84.902,26 84.871,26.332 84.473,26.73 M84.242,23.387 C84.02,23.164 83.742,23.051 83.426,23.051 C83.113,23.051 82.832,23.164 82.609,23.387 C82.301,23.695 82.277,24.043 82.277,24.953 C82.277,25.859 82.301,26.211 82.609,26.52 C82.832,26.746 83.113,26.852 83.426,26.852 C83.742,26.852 84.02,26.746 84.242,26.52 C84.551,26.211 84.574,25.859 84.574,24.953 C84.574,24.043 84.551,23.695 84.242,23.387" id="Fill-11" fill="#231F20"></path>
                <path d="M88.664,27.105 L87.637,25.125 L86.449,25.125 L86.449,27.105 L86.125,27.105 L86.125,22.797 L87.766,22.797 C88.465,22.797 89,23.203 89,23.957 C89,24.602 88.609,25.012 88.008,25.117 L89.047,27.105 L88.664,27.105 Z M87.723,23.09 L86.449,23.09 L86.449,24.832 L87.723,24.832 C88.277,24.832 88.672,24.559 88.672,23.961 C88.672,23.359 88.277,23.09 87.723,23.09 L87.723,23.09 Z" id="Fill-12" fill="#231F20"></path>
                <polygon id="Fill-13" fill="#231F20" points="91.762 27.105 91.762 22.797 92.09 22.797 92.09 26.816 94.379 26.816 94.379 27.105"></polygon>
                <polygon id="Fill-14" fill="#231F20" points="95.285 22.797 95.613 22.797 95.613 27.106 95.285 27.106"></polygon>
                <polygon id="Fill-15" fill="#231F20" points="97.328 23.09 97.328 24.863 99.277 24.863 99.277 25.152 97.328 25.152 97.328 27.109 97.004 27.109 97.004 22.797 99.617 22.797 99.617 23.09"></polygon>
                <polygon id="Fill-16" fill="#231F20" points="100.551 27.105 100.551 22.797 103.164 22.797 103.164 23.09 100.875 23.09 100.875 24.789 102.824 24.789 102.824 25.082 100.875 25.082 100.875 26.816 103.164 26.816 103.164 27.105"></polygon>
                <polygon id="Fill-17" fill="#231F20" points="40.066 6.164 43.887 6.164 43.887 18.488 41.055 18.488 41.055 10.199 37.434 18.488 33.625 10.188 33.625 18.488 30.984 18.488 30.984 6.164 34.758 6.164 37.48 12.543"></polygon>
                <path d="M53.953,9.801 C53.953,7.367 52.086,5.953 49.848,5.953 C47.629,5.953 45.211,7.25 45.211,9.777 C45.211,11.965 47.617,13.09 48.992,13.445 C49.746,13.645 51.652,13.855 51.652,15.219 C51.652,16.512 50.32,16.863 49.324,16.863 C48.039,16.863 47.289,15.965 47.398,14.605 L44.871,14.605 C44.785,17.672 46.867,18.812 49.305,18.867 C52.117,18.934 54.266,17.73 54.266,15.023 C54.266,12.297 51.828,11.867 49.922,11.25 C49.184,11.012 47.82,10.797 47.82,9.539 C47.82,8.488 48.727,7.984 49.656,7.984 C50.852,7.984 51.473,8.574 51.562,9.801 L53.953,9.801 Z" id="Fill-18" fill="#231F20"></path>
                <path d="M59.281,6.148 L55.355,6.148 L55.355,18.461 L59.281,18.461 C62.547,18.461 65.859,16.578 65.859,12.316 C65.859,8.059 62.547,6.148 59.281,6.148 M59.102,16.223 L58.016,16.223 L58.016,8.414 L59.102,8.414 C62.098,8.414 63.176,10.363 63.176,12.316 C63.176,14.27 62.098,16.223 59.102,16.223" id="Fill-19" fill="#231F20"></path>
                <path d="M6.164,6.164 C6.164,2.758 8.922,0 12.324,0 C15.73,0 18.488,2.758 18.488,6.164 L6.164,6.164 Z" id="Fill-20" fill="#919396"></path>
                <path d="M6.164,18.488 C6.164,15.086 8.922,12.324 12.324,12.324 C8.922,12.324 6.164,9.566 6.164,6.164 C2.762,6.164 0,8.922 0,12.324 C0,15.73 2.762,18.488 6.164,18.488" id="Fill-21" fill="#919396"></path>
                <path d="M6.164,18.488 C6.164,21.891 8.922,24.652 12.324,24.652 C15.73,24.652 18.488,21.891 18.488,18.488 L6.164,18.488 Z" id="Fill-22" fill="#919396"></path>
                <path d="M12.324,12.324 C15.73,12.324 18.488,15.086 18.488,18.488 C21.891,18.488 24.652,15.73 24.652,12.324 C24.652,8.922 21.891,6.164 18.488,6.164 C18.488,9.566 15.73,12.324 12.324,12.324" id="Fill-23" fill="#919396"></path>
            </g>
        </g>
    </g>
</svg>