<svg width="150px" height="25px" viewBox="0 0 150 25" version="1.1" xmlns="http://www.w3.org/2000/svg" xmlns:xlink="http://www.w3.org/1999/xlink">
    <title>novartis</title>
    <defs>
        <linearGradient x1="4.3739165e-14%" y1="50%" x2="99.9938443%" y2="50%" id="linearGradient-1">
            <stop stop-color="#8A8C8E" offset="0%"></stop>
            <stop stop-color="#8A8C8E" offset="30%"></stop>
            <stop stop-color="#8A8C8E" offset="31.4%"></stop>
            <stop stop-color="#B2B4B6" offset="70%"></stop>
            <stop stop-color="#B2B4B6" offset="100%"></stop>
        </linearGradient>
    </defs>
    <g id="Page-1" stroke="none" stroke-width="1" fill="none" fill-rule="evenodd">
        <g id="Artboard" transform="translate(-467, -1077)" fill-rule="nonzero">
            <g id="novartis" transform="translate(467, 1077)">
                <path d="M1.79199552,24.5526399 C2.81199297,23.4593093 3.15332545,22.3979786 3.15332545,21.2739814 C3.15332545,17.4966575 0,14.8113309 0,10.4726751 C0,6.47401841 2.76532642,2.40469525 10.7666398,2.40469525 C17.8972886,2.40469525 21.6599458,5.93268643 21.6599458,9.69001037 C21.6599458,12.9060023 19.3719516,15.6326622 14.9559626,16.0606611 L14.8946294,15.9046615 C15.9119602,15.453996 18.1826212,13.6673338 18.1826212,10.0740094 C18.1826212,6.69001787 15.3599616,3.27669307 10.9199727,3.27669307 C5.39731984,3.27669307 3.49199127,6.53801825 3.49199127,9.53401076 C3.49199127,13.3766678 6.14931796,15.9353281 6.14931796,19.4326527 C6.14931796,21.8673133 4.32532252,24.2699739 1.88532862,24.7086395 L1.79199552,24.5526399 Z" id="Path" fill="url(#linearGradient-1)" transform="translate(10.83, 13.5567) scale(-1, 1) rotate(-180) translate(-10.83, -13.5567)"></path>
                <path d="M46.2935121,0.21866612 L36.8122025,12.5719686 L36.8122025,1.4399964 L38.7468643,0.97199757 L38.7468643,0.44799888 L34.3362087,0.44799888 L34.3362087,0.97199757 L35.9148714,1.4399964 L35.9148714,13.5666327 C35.7575385,13.7146324 35.1642066,14.2106311 34.5508748,14.3452975 C34.3602086,14.3866307 34.0975426,14.4292973 34.0975426,14.4292973 L34.0975426,14.9532959 L37.8388666,14.9532959 L45.9588463,4.31465588 L45.9588463,13.9599651 L44.0241845,14.4279639 L44.0241845,14.9532959 L48.4348401,14.9532959 L48.4348401,14.4279639 L46.8548441,13.9599651 L46.8548441,2.91599271 C46.8548441,1.90932856 46.9268439,0.40799898 46.9401772,0.21866612 L46.2935121,0.21866612 Z M66.1187959,8.08264646 C66.1187959,2.94932596 62.5934714,-1.20792265e-13 58.7014811,-1.20792265e-13 C54.7668243,-1.20792265e-13 51.2854996,3.01465913 51.2854996,7.69064744 C51.2854996,12.4093023 54.8094908,15.4012948 58.6801478,15.4012948 C63.4374693,15.4012948 66.1187959,11.6653042 66.1187959,8.08264646 M63.6534687,7.31731504 C63.6534687,11.0759723 61.4254743,14.7239632 58.3988152,14.7239632 C55.1774899,14.7239632 53.7281602,11.5786377 53.7281602,8.2133128 C53.7281602,4.87065449 55.5668223,0.67733164 59.0254803,0.67733164 C62.2694722,0.67733164 63.6534687,3.99732334 63.6534687,7.31731504 M69.1841216,13.9599651 L67.6721253,14.4292973 L67.6721253,14.9532959 L73.4894441,14.9532959 L73.4894441,14.4292973 L71.6681154,13.9612984 L75.6854386,2.90265941 L75.7067719,2.90265941 L79.7227619,13.9599651 L77.9014331,14.4279639 L77.9014331,14.9532959 L82.2054223,14.9532959 L82.2054223,14.4279639 L80.7080928,13.9599651 L75.6174388,0.1866662 L74.329442,0.1866662 L69.1841216,13.9599651 Z M103.552036,7.85464703 L102.630705,7.85464703 L102.630705,14.1906312 C105.690697,14.1906312 107.473359,13.4866329 107.473359,10.9773059 C107.473359,9.11597721 105.88003,7.85464703 103.552036,7.85464703 M129.577304,0.97199757 L131.589299,1.4399964 L131.589299,13.9612984 L129.577304,14.4279639 L129.577304,14.953296 L135.893288,14.953296 L135.893288,14.4292973 L133.87996,13.9612984 L133.87996,1.4399964 L135.893288,0.97199757 L135.893288,0.44799888 L129.577304,0.44799888 L129.577304,0.97199757 Z M139.757278,4.44132223 L140.155944,4.44132223 L141.497274,1.32133003 C141.898606,1.1199972 142.902604,0.67733164 144.065268,0.67733164 C145.80393,0.67733164 147.397259,1.72532902 147.397259,3.53199117 C147.397259,4.92265436 146.507928,5.75331895 145.061265,6.51331705 L143.634602,7.26131518 C141.926606,8.15864627 140.223944,9.4266431 140.223944,11.4679713 C140.223944,13.6852991 141.766607,15.4012948 144.994599,15.4012948 C146.137198,15.3889016 147.27102,15.2000063 148.355924,14.8412962 L148.694589,11.4853046 L148.262591,11.4853046 L147.019927,14.1759646 C146.789261,14.2959643 146.042596,14.7252965 144.941266,14.7252965 C143.29727,14.7252965 142.174606,13.6999657 142.174606,12.2839693 C142.174606,10.9986392 143.02127,10.1906412 144.4666,9.43464308 L146.159929,8.5466453 C148.46659,7.33864832 149.562587,6.22131778 149.562587,4.1466563 C149.562587,1.58799603 147.18926,-1.20792265e-13 144.239934,-1.20792265e-13 C141.982606,-1.20792265e-13 140.599943,0.47066549 140.141278,0.61733179 L139.757278,4.44132223 Z M81.2360914,0.97199757 L82.8614207,1.4399964 L87.8787415,14.9559626 L89.5560706,15.3906282 L94.7360577,1.44132973 L96.361387,0.97199757 L96.361387,0.44799888 L90.2134023,0.44799888 L90.2134023,0.97199757 L92.2920638,1.44132973 L90.8240675,5.45065304 L85.3080813,5.45065304 L83.8480849,1.4399964 L85.929413,0.97199757 L85.929413,0.44799888 L81.2360914,0.44799888 L81.2360914,0.97199757 Z M85.6814137,6.52131703 L90.4560684,6.52131703 L88.0854076,12.9866342 L88.0640744,12.9866342 L85.6814137,6.52131703 Z M106.441362,7.53998115 C106.936027,7.66798083 109.78802,8.40131233 109.78802,11.1426388 C109.78802,13.3279667 108.130691,15.0199624 104.053368,15.0199624 C101.533374,15.0199624 98.9827137,14.9612959 98.6733812,14.9546293 L98.6733812,14.4306306 L100.337377,13.9599651 L100.337377,1.44132973 L98.6733812,0.97199757 L98.6733812,0.44933221 L104.565366,0.44933221 L104.565366,0.97066424 L102.630705,1.44132973 L102.630705,7.09998225 L104.2947,7.09998225 L108.55469,0.44933221 L112.324014,0.44933221 L112.324014,0.95066429 L110.416018,1.44132973 L106.441362,7.53998115 Z M118.882664,14.1892979 L118.882664,1.4399964 L116.872002,0.97199757 L116.872002,0.44799888 L123.18532,0.44799888 L123.18532,0.97199757 L121.174658,1.4399964 L121.174658,14.1892979 L124.579983,14.1892979 L125.69998,11.7679706 L126.133313,11.7679706 L125.809313,14.953296 L114.248009,14.953296 L113.925343,11.7679706 L114.357342,11.7679706 L115.473339,14.1892979 L118.882664,14.1892979 Z M10.8602674,4.9599876 L12.8695957,24.2852726 L8.66693952,24.2852726 L10.6749345,4.9599876 L10.8602674,4.9599876 Z" id="Shape" fill="#7A7B7E" transform="translate(79.1148, 12.1426) scale(-1, 1) rotate(-180) translate(-79.1148, -12.1426)"></path>
            </g>
        </g>
    </g>
</svg>