<svg width="68px" height="48px" viewBox="0 0 68 48" version="1.1" xmlns="http://www.w3.org/2000/svg" xmlns:xlink="http://www.w3.org/1999/xlink">
    <title>novo</title>
    <g id="Page-1" stroke="none" stroke-width="1" fill="none" fill-rule="evenodd">
        <g id="Artboard" transform="translate(-508, -788)">
            <g id="novo" transform="translate(508, 788)">
                <path d="M24.031,10.195 C24.336,9.992 24.559,9.809 24.68,9.715 C25.266,9.242 25.461,9.508 24.938,10.363 C24.25,11.477 23.148,12.172 21.828,12.832 C21.562,12.965 21.258,13.09 21.859,13.375 C22.367,13.613 23.617,14.121 24.715,14.434 C25.352,14.609 29.629,16.102 33.703,16.09 C36.66,16.074 39.312,15.695 40.832,15.566 C41.98,15.469 44.465,15.25 45.703,17.473 C46.734,19.332 46.52,25.133 46.57,26.457 C46.605,27.406 46.57,35.16 46.562,35.84 C46.559,36.297 46.523,36.645 46.184,36.684 C45.871,36.719 44.977,36.703 44.812,36.703 C44.715,36.703 44.383,36.699 44.094,36.699 C43.59,36.699 43.602,36.934 43.602,37.066 C43.602,37.355 43.711,37.672 43.066,37.699 C42.621,37.711 41.184,37.699 41,37.699 C40.688,37.699 40.516,37.309 40.789,36.816 C43.422,32.07 43.23,28.457 41.676,26.441 C41.57,26.809 41.473,27.117 41.395,27.535 C41.195,28.633 40.965,29.117 40.723,29.312 C37.965,31.543 36.641,34.84 35.996,36.559 C35.863,36.922 35.598,36.785 35.477,36.941 C35.277,37.199 35.703,37.668 34.891,37.691 C34.562,37.707 32.969,37.699 32.652,37.703 C32.277,37.703 32.066,37.242 32.441,36.785 C33.289,35.746 38.121,31.18 37.883,26.426 C37.867,26.227 37.734,25.215 37.531,25.023 C37.488,24.98 36.684,24.281 34.941,25.715 C34.746,25.879 34.719,25.816 34.469,25.676 C34.199,25.523 32.094,24.766 30.551,25.227 C29.578,25.516 28.426,26.719 28.867,28.633 C29.484,31.332 30.867,33.648 31.402,36.375 C31.469,36.863 31.129,36.742 30.984,36.926 C30.789,37.18 31.207,37.688 30.355,37.691 C30.09,37.691 28.211,37.691 28.211,37.691 C27.809,37.707 27.594,37.523 27.859,36.688 C27.938,36.441 28.008,36.031 28.109,35.156 C28.199,34.352 28.109,33.512 27.957,32.566 C27.457,29.477 25.781,27.957 24.379,27.043 C23.43,27.645 21.906,32.301 21.469,35.43 C21.398,35.938 21.391,36.051 21.383,36.184 C21.32,36.965 20.855,36.684 20.727,36.906 C20.543,37.219 20.906,37.699 20.059,37.699 C19.047,37.699 18.5,37.703 18.035,37.699 C17.625,37.691 17.562,37.242 17.867,36.695 C19.152,34.387 21.176,30.82 21.137,26.973 C21.133,26.527 21.137,25.203 20.52,24.469 C19.141,22.82 18.367,20.84 17.66,19.566 C17.172,18.691 16.457,18.488 15.984,18.34 C15.512,18.191 15.109,18.402 14.582,18.102 C14.434,18.02 14.051,17.512 13.699,17.121 C13.402,16.797 13.191,16.328 13.539,15.887 C14.152,15.117 14.656,14.609 14.73,14.117 C14.746,14 14.727,13.746 14.77,13.629 C14.91,13.238 15.43,12.617 15.809,12.156 C15.992,11.934 15.84,11.551 15.508,11.168 C15.176,10.781 14.188,9.426 14.188,7.191 C14.188,6.305 14.5,6.348 14.715,6.953 C14.938,7.559 15.879,10.195 18.699,10.945 C21.34,11.652 23.074,10.891 24.031,10.195 M44.555,19.141 C44.543,19.285 44.594,20.184 44.441,21.75 C44.344,22.723 44.098,23.469 44.246,24.219 C44.391,24.973 44.785,27.371 44.965,27.594 C45.121,27.785 45.344,27.645 45.34,27.461 C45.34,27.328 45.582,20.918 45.016,19.324 C44.82,18.793 44.59,18.758 44.555,19.141" id="Fill-1" fill="#231F20"></path>
                <path d="M31.93,46.664 L31.93,42.324 C31.93,41.586 31.918,40.254 29.395,40.254 C28.438,40.254 27.785,40.441 27.43,40.555 C27.008,40.691 26.867,40.855 26.867,41.07 L26.867,46.676 C26.867,46.891 26.93,46.914 27.109,46.914 L27.723,46.914 C27.895,46.914 27.988,46.891 27.988,46.664 L27.988,41.512 C27.988,41.223 28.461,40.934 29.344,40.934 C30.812,40.934 30.812,41.879 30.812,42.465 L30.812,46.664 C30.812,46.891 30.887,46.914 31.09,46.914 L31.781,46.914 C31.918,46.891 31.93,46.773 31.93,46.664" id="Fill-2" fill="#231F20"></path>
                <path d="M38.582,43.684 C38.582,42.176 38.105,41.211 37.379,40.719 C36.922,40.41 36.316,40.254 35.738,40.254 C35.164,40.254 34.559,40.41 34.105,40.719 C33.379,41.211 32.902,42.176 32.902,43.684 C32.902,45.18 33.379,46.148 34.105,46.637 C34.559,46.953 35.164,47.102 35.738,47.102 C36.316,47.102 36.922,46.953 37.379,46.637 C38.105,46.148 38.582,45.18 38.582,43.684 M37.426,43.684 C37.426,44.867 37.184,45.629 36.836,45.961 C36.496,46.289 36.18,46.371 35.738,46.371 C35.301,46.371 34.984,46.289 34.648,45.961 C34.293,45.629 34.055,44.867 34.055,43.684 C34.055,42.492 34.293,41.727 34.648,41.398 C34.984,41.07 35.301,40.984 35.738,40.984 C36.18,40.984 36.496,41.07 36.836,41.398 C37.184,41.727 37.426,42.492 37.426,43.684" id="Fill-3" fill="#231F20"></path>
                <path d="M43.062,40.906 C43.062,40.457 42.293,40.254 41.43,40.254 C40.75,40.254 40.32,40.363 39.996,40.457 C39.566,40.57 39.414,40.758 39.414,40.969 L39.414,46.699 C39.414,46.902 39.492,46.914 39.668,46.914 L40.309,46.914 C40.461,46.914 40.535,46.902 40.535,46.699 L40.535,41.449 C40.535,41.105 40.797,40.883 41.176,40.883 C41.98,40.883 42.105,41.473 42.535,41.473 C42.824,41.473 43.062,41.27 43.062,40.906" id="Fill-4" fill="#231F20"></path>
                <path d="M48.59,46.223 L48.59,38.332 C48.59,38.105 48.527,38.078 48.34,38.078 L47.723,38.078 C47.512,38.078 47.484,38.156 47.484,38.355 L47.484,40.637 C47.094,40.43 46.703,40.289 46.113,40.289 C44.168,40.289 43.164,42.137 43.164,43.684 C43.164,45.977 44.43,47.105 46.344,47.105 C47.281,47.105 48.59,46.637 48.59,46.223 L48.59,46.223 Z M47.484,45.859 C47.484,46.191 46.957,46.363 46.379,46.363 C45.16,46.363 44.293,45.344 44.293,43.598 C44.293,42.078 45.121,41.059 46.277,41.059 C46.934,41.059 47.246,41.258 47.484,41.461 L47.484,45.859 Z" id="Fill-5" fill="#231F20"></path>
                <path d="M51.316,38.594 C51.305,38.219 51,37.965 50.652,37.965 C50.25,37.965 49.961,38.242 49.961,38.633 C49.961,38.984 50.215,39.281 50.637,39.281 C51.066,39.281 51.328,38.945 51.316,38.594 M51.191,46.691 L51.191,40.645 C51.191,40.441 51.145,40.402 50.941,40.402 L50.289,40.402 C50.074,40.402 50.074,40.477 50.074,40.645 L50.074,46.691 C50.074,46.863 50.074,46.914 50.262,46.914 L50.941,46.914 C51.133,46.914 51.191,46.906 51.191,46.691" id="Fill-6" fill="#231F20"></path>
                <path d="M62.344,46.777 L62.254,46.613 L59.867,43.461 L59.855,43.445 C60.684,42.832 61.566,41.852 62.094,40.797 C62.152,40.672 62.164,40.617 62.164,40.547 C62.164,40.43 62.102,40.4019698 61.938,40.4019698 L61.352,40.4019698 C61.125,40.4019698 61.023,40.395 60.961,40.594 C60.609,41.672 59.68,42.832 58.734,43.383 L58.684,43.461 L58.711,43.52 L60.949,46.727 C61.074,46.914 61.125,46.914 61.324,46.914 L62.18,46.914 C62.219,46.914 62.344,46.906 62.344,46.777 M58.512,46.727 L58.512,38.219 C58.512,38.043 58.426,38.043 58.27,38.043 L57.609,38.043 C57.465,38.043 57.395,38.066 57.395,38.242 L57.395,46.715 C57.395,46.887 57.43,46.914 57.609,46.914 L58.27,46.914 C58.449,46.914 58.512,46.914 58.512,46.727" id="Fill-7" fill="#231F20"></path>
                <path d="M56.508,45.16 C56.508,43.047 53.414,43.371 53.414,41.977 C53.414,41.5 53.793,41.012 54.5,41.012 C55.23,41.012 55.418,41.484 55.789,41.484 C55.98,41.484 56.242,41.375 56.242,41.043 C56.242,40.57 55.43,40.293 54.559,40.293 C53.414,40.293 52.414,40.906 52.414,42.078 C52.414,43.16 53.18,43.625 54.098,44.012 C54.828,44.316 55.504,44.594 55.504,45.281 C55.504,45.797 55.086,46.387 54.211,46.387 C53.328,46.387 53.074,45.734 52.652,45.734 C52.438,45.734 52.172,45.82 52.172,46.148 C52.172,46.664 53.18,47.102 54.199,47.102 C55.328,47.102 56.508,46.504 56.508,45.16" id="Fill-8" fill="#231F20"></path>
                <path d="M5.062,46.664 L5.062,42.324 C5.062,41.586 5.051,40.254 2.523,40.254 C1.57,40.254 0.914,40.441 0.562,40.555 C0.137,40.691 0,40.855 0,41.07 L0,46.676 C0,46.891 0.062,46.914 0.238,46.914 L0.852,46.914 C1.027,46.914 1.117,46.891 1.117,46.664 L1.117,41.512 C1.117,41.223 1.594,40.934 2.473,40.934 C3.945,40.934 3.945,41.879 3.945,42.465 L3.945,46.664 C3.945,46.891 4.02,46.914 4.219,46.914 L4.91,46.914 C5.051,46.891 5.062,46.773 5.062,46.664" id="Fill-9" fill="#231F20"></path>
                <path d="M11.715,43.684 C11.715,42.176 11.234,41.211 10.508,40.719 C10.051,40.41 9.449,40.254 8.871,40.254 C8.293,40.254 7.688,40.41 7.238,40.719 C6.508,41.211 6.031,42.176 6.031,43.684 C6.031,45.18 6.508,46.148 7.238,46.637 C7.688,46.953 8.293,47.102 8.871,47.102 C9.449,47.102 10.051,46.953 10.508,46.637 C11.234,46.148 11.715,45.18 11.715,43.684 M10.559,43.684 C10.559,44.867 10.316,45.629 9.965,45.961 C9.625,46.289 9.312,46.371 8.871,46.371 C8.434,46.371 8.117,46.289 7.777,45.961 C7.426,45.629 7.188,44.867 7.188,43.684 C7.188,42.492 7.426,41.727 7.777,41.398 C8.117,41.07 8.434,40.984 8.871,40.984 C9.312,40.984 9.625,41.07 9.965,41.398 C10.316,41.727 10.559,42.492 10.559,43.684" id="Fill-10" fill="#231F20"></path>
                <path d="M23.191,43.684 C23.191,42.176 22.715,41.211 21.984,40.719 C21.531,40.41 20.93,40.254 20.352,40.254 C19.773,40.254 19.172,40.41 18.715,40.719 C17.988,41.211 17.512,42.176 17.512,43.684 C17.512,45.18 17.988,46.148 18.715,46.637 C19.172,46.953 19.773,47.102 20.352,47.102 C20.93,47.102 21.531,46.953 21.984,46.637 C22.715,46.148 23.191,45.18 23.191,43.684 M22.035,43.684 C22.035,44.867 21.797,45.629 21.445,45.961 C21.105,46.289 20.789,46.371 20.352,46.371 C19.914,46.371 19.598,46.289 19.258,45.961 C18.906,45.629 18.668,44.867 18.668,43.684 C18.668,42.492 18.906,41.727 19.258,41.398 C19.598,41.07 19.914,40.984 20.352,40.984 C20.789,40.984 21.105,41.07 21.445,41.398 C21.797,41.727 22.035,42.492 22.035,43.684" id="Fill-11" fill="#231F20"></path>
                <path d="M17.406,40.531 C17.406,40.402 17.309,40.402 17.242,40.402 L16.617,40.402 C16.527,40.418 16.504,40.457 16.465,40.582 L14.832,45.367 L13.133,40.605 C13.074,40.43 13.047,40.402 12.859,40.402 L12.094,40.402 C12.043,40.402 11.918,40.402 11.918,40.555 L11.969,40.734 L14.242,46.715 C14.301,46.863 14.328,46.902 14.426,46.914 L14.918,46.914 C15.066,46.914 15.094,46.902 15.16,46.727 L17.359,40.734 C17.406,40.582 17.406,40.555 17.406,40.531" id="Fill-12" fill="#231F20"></path>
                <path d="M15.602,5.082 C15.602,2.273 17.875,0 20.684,0 C23.492,0 25.766,2.273 25.766,5.082 C25.766,7.887 23.492,10.164 20.684,10.164 C17.875,10.164 15.602,7.887 15.602,5.082" id="Fill-13" fill="#231F20"></path>
                <path d="M64.02,33.918 L64.617,33.918 C64.938,33.918 65.445,33.918 65.445,34.402 C65.445,34.898 64.906,34.898 64.656,34.898 L64.02,34.898 L64.02,33.918 Z M63.496,36.723 L64.02,36.723 L64.02,35.348 L64.332,35.348 C64.75,35.348 64.906,35.508 65.301,36.215 L65.59,36.723 L66.227,36.723 L65.832,36.094 C65.43,35.445 65.266,35.348 65.078,35.281 L65.078,35.262 C65.754,35.227 66.004,34.719 66.004,34.355 C66.004,34.09 65.879,33.863 65.691,33.703 C65.422,33.477 64.996,33.477 64.617,33.477 L63.496,33.477 L63.496,36.723 Z M64.82,32.027 C63.164,32.027 61.797,33.367 61.797,35.055 C61.797,36.723 63.152,38.078 64.82,38.078 C66.5,38.078 67.844,36.719 67.844,35.055 C67.844,33.379 66.48,32.027 64.82,32.027 L64.82,32.027 Z M64.816,32.535 C66.211,32.535 67.344,33.66 67.344,35.055 C67.344,36.441 66.211,37.578 64.816,37.578 C63.422,37.578 62.297,36.441 62.297,35.055 C62.297,33.66 63.422,32.535 64.816,32.535 L64.816,32.535 Z" id="Fill-14" fill="#231F20"></path>
                <path d="M17.461,4.484 C17.461,2.594 18.996,1.062 20.883,1.062 C22.773,1.062 24.305,2.594 24.305,4.484 C24.305,6.375 22.773,7.902 20.883,7.902 C18.996,7.902 17.461,6.375 17.461,4.484" id="Fill-15" fill="#B5B7B9"></path>
                <path d="M21.918,14.527 C21.48,14.262 20.57,13.797 19.668,13.266 C18.035,12.312 17.207,11.812 16.594,12.305 C15.953,12.824 15.465,13.531 15.379,13.777 C15.289,14.023 15.328,14.625 15.109,14.891 C14.949,15.09 14.707,15.477 14.367,15.887 C13.902,16.461 14.242,16.641 14.738,17.242 C15.207,17.801 16.273,17.219 17.465,18.16 C18.062,18.633 18.281,19.004 19.059,20.227 C19.32,20.633 19.477,20.395 19.691,19.84 C19.992,19.059 21.012,16.891 21.785,15.703 C22.043,15.309 22.406,14.828 21.918,14.527 M16.324,14.297 C15.84,13.469 17.621,13.234 17.707,13.492 C17.793,13.746 16.812,15.129 16.324,14.297" id="Fill-16" fill="#B5B7B9"></path>
                <path d="M30.766,17.535 C30.703,17.074 30.621,16.734 31.387,16.773 C32.414,16.824 32.918,16.879 33.547,16.871 C34.312,16.863 35.195,16.844 35.531,16.812 C36.141,16.762 36.527,16.941 36.73,17.418 C36.922,17.883 37.609,19.781 36.473,20.312 C35.02,20.992 32.906,21.082 31.863,20.773 C31.473,20.66 30.844,20.512 30.855,19.73 C30.859,19.461 30.879,18.449 30.766,17.535" id="Fill-17" fill="#B5B7B9"></path>
                <path d="M39.641,17.059 C40.227,17.707 40.574,18.77 40.645,19.23 C40.719,19.684 41.34,19.508 41.414,19.082 C41.527,18.445 41.328,17.395 40.859,16.828 C40.645,16.57 40.273,16.453 39.844,16.539 C39.438,16.613 39.328,16.707 39.641,17.059" id="Fill-18" fill="#B5B7B9"></path>
                <path d="M30.984,23.836 C30.672,23.938 28.031,24.684 27.984,27.395 C27.973,28.195 27.746,28.117 27.371,27.832 C26.074,26.836 24.734,25.902 22.938,24.832 C22.078,24.324 21.332,23.605 21.062,23.129 C20.625,22.363 20.031,21.191 20.703,19.383 C21.035,18.488 21.719,17.078 22.242,16.312 C23.09,15.059 23.004,15.043 24.648,15.574 C26.125,16.047 26.047,16.227 26.066,16.953 C26.094,17.902 25.973,18.762 25.777,19.637 C25.672,20.102 25.969,20.617 26.535,20.633 C28.855,20.695 28.902,17.48 28.902,17.473 C28.953,16.727 28.668,16.574 29.41,16.648 C29.965,16.699 30.066,17.172 30.145,18.02 C30.176,18.332 30.156,19.543 30.156,19.875 C30.156,20.203 30.191,21.066 31.328,21.375 C33.211,21.895 35.828,21.48 36.902,20.844 C37.531,20.473 37.938,20.047 37.855,19.141 C37.793,18.469 37.605,17.625 37.48,17.312 C37.34,16.961 37.363,16.719 37.656,16.684 C39.07,16.488 39.707,17.961 40.191,19.758 C40.348,20.34 41.152,20.305 41.562,19.902 C41.961,19.516 42.195,18.898 41.906,17.746 C41.812,17.371 41.68,17.074 41.57,16.887 C41.469,16.715 41.441,16.562 41.828,16.562 C44.406,16.543 43.762,21.324 43.73,21.734 C43.691,22.242 43.477,23.344 43.363,23.852 C42.906,25.957 41.82,25.113 41.477,24.898 C40.395,24.219 39.18,23.711 37.523,23.562 C34.004,23.242 32.027,23.48 30.984,23.836" id="Fill-19" fill="#B5B7B9"></path>
                <path d="M26.801,16.664 C26.926,18.148 26.523,19.32 26.527,19.547 C26.535,19.852 26.91,19.934 27.207,19.77 C27.738,19.477 28.141,18.461 28.109,16.906 C28.102,16.527 28.121,16.355 27.477,16.254 C26.859,16.148 26.762,16.176 26.801,16.664" id="Fill-20" fill="#B5B7B9"></path>
            </g>
        </g>
    </g>
</svg>