<svg width="46px" height="39px" viewBox="0 0 46 39" version="1.1" xmlns="http://www.w3.org/2000/svg" xmlns:xlink="http://www.w3.org/1999/xlink">
    <title>phi</title>
    <g id="Page-1" stroke="none" stroke-width="1" fill="none" fill-rule="evenodd">
        <g id="Artboard" transform="translate(-711, -835)">
            <g id="phi" transform="translate(711, 835)">
                <polygon id="Fill-1" fill="#231F20" points="40.895 16.797 40.895 28.418 45.824 28.418 45.824 11.871"></polygon>
                <polygon id="Fill-2" fill="#76777A" points="40.895 10.07 40.895 14.996 45.824 10.07"></polygon>
                <path d="M9.914,23.473 L4.934,23.473 L4.934,14.996 L9.914,14.996 C12.258,14.996 14.156,16.895 14.156,19.234 C14.156,21.574 12.258,23.473 9.914,23.473 M9.914,10.07 L0,10.07 L0,38.488 L4.934,33.699 L4.934,28.398 L9.914,28.398 C14.98,28.398 19.09,24.293 19.09,19.234 C19.09,14.176 14.98,10.07 9.914,10.07" id="Fill-3" fill="#231F20"></path>
                <path d="M29.992,10.07 C28.461,10.07 27.016,10.449 25.75,11.109 L25.75,0 L20.816,4.789 L20.816,28.418 L25.75,28.418 L25.75,19.234 C25.75,16.895 27.648,14.996 29.992,14.996 C32.336,14.996 34.234,16.895 34.234,19.234 L34.234,28.418 L39.168,28.418 L39.168,19.234 C39.168,14.176 35.059,10.07 29.992,10.07" id="Fill-4" fill="#231F20"></path>
                <path d="M44.074,33.531 C44.676,33.535 45.117,33.098 45.125,32.488 C45.133,31.887 44.711,31.453 44.117,31.449 C43.496,31.445 43.059,31.848 43.055,32.43 C43.047,33.078 43.465,33.527 44.074,33.531 M42.539,34.465 C42.727,34.465 42.906,34.461 43.086,34.469 C43.125,34.469 43.18,34.52 43.188,34.551 C43.242,34.793 43.398,34.926 43.621,35 C43.902,35.09 44.191,35.113 44.48,35.027 C44.855,34.914 45.086,34.629 45.109,34.238 C45.121,34.055 45.113,33.867 45.113,33.66 C44.719,34.105 44.223,34.211 43.68,34.125 C43.285,34.062 42.949,33.879 42.699,33.555 C42.18,32.879 42.258,31.773 42.855,31.242 C43.355,30.801 44.531,30.582 45.141,31.359 L45.141,30.988 C45.375,30.961 45.59,30.938 45.824,30.914 C45.824,31.277 45.828,31.633 45.824,31.984 C45.82,32.695 45.816,33.406 45.809,34.117 C45.805,34.262 45.793,34.414 45.766,34.559 C45.656,35.086 45.344,35.441 44.828,35.602 C44.305,35.762 43.781,35.75 43.266,35.559 C42.781,35.379 42.496,34.953 42.539,34.465" id="Fill-5" fill="#231F20"></path>
                <path d="M15.668,32.391 C15.668,32.895 16.031,33.27 16.52,33.27 C17.016,33.27 17.391,32.895 17.391,32.391 C17.391,31.906 17.004,31.52 16.523,31.52 C16.027,31.516 15.668,31.883 15.668,32.391 M17.43,31.25 L17.43,30.094 C17.684,30.066 17.922,30.039 18.176,30.012 L18.176,33.891 L17.488,33.891 C17.473,33.781 17.457,33.668 17.434,33.523 C17.078,33.949 16.629,34.023 16.133,33.938 C15.77,33.875 15.465,33.703 15.234,33.41 C14.746,32.789 14.824,31.691 15.391,31.18 C15.859,30.754 16.832,30.625 17.43,31.25" id="Fill-6" fill="#231F20"></path>
                <path d="M12.559,33.301 C13.07,33.305 13.438,32.926 13.441,32.398 C13.441,31.875 13.066,31.488 12.562,31.488 C12.039,31.488 11.672,31.867 11.68,32.398 C11.684,32.93 12.047,33.301 12.559,33.301 M13.445,31.223 C13.457,31.148 13.469,31.066 13.48,30.973 C13.715,30.945 13.945,30.922 14.184,30.898 L14.184,33.895 L13.492,33.895 C13.48,33.777 13.465,33.66 13.449,33.508 C13.277,33.73 13.074,33.867 12.832,33.938 C11.867,34.215 10.969,33.559 10.93,32.543 C10.906,32.039 11,31.57 11.387,31.207 C11.793,30.82 12.539,30.695 13.039,30.941 C13.184,31.012 13.305,31.121 13.445,31.223" id="Fill-7" fill="#231F20"></path>
                <path d="M25.031,32.035 C25.023,31.707 24.762,31.5 24.344,31.461 C23.918,31.426 23.539,31.668 23.461,32.035 M25.773,32.664 L23.441,32.664 C23.457,32.875 23.562,33.02 23.719,33.129 C24.059,33.363 24.633,33.352 25.016,33.098 C25.051,33.078 25.086,33.051 25.113,33.031 C25.266,33.184 25.418,33.34 25.59,33.512 C25.504,33.578 25.41,33.664 25.305,33.723 C24.758,34.023 24.18,34.066 23.598,33.859 C22.93,33.621 22.559,32.926 22.66,32.16 C22.777,31.289 23.445,30.742 24.324,30.801 C24.512,30.816 24.707,30.84 24.883,30.898 C25.438,31.09 25.699,31.512 25.77,32.07 C25.789,32.258 25.773,32.453 25.773,32.664" id="Fill-8" fill="#231F20"></path>
                <path d="M39.613,33.895 L38.887,33.895 L38.887,30.969 C39.105,30.945 39.336,30.918 39.582,30.895 C39.59,31.016 39.594,31.129 39.598,31.219 C39.812,31.105 40.016,30.957 40.238,30.891 C40.984,30.672 41.707,31.129 41.809,31.93 C41.887,32.574 41.852,33.23 41.871,33.891 L41.109,33.891 C41.105,33.84 41.102,33.781 41.102,33.727 C41.102,33.281 41.102,32.836 41.102,32.391 C41.102,32.305 41.102,32.219 41.086,32.137 C41.016,31.746 40.734,31.512 40.355,31.523 C39.984,31.535 39.66,31.828 39.633,32.223 C39.605,32.605 39.617,32.996 39.613,33.379 C39.613,33.551 39.613,33.719 39.613,33.895" id="Fill-9" fill="#231F20"></path>
                <path d="M33.828,33.465 C33.953,33.285 34.066,33.117 34.195,32.934 C34.422,33.141 34.691,33.258 34.984,33.32 C35.18,33.359 35.375,33.375 35.559,33.281 C35.688,33.219 35.785,33.129 35.77,32.973 C35.762,32.812 35.641,32.75 35.5,32.727 C35.277,32.691 35.047,32.676 34.824,32.629 C34.664,32.594 34.496,32.539 34.352,32.457 C33.832,32.168 33.785,31.461 34.246,31.09 C34.77,30.672 35.852,30.715 36.344,31.172 C36.352,31.18 36.359,31.199 36.371,31.215 C36.238,31.371 36.105,31.527 35.965,31.691 C35.672,31.445 35.336,31.383 34.977,31.453 C34.93,31.461 34.871,31.465 34.844,31.496 C34.777,31.559 34.688,31.637 34.688,31.711 C34.688,31.793 34.758,31.918 34.828,31.945 C34.98,32.008 35.152,32.023 35.32,32.055 C35.508,32.09 35.699,32.105 35.879,32.16 C36.234,32.262 36.469,32.488 36.508,32.875 C36.555,33.297 36.398,33.621 36.02,33.828 C35.613,34.043 35.18,34.035 34.746,33.965 C34.391,33.91 34.09,33.742 33.828,33.465" id="Fill-10" fill="#231F20"></path>
                <path d="M22.191,30.883 C22.137,31.008 22.094,31.113 22.051,31.219 C21.691,32.074 21.328,32.926 20.969,33.781 C20.93,33.879 20.883,33.922 20.773,33.914 C20.582,33.906 20.391,33.918 20.203,33.906 C20.152,33.906 20.082,33.863 20.062,33.82 C19.656,32.871 19.25,31.922 18.848,30.973 C18.84,30.949 18.836,30.922 18.824,30.883 C19.078,30.883 19.32,30.875 19.562,30.887 C19.605,30.891 19.66,30.957 19.68,31.008 C19.938,31.656 20.188,32.309 20.441,32.957 C20.457,33.004 20.473,33.047 20.504,33.121 C20.535,33.043 20.559,32.988 20.578,32.934 C20.824,32.289 21.074,31.648 21.32,31.004 C21.355,30.914 21.402,30.875 21.504,30.879 C21.723,30.887 21.945,30.883 22.191,30.883" id="Fill-11" fill="#231F20"></path>
                <path d="M29.961,31.551 L29.414,31.551 L29.414,30.898 L29.957,30.898 L29.957,30.094 C30.215,30.066 30.453,30.039 30.715,30.012 L30.715,30.895 L31.535,30.895 L31.535,31.543 L30.715,31.543 C30.715,32.016 30.703,32.469 30.723,32.922 C30.73,33.164 30.93,33.293 31.172,33.254 C31.266,33.238 31.355,33.207 31.461,33.18 C31.531,33.383 31.598,33.586 31.672,33.809 C31.266,33.961 30.867,34.02 30.469,33.824 C30.113,33.648 29.984,33.324 29.973,32.945 C29.965,32.547 29.965,32.148 29.961,31.754 C29.961,31.688 29.961,31.629 29.961,31.551" id="Fill-12" fill="#231F20"></path>
                <path d="M28.953,31.109 C28.844,31.316 28.738,31.527 28.645,31.707 C28.449,31.652 28.273,31.57 28.09,31.562 C27.629,31.539 27.34,31.824 27.336,32.289 C27.328,32.762 27.332,33.234 27.332,33.707 L27.332,33.891 L26.598,33.891 L26.598,30.969 C26.832,30.945 27.07,30.922 27.328,30.895 L27.328,31.168 C27.586,30.855 27.922,30.789 28.293,30.816 C28.551,30.836 28.793,30.941 28.953,31.109" id="Fill-13" fill="#231F20"></path>
                <path d="M33.086,33.895 L32.348,33.895 L32.348,30.973 C32.59,30.949 32.832,30.926 33.086,30.898 L33.086,33.895 Z" id="Fill-14" fill="#231F20"></path>
                <path d="M37.973,30.898 L37.973,33.887 L37.238,33.887 L37.238,30.977 C37.477,30.949 37.715,30.926 37.973,30.898" id="Fill-15" fill="#231F20"></path>
                <path d="M32.34,30.09 C32.59,30.062 32.832,30.039 33.086,30.012 L33.086,30.684 C32.836,30.711 32.594,30.738 32.34,30.766 L32.34,30.09 Z" id="Fill-16" fill="#231F20"></path>
                <path d="M37.234,30.09 C37.488,30.062 37.723,30.039 37.969,30.012 L37.969,30.684 C37.723,30.711 37.484,30.738 37.234,30.762 L37.234,30.09 Z" id="Fill-17" fill="#231F20"></path>
            </g>
        </g>
    </g>
</svg>