<svg width="60px" height="31px" viewBox="0 0 60 31" version="1.1" xmlns="http://www.w3.org/2000/svg" xmlns:xlink="http://www.w3.org/1999/xlink">
    <title>roche</title>
    <g id="Page-1" stroke="none" stroke-width="1" fill="none" fill-rule="evenodd">
        <g id="Artboard" transform="translate(-512, -584)">
            <g id="roche" transform="translate(512, 584)">
                <path d="M14.57,13.727 L14.57,10.219 L16.234,10.219 C16.68,10.219 17.027,10.363 17.273,10.648 C17.52,10.938 17.641,11.375 17.641,11.973 C17.641,12.566 17.52,13.008 17.273,13.297 C17.027,13.582 16.68,13.727 16.234,13.727 L14.57,13.727 Z M14.57,20.668 L14.57,15.305 L15.984,15.305 C16.391,15.305 16.656,15.402 16.836,15.586 C17.016,15.77 17.113,16.066 17.16,16.492 L17.621,20.668 L19.281,20.668 L18.781,16.336 C18.723,15.82 18.656,15.477 18.449,15.176 C18.254,14.902 17.984,14.672 17.664,14.566 C18.168,14.324 18.566,13.992 18.859,13.562 C19.148,13.133 19.297,12.539 19.297,11.785 C19.297,10.809 19.023,10.043 18.48,9.48 C17.934,8.922 17.188,8.641 16.238,8.641 L12.922,8.641 L12.922,20.668 L14.57,20.668 Z" id="Fill-1" fill="#787A7C"></path>
                <g id="Group-10">
                    <path d="M13.812,0.156 L0.441,15.535 L0.441,15.566 L13.812,30.949 L46.293,30.949 L59.676,15.551 L46.293,0.156 L13.812,0.156 Z M2.504,15.551 L14.531,1.719 L45.578,1.719 L57.602,15.551 L45.578,29.383 L14.531,29.383 L2.504,15.551 Z" id="Fill-3" fill="#787A7C"></path>
                    <path d="M48.656,13.621 C48.387,13.07 48.008,12.648 47.523,12.352 C47.039,12.055 46.48,11.902 45.855,11.902 C45.227,11.902 44.672,12.055 44.184,12.352 C43.699,12.648 43.32,13.07 43.055,13.621 C42.785,14.168 42.652,14.809 42.652,15.539 L42.652,17.184 C42.652,17.914 42.785,18.555 43.055,19.102 C43.32,19.648 43.699,20.07 44.184,20.371 C44.672,20.664 45.227,20.812 45.855,20.812 C46.48,20.812 47.039,20.664 47.523,20.371 C48.008,20.07 48.305,19.734 48.57,19.188 C48.699,18.926 48.805,18.598 48.875,18.266 L47.34,17.91 C47.273,18.242 47.156,18.551 46.988,18.77 C46.715,19.125 46.309,19.285 45.855,19.285 C45.398,19.285 44.996,19.125 44.723,18.77 C44.445,18.418 44.309,17.91 44.309,17.281 L44.309,16.668 L49.059,16.668 L49.059,15.539 C49.059,14.809 48.922,14.168 48.656,13.621 M45.855,13.434 C46.309,13.434 46.715,13.594 46.988,13.941 C47.234,14.258 47.371,14.73 47.395,15.277 L44.312,15.277 C44.34,14.73 44.473,14.258 44.723,13.941 C44.996,13.594 45.398,13.434 45.855,13.434" id="Fill-4" fill="#6C6D70"></path>
                    <path d="M36.824,20.613 L36.824,15.004 C36.824,14.531 36.957,14.156 37.223,13.879 C37.488,13.605 37.82,13.465 38.223,13.465 C38.625,13.465 38.961,13.605 39.227,13.879 C39.492,14.156 39.625,14.531 39.625,15.004 L39.625,20.613 L41.281,20.613 L41.281,14.648 C41.281,13.785 41.055,13.113 40.605,12.629 C40.16,12.145 39.547,11.902 38.777,11.902 C38.352,11.902 37.973,11.984 37.617,12.16 C37.266,12.328 36.984,12.555 36.824,12.793 L36.824,8.527 L35.168,8.527 L35.168,20.613 L36.824,20.613 Z" id="Fill-5" fill="#6C6D70"></path>
                    <path d="M29.238,17.266 C29.238,17.895 29.379,18.398 29.656,18.746 C29.938,19.094 30.34,19.254 30.797,19.254 C31.621,19.254 32.129,18.727 32.324,17.676 L33.863,18.035 C33.738,18.918 33.422,19.598 32.906,20.086 C32.391,20.57 31.691,20.812 30.797,20.812 C29.828,20.812 29.047,20.484 28.461,19.828 C27.871,19.172 27.578,18.281 27.578,17.164 L27.578,15.555 C27.578,14.434 27.871,13.547 28.461,12.891 C29.047,12.23 29.828,11.902 30.797,11.902 C31.691,11.902 32.391,12.148 32.906,12.633 C33.422,13.117 33.738,13.801 33.863,14.68 L32.324,15.039 C32.129,13.988 31.621,13.461 30.797,13.461 C30.34,13.461 29.938,13.621 29.656,13.973 C29.379,14.32 29.238,14.82 29.238,15.449 L29.238,17.266 Z" id="Fill-6" fill="#6C6D70"></path>
                    <path d="M23.098,19.258 C22.641,19.258 22.238,19.098 21.965,18.742 C21.688,18.387 21.551,17.883 21.551,17.254 L21.551,15.457 C21.551,14.828 21.688,14.324 21.965,13.977 C22.238,13.629 22.641,13.469 23.098,13.469 C23.551,13.469 23.957,13.629 24.23,13.977 C24.504,14.324 24.641,14.828 24.641,15.457 L24.641,17.254 C24.641,17.883 24.504,18.387 24.23,18.742 C23.957,19.098 23.551,19.258 23.098,19.258 M23.098,20.812 C23.723,20.812 24.281,20.668 24.766,20.371 C25.25,20.074 25.629,19.652 25.898,19.105 C26.164,18.555 26.301,17.918 26.301,17.184 L26.301,15.539 C26.301,14.809 26.164,14.172 25.898,13.621 C25.629,13.074 25.25,12.652 24.766,12.355 C24.281,12.059 23.723,11.906 23.098,11.906 C22.469,11.906 21.91,12.059 21.426,12.355 C20.941,12.652 20.562,13.074 20.297,13.621 C20.027,14.172 19.895,14.809 19.895,15.539 L19.895,17.184 C19.895,17.918 20.027,18.555 20.297,19.105 C20.562,19.652 20.941,20.074 21.426,20.371 C21.91,20.668 22.469,20.812 23.098,20.812" id="Fill-7" fill="#6C6D70"></path>
                    <path d="M14.211,13.637 L14.211,10.117 L15.883,10.117 C16.332,10.117 16.68,10.258 16.93,10.547 C17.176,10.836 17.297,11.277 17.297,11.879 C17.297,12.477 17.176,12.918 16.93,13.207 C16.68,13.496 16.332,13.637 15.883,13.637 L14.211,13.637 Z M14.211,20.613 L14.211,15.227 L15.633,15.227 C16.039,15.227 16.309,15.324 16.488,15.508 C16.668,15.695 16.766,15.992 16.812,16.418 L17.277,20.613 L18.945,20.613 L18.441,16.262 C18.387,15.746 18.32,15.398 18.105,15.094 C17.914,14.82 17.641,14.59 17.32,14.484 C17.824,14.242 18.227,13.906 18.52,13.473 C18.816,13.043 18.961,12.445 18.961,11.688 C18.961,10.707 18.688,9.938 18.141,9.375 C17.594,8.809 16.844,8.527 15.887,8.527 L12.555,8.527 L12.555,20.613 L14.211,20.613 Z" id="Fill-8" fill="#6C6D70"></path>
                    <path d="M13.453,0 L0,15.473 L13.453,30.949 L46.094,30.949 L59.543,15.473 L46.094,0 L13.453,0 Z M2.086,15.473 L14.168,1.574 L45.375,1.574 L57.461,15.473 L45.375,29.375 L14.168,29.375 L2.086,15.473 Z" id="Fill-9" fill="#6C6D70"></path>
                </g>
            </g>
        </g>
    </g>
</svg>