<svg width="66px" height="17px" viewBox="0 0 66 17" version="1.1" xmlns="http://www.w3.org/2000/svg" xmlns:xlink="http://www.w3.org/1999/xlink">
    <title>sanofi</title>
    <g id="Page-1" stroke="none" stroke-width="1" fill="none" fill-rule="evenodd">
        <g id="Artboard" transform="translate(-509, -1014)">
            <g id="sanofi" transform="translate(509, 1014)">
                <path d="M23.152,5.355 C21.594,4.766 20.133,4.48 18.504,4.48 C14.941,4.48 12.441,6.863 12.441,10.613 C12.441,14.414 14.613,16.746 18.457,16.746 C20.016,16.746 21.523,16.488 23.152,15.805 C23.527,15.637 23.742,15.379 23.742,14.859 L23.742,6.297 C23.742,5.754 23.527,5.496 23.152,5.355 L23.152,5.355 Z M20.676,13.066 C20.676,13.422 20.488,13.586 20.086,13.703 C19.566,13.848 19.117,13.918 18.48,13.918 C16.973,13.918 15.559,13.02 15.559,10.613 C15.559,8.207 16.973,7.312 18.48,7.312 C19.117,7.312 19.566,7.383 20.086,7.523 C20.488,7.641 20.676,7.809 20.676,8.16 L20.676,13.066 Z" id="Fill-1" fill="#231F20"></path>
                <path d="M3.289,8.422 C3.289,7.699 4.023,7.242 5.273,7.242 C6.477,7.242 7.629,7.641 8.832,8.305 C8.953,8.375 9.07,8.398 9.188,8.398 C9.402,8.398 9.602,8.262 9.707,8.066 L10.438,6.512 C10.504,6.363 10.531,6.227 10.531,6.109 C10.531,5.922 10.434,5.746 10.25,5.637 C8.785,4.789 7.043,4.387 5.367,4.387 C2.207,4.387 0.176,6.086 0.176,8.633 C0.176,13.633 7.773,11.699 7.773,15.168 C7.773,15.52 7.723,15.734 7.629,16.039 C7.617,16.086 7.605,16.133 7.605,16.18 C7.605,16.371 7.723,16.512 7.961,16.512 L10.082,16.512 C10.438,16.512 10.578,16.395 10.695,16.039 C10.84,15.641 10.887,15.098 10.887,14.695 C10.887,9.34 3.289,10.629 3.289,8.422" id="Fill-2" fill="#231F20"></path>
                <path d="M31.949,4.48 C30.559,4.48 28.93,4.719 27.211,5.332 C26.879,5.449 26.617,5.73 26.617,6.273 L26.617,16.039 C26.617,16.324 26.809,16.512 27.09,16.512 L29.215,16.512 C29.496,16.512 29.688,16.324 29.688,16.039 L29.688,8.113 C29.688,7.762 29.875,7.594 30.254,7.5 C30.863,7.359 31.266,7.312 31.996,7.312 C33.27,7.312 34.285,7.902 34.285,9.316 L34.285,16.039 C34.285,16.324 34.473,16.512 34.758,16.512 L36.879,16.512 C37.164,16.512 37.352,16.324 37.352,16.039 L37.352,8.914 C37.352,6.039 35.582,4.48 31.949,4.48" id="Fill-3" fill="#231F20"></path>
                <path d="M45.465,4.48 C41.93,4.48 39.617,7.051 39.617,10.613 C39.617,14.176 41.93,16.746 45.633,16.746 C49.168,16.746 51.48,14.176 51.48,10.613 C51.48,7.051 49.168,4.48 45.465,4.48 M45.633,13.918 C43.887,13.918 42.73,12.785 42.73,10.613 C42.73,8.445 43.887,7.312 45.465,7.312 C47.211,7.312 48.367,8.445 48.367,10.613 C48.367,12.785 47.211,13.918 45.633,13.918" id="Fill-4" fill="#231F20"></path>
                <path d="M64.621,4.719 L62.496,4.719 C62.215,4.719 62.023,4.906 62.023,5.188 L62.023,16.039 C62.023,16.324 62.215,16.512 62.496,16.512 L64.621,16.512 C64.902,16.512 65.09,16.324 65.09,16.039 L65.09,5.188 C65.09,4.906 64.902,4.719 64.621,4.719" id="Fill-5" fill="#231F20"></path>
                <path d="M60.09,0.164 C59.617,0.047 59.109,0 58.605,0 C55.68,0 53.77,1.555 53.77,4.953 L53.77,16.039 C53.77,16.324 53.957,16.512 54.242,16.512 L56.34,16.512 C56.621,16.512 56.812,16.324 56.812,16.039 L56.812,7.312 L59.809,7.312 C60.113,7.312 60.281,7.121 60.281,6.84 L60.281,5.215 C60.281,4.906 60.113,4.719 59.809,4.719 L56.812,4.719 L56.812,4.457 C56.812,3.16 57.379,2.5 58.676,2.5 C59.148,2.5 59.656,2.617 59.832,2.617 C60.113,2.617 60.234,2.453 60.281,2.172 L60.516,0.945 C60.535,0.836 60.562,0.738 60.562,0.637 C60.562,0.375 60.422,0.234 60.09,0.164" id="Fill-6" fill="#231F20"></path>
                <path d="M1.605,13.492 C0.637,13.492 0,14.105 0,15.121 C0,16.109 0.637,16.746 1.676,16.746 C2.641,16.746 3.277,16.109 3.277,15.121 C3.277,14.105 2.641,13.492 1.605,13.492" id="Fill-7" fill="#6E7072"></path>
                <path d="M63.523,0.004 C62.555,0.004 61.918,0.617 61.918,1.633 C61.918,2.621 62.555,3.258 63.594,3.258 C64.562,3.258 65.195,2.621 65.195,1.633 C65.195,0.617 64.562,0.004 63.523,0.004" id="Fill-8" fill="#6E7072"></path>
            </g>
        </g>
    </g>
</svg>